<?xml version="1.0" encoding="UTF-8"?>
<svg id="Layer_3" data-name="Layer 3" xmlns="http://www.w3.org/2000/svg" viewBox="0 0 1392.288696289 420.788574219">
  <g id="Layer_1" data-name="Layer 1">
    <g>
      <path d="M214.116699219,76.501464844c8.565917969,5.430664062,17.132324219,10.798828125,25.703125,16.105957031-10.442871094,12.4765625-20.885253906,25.060546875-31.328125,37.766113281,21.948242188,1.869628906,43.908203125,3.612792969,65.876464844,5.233398438,13.852050781-16.740722656,27.703613281-33.301269531,41.560546875-49.715820312-33.968017578-2.764160156-67.909423828-5.893554688-101.812011719-9.389648438Z"/>
      <path d="M1235.812866211,130.031738281l20.429321289-14.848632812c35.839233398-26.048828125,70.95703125-52.923828125,104.377807617-79.877929688l31.668701172-25.541503906-40.224487305,6.103515625c-80.538452148,12.220214844-162.500244141,22.290039062-243.608520508,29.930175781l-4.775146484.450195312-.014770508.01953125-13.153076172,1.18359375c-23.628051758,2.126464844-47.575073242,4.083496094-71.17565918,5.816894531l-4.792236328.3515625-35.637451172,2.499023438-25.057739258,1.459960938c-23.720947266,1.382324219-47.706665039,2.581542969-71.291015625,3.564453125l-4.843994141.201660156-.015136719.018066406-13.13293457.493652344c-54.032958984,2.030761719-108.854125977,3.060546875-162.940673828,3.060546875-14.891723633,0-29.99230957-.077636719-44.881958008-.231933594l-4.949462891-.051269531-3.321044922,3.670410156c-10.672851562,11.795410156-21.354248047,23.674316406-32.017333984,35.577148438l2.154052734-28.24609375.884033203-11.583007812-11.614013672-.251464844c-13.531005859-.29296875-27.268310547-.654296875-40.829833984-1.074707031-45.497558594-1.412109375-91.591796875-3.573242188-137.002441406-6.423828125l-5.303466797-.333007812-3.557373047,3.948242188c-3.833984375,4.254882812-7.593017578,8.435058594-11.318359375,12.581542969-3.071289062-8.310058594-6.140136719-16.639160156-9.2109375-24.990722656l-2.443359375-6.645019531-7.059570312-.528320312c-98.852294922-7.401367188-198.75390625-18.504882812-296.929199219-33.001464844L44.566162109,0l42.042236328,27.427734375c24.683837891,16.103515625,50.27734375,32.158203125,76.232421875,47.823242188-6.131347656,7.385253906-12.266357422,14.762207031-18.260742188,21.969726562-33.07421875,39.76953125-67.274414062,80.893554688-100.359863281,122.797363281l-12.998046875,16.462402344,20.932861328,1.33203125c9.240966797.587890625,18.551513672,1.167480469,27.840820312,1.732910156-13.406005859,20.392089844-26.726318359,40.970703125-39.729003906,61.378417969L0,364.123046875l56.730957031-48.9609375c43.703857422-37.718261719,89.065673828-74.85546875,138.677490234-113.534179688l12.994140625-10.130859375c30.348144531,48.419921875,73.815429688,86.65234375,116.046386719,123.796875,18.758300781,16.498535156,36.476318359,32.083007812,53.116455078,48.514648438l57.702148438,56.979980469-40.438232422-70.292480469c-19.475341797-33.853027344-38.006591797-66.524902344-55.857666016-98.487304688l1.299072266.045898438c48.642089844,1.716796875,98.119384766,3.106933594,147.057128906,4.130859375l5.120117188.107421875,3.377929688-3.849609375c12.743408203-14.520996094,25.577636719-29.064941406,38.424560547-43.578613281,7.371337891,13.776367188,14.888916016,27.783203125,22.962158203,42.783691406l3.068115234,5.700683594,6.473144531.085449219c20.279052734.267089844,40.876464844.4765625,61.417724609.624023438-10.948974609,39.696289062-21.081298828,76.528320312-30.865234375,112.198730469l-13.410888672,48.893066406,32.467529297-38.938964844c33.715820312-40.436035156,67.899658203-80.833496094,103.149658203-121.896484375l12.548950195-.037597656c67.256958008-.200683594,135.28503418-1.081054688,202.325073242-2.60546875l-.029418945.03515625,24.410400391-.612304688c44.73046875-1.121582031,90.034667969-2.559082031,135.010375977-4.281738281-14.897094727,18.473632812-30.316040039,37.328125-46.022583008,56.276367188l-45.018676758,54.310546875,59.416992188-38.025390625c66.431884766-42.515136719,125.738891602-82.939941406,181.310180664-123.583984375l30.69128418-22.447753906-37.935546875,2.594726562c-49.307006836,3.371582031-99.281982422,6.309570312-148.889404297,8.75390625l6.756958008-8.447265625.216064453-.012695312.029785156-.040039062c20.129150391-1.181152344,40.453979492-2.465332031,60.498779297-3.823730469l4.936767578-.334472656,3.024902344-3.915527344c8.723510742-11.29296875,17.448852539-22.701171875,25.93347168-33.908203125l14.861938477-19.629882812-24.537841797,2.027832031c-13.520996094,1.1171875-27.162597656,2.1953125-40.774047852,3.223144531,2.217407227-2.874511719,4.427124023-5.746582031,6.623657227-8.607910156l8.135986328-10.599609375c28.883056641-2.623046875,58.034912109-5.527832031,86.909179688-8.659179688-.363525391,3-.727294922,5.999023438-1.090942383,8.99609375l-3.042114258,25.071777344ZM385.294433594,355.981445312c-61.229736328-60.463378906-140.911865234-113.165039062-180.809082031-193.980957031-7.233886719-.5390625-14.467285156-1.090820312-21.699707031-1.653808594-8.306152344,10.093261719-16.611816406,20.270019531-24.919433594,30.53515625,10.257324219.709960938,20.517089844,1.400390625,30.778808594,2.070800781-46.33984375,36.127929688-92.680664062,73.819335938-139.101074219,113.881835938,16.727539062-26.25390625,33.43359375-51.94140625,50.127441406-77.129394531-15.609863281-.920898438-31.216308594-1.877929688-46.817871094-2.870605469,41.635986328-52.733398438,84.112304688-103.109863281,126.633300781-154.421386719-28.996582031-17.309082031-57.957519531-35.337402344-86.868164062-54.198242188,98.828125,14.593261719,198.113037109,25.631347656,297.71484375,33.088867188,3.147460938,8.560058594,6.29296875,17.098144531,9.440917969,25.614746094-18.158691406,20.869140625-36.307128906,41.899414062-54.448242188,63.166015625-16.781738281,9.275390625-33.557128906,18.615234375-50.329589844,28.046875-5.073242188-.30859375-10.147460938-.623046875-15.21875-.944335938,35.154296875,64.978027344,70.344726562,127.656738281,105.516601562,188.794433594ZM487.558105469,245.187988281c-48.978027344-1.024902344-97.943603516-2.3984375-146.899414062-4.126464844-7.898925781-15.460449219-15.796386719-31.024902344-23.693359375-46.704101562,37.360107422-43.219726562,74.485107422-85.006347656,112.393554688-127.077148438,45.749023438,2.871582031,91.537597656,5.018066406,137.350585938,6.439941406,13.642578125.422851562,27.287109375.782226562,40.932617188,1.077636719-.973144531,12.752929688-1.945800781,25.508789062-2.918457031,38.266113281-39.134765625,43.900390625-78.3125,87.850585938-117.165527344,132.124023438ZM607.914550781,373.166992188c11.545410156-42.091796875,23.103515625-84.077148438,34.677001953-126.015136719-25.232421875-.145996094-50.462890625-.383789062-75.692626953-.716308594-7.842285156-14.571289062-15.687988281-29.186523438-23.535644531-43.854980469,37.654296875-42.466796875,75.195068359-84.820800781,113.266845703-126.896484375,14.999755859.155273438,29.99609375.232421875,44.995727539.232421875,54.461914062,0,108.924194336-1.022460938,163.353881836-3.068359375-21.594238281,13.657714844-43.186035156,27.051269531-64.772949219,40.240234375-32.850463867.6484375-65.700561523.974609375-98.557250977.974609375-2.512817383,0-5.031738281-.001953125-7.544555664-.005859375-.014160156.017089844-.028320312.032714844-.043457031.048828125-12.028076172-.018066406-24.056884766-.079589844-36.084716797-.185058594,8.431884766,4.163085938,16.863525391,8.30078125,25.293945312,12.416992188-24.295166016,27.520996094-48.569580078,54.899902344-72.822509766,82.310058594,21.890869141.253417969,43.782958984.415527344,65.675292969.487304688,8.348632812-9.470214844,16.700683594-18.948730469,25.055419922-28.442871094-14.873779297-.001464844-29.747802734-.052246094-44.621337891-.151367188,16.471191406-9.701171875,32.946777344-19.4453125,49.427490234-29.262207031,30.856445312-.022460938,61.713745117-.290527344,92.565673828-.805664062-64.488037109,73.519042969-128.015625,147.591796875-190.636230469,222.693847656ZM732.028808594,247.27734375c49.463867188-56.404296875,97.862304688-112.047363281,146.802490234-170.174804688l4.185302734-4.969726562c22.51574707-.958984375,48.970947266-2.262207031,71.472900391-3.573242188-35.544433594,43.372558594-71.084472656,85.470214844-106.593994141,126.82421875-15.706787109,4.458007812-31.412841797,8.84375-47.118408203,13.167480469,33.974609375-.428222656,67.948730469-1.075195312,101.913818359-1.946289062,39.136230469-46.115234375,78.30078125-93.334960938,117.451660156-142.3671875,23.797851562-1.747558594,47.583984375-3.691894531,71.356201172-5.831542969-50.273803711,64.943359375-99.418457031,125.041015625-151.014404297,186.128417969-69.471191406,1.623535156-138.963867188,2.53515625-208.455566406,2.742675781ZM1147.196533203,94.10546875c-.014648438.019042969-.028808594.037597656-.043457031.056640625-12.200195312,1.094726562-24.403808594,2.14453125-36.611083984,3.150390625,8.545898438,3.725097656,17.089355469,7.460449219,25.6328125,11.212402344-7.241943359,9.435058594-14.485595703,18.795410156-21.730712891,28.083496094,21.847167969-1.555175781,43.685546875-3.234863281,65.512939453-5.038574219-8.620117188,11.385742188-17.243164062,22.657226562-25.868652344,33.823242188-21.838623047,1.479492188-43.685791016,2.8515625-65.540527344,4.116699219-.010009766.013183594-.019775391.024902344-.029541016.038085938-12.211669922.706542969-24.425048828,1.379394531-36.641113281,2.019042969,8.552490234,3.91015625,17.102294922,7.830078125,25.651855469,11.767578125-4.689208984,5.862304688-9.378173828,11.698242188-14.067871094,17.5078125,57.885742188-2.669433594,115.712036133-5.978027344,173.509033203-9.930664062-60.163085938,44.002929688-120.454101562,84.612304688-180.745849609,123.197753906,20.416015625-24.629882812,40.83203125-49.67578125,61.241210938-75.240722656-52.971069336,2.155761719-105.968994141,3.900390625-158.973388672,5.229980469,0,0-.00012207,0-.000244141-.000488281-.000732422.000976562.000366211-.000488281-.000244141.000488281q-.00012207-.000488281,0-.000488281h.000244141c11.201293945-13.319824219,22.406005859-26.747070312,33.608642578-40.290527344,8.365722656-10.114746094,16.732421875-20.294433594,25.098144531-30.550292969h-.000244141c8.638671875-10.58984375,17.27734375-21.256835938,25.914550781-32.010742188h.000244141c10.9296875-13.608398438,21.858886719-27.354492188,32.785644531-41.255371094h-.000244141c11.199829102-14.246582031,22.395874023-28.656738281,33.588623047-43.2421875,81.662719727-7.692382812,163.105834961-17.697753906,244.227050781-30.006347656-34.568603516,27.879882812-69.225830078,54.311523438-103.939453125,79.542480469.919921875-7.581542969,1.839355469-15.171386719,2.759277344-22.770507812-35.077392578,3.904296875-70.192626953,7.434570312-105.337646484,10.590820312Z"/>
      <path d="M456.374511719,121.273925781c-24.174804688,27.061035156-48.329101562,54.335449219-72.47265625,81.991210938,21.870849609.883300781,43.749023438,1.674316406,65.629394531,2.374023438h-.001464844c12.1484375.389648438,24.297851562.749023438,36.448730469,1.08203125-8.524902344-4.442382812-17.049316406-8.9140625-25.573730469-13.421875,24.21875-27.4375,48.456054688-54.620117188,72.713867188-81.717285156-34.24609375-1.157714844-68.485595703-2.665527344-102.702636719-4.528320312,8.65234375,4.784667969,17.3046875,9.522949219,25.958496094,14.220214844Z"/>
    </g>
  </g>
</svg>