<?xml version="1.0" encoding="UTF-8"?>
<svg id="Layer_2" data-name="Layer 2" xmlns="http://www.w3.org/2000/svg" viewBox="0 0 246.594871523 274.185970545">
  <defs>
    <style>
      .cls-1 {
        fill: #e80707;
      }
    </style>
  </defs>
  <g id="Layer_1-2" data-name="Layer 1">
    <path class="cls-1" d="M154.820470189,43.273861652c24.828714405,4.410963295,49.323524145,11.126246212,72.863589762,20.091649787,3.931082737,1.49718118,14.198237189,4.899754605,16.657957262,7.717213063,2.69385135,3.085641473,2.250513461,8.503538392,2.188001426,12.389437341-.585281604,36.382516441-8.515232235,73.046552277-23.239287063,106.235336905-2.575709238,5.805782454-8.539682229,13.989290859-6.425023117,20.111571192,8.318887978,19.159545987,17.626998388,37.960248594,25.711706659,57.217063823.783543509,1.86630761,3.11473791,5.494798838,1.208416444,6.786199468l-103.522361295-106.727084848,4.609446011,2.30282112,33.41990071,19.705449702.905473821-.558763253-56.217309677-125.272602772-55.860763907,125.272600579.84753655.501224771c12.772578306-6.90471499,24.908586523-15.045624218,37.619805428-22.054183918.320442999-.176682024.908874856-.803916429,1.195242431-.260199054L2.532203252,274.185970545l-1.110757467-1.830876082,28.3301655-63.328453679c.678505902-2.477754917.653928355-3.762750628-.190088688-6.211351814-2.059573671-5.975086134-6.260686597-13.023340742-8.82325914-19.183705523C9.780801209,157.2900991,2.806310854,128.371839416.89902384,99.817608816c-.446365319-6.682590584-1.231569009-16.440021474-.745808501-22.920325167.58040413-7.742899968,5.039686391-7.914992609,11.306133684-10.520100686,18.809721728-7.819639378,39.798488458-14.3254219,59.659960268-18.926439241,2.478547665-.574168969,19.501032082-4.455469409,20.382127212-3.809816969-3.41615529,7.357324165-6.295949358,15.028219413-9.876087706,22.309557174-1.687148598,3.431347508-1.879722572,5.179745752-5.690341163,6.677403825-14.555654596,5.720696809-32.234827664,8.319870836-46.482519859,14.276634513-2.446800533,1.022973569-3.545905093,1.966033946-3.460744819,4.899481045.165770379,5.710158161.867021675,11.740360433,1.511975916,17.427210051,2.557142817,22.547470403,8.5377158,44.811860404,17.23742634,65.682627371L123.518755709,0l77.69298855,174.180901478c1.181113361.009803835,6.239982841-14.745183946,6.899804056-16.734624688,6.221456288-18.758442928,11.434228616-42.590508255,12.200325577-62.356012644.117538704-3.03252969.579541245-6.785970935-2.806525657-8.097360555-13.045937618-4.149721739-26.332585737-7.643295517-39.31494587-11.984743128-7.668197124-2.564331581-9.968186413-2.151671648-13.861201418-9.784900056-3.603913191-7.066372083-6.391766937-14.659757072-9.508730759-21.949398755Z"/>
  </g>
</svg>