<?xml version="1.0" encoding="UTF-8"?>
<svg id="Layer_2" data-name="Layer 2" xmlns="http://www.w3.org/2000/svg" viewBox="0 0 757.140014648 367.960021973">
  <defs>
    <style>
      .cls-1 {
        fill: #fff;
      }

      .cls-2 {
        fill: #c9002b;
      }

      .cls-3 {
        fill: #004b93;
      }
    </style>
  </defs>
  <g id="Layer_1-2" data-name="Layer 1">
    <g>
      <path class="cls-2" d="M449.780029297,298.380004883c-19.210021973,17.110046387-40.790039062,32.230041504-64.650024414,45.270019531-2.849975586,1.549987793-5.130004883,2.25-7.409973145,2.25-2.170043945,0-4.33001709-.630004883-6.780029297-1.979980469-23.690002441-13.130004883-45.140014648-28.33001709-64.279968262-45.540039062h-26.980041504c26.359985352,26.670043945,57.869995117,49.360046387,94.920043945,68.460021973,1.489990234.770019531,2.709960938,1.119995117,3.779968262,1.119995117,1.200012207,0,2.429992676-.429992676,4.08001709-1.400024414l.260009766-.159973145c18.00994873-10.650024414,36.630004883-21.66998291,54.00994873-33.929992676,14.08001709-9.940002441,27.33001709-21.280029297,39.820007324-34.090026855h-26.769958496ZM540.739990234,35.220031738c-.83996582-.840026855-2.599975586-1.239990234-5.549987793-1.239990234-.380004883,0-.789978027,0-1.200012207.019958496-3.929992676.120056152-7.83996582.190002441-11.66998291.190002441-47.039978027,0-86.929992676-9.049987793-121.940002441-27.649963379-8.529968262-4.530029297-15.210021973-6.540039062-21.679992676-6.540039062-6.179992676,0-12.559997559,1.850036621-20.109985352,5.850036621-35.840026855,18.959960938-78.130004883,28.200012207-129.300048828,28.200012207-2.719970703,0-5.41998291-.040039062-8.149963379-.08001709l-.539978027-.010009766c-2.390014648,0-3.870056152.299987793-4.49005127.940002441-.659973145.679992676-.989990234,2.309997559-.949951172,4.859985352.279968262,19.420043945.229980469,39.179992676.190002441,58.260009766-.010009766,7.25-.020019531,14.489990234-.020019531,21.739990234l-.08001709,2.770019531c0,6.08001709.030029297,12.140014648.049987793,18.219970703v.050048828h18.210021973c-.039978027-25.369995117-.099975586-51.170043945-.320007324-76.640014648-.070007324-8.840026855,3.280029297-12.350036621,11.960021973-12.549987793,44.459960938-1.020019531,87.010009766-11.5,126.469970703-31.150024414,2.650024414-1.309997559,4.970031738-1.91998291,7.25-1.91998291,2.290039062,0,4.590026855.619995117,7.070007324,1.890014648,37.799987793,19.429992676,79.979980469,29.989990234,125.359985352,31.379943848,10.820007324.340026855,12.869995117,5.560058594,12.690002441,13.870056152-.329956055,15.33996582-.269958496,30.959960938-.209960938,46.08996582.029968262,6.059997559.049987793,12.140014648.049987793,18.200012207l-.08001709,2.820007324s0,3.91998291-.020019531,8.010009766h17.960021973c.010009766-32.700012207.070007324-66.070007324.359985352-99.010009766.040039062-3.540039062-.380004883-5.630004883-1.309997559-6.570007324Z"/>
      <path d="M415.979980469,153.430053711l-1.739990234,2.859985352-1.109985352,1.809997559-7.200012207,11.799987793-10.229980469,16.770019531-3.630004883,5.959960938-14.119995117,23.140014648-3.130004883,5.130004883-3.270019531-5.340026855-14.039978027-22.939941406-.400024414-.650024414-3.239990234-5.299987793h-.010009766l-10.299987793-16.840026855-7.190002441-11.739990234-1.099975586-1.799987793-1.75-2.859985352h-38.890014648v99.00994873h30.260009766v-60.959960938l37.200012207,60.959960938h25.320007324l37.199951172-60.959960938v60.959960938h30.270019531v-99.00994873h-38.900024414Z"/>
      <path class="cls-3" d="M106.650024414,230.370056152H30.270019531v-54.870056152h76.380004883v11.030029297h30.549987793c-1.41003418-33.809997559-10.75-35.789978027-68.309997559-35.789978027C2.83001709,150.74005127,0,153.430053711,0,202.930053711c0,49.50994873,2.690002441,52.199951172,68.890014648,52.199951172,57.700012207,0,66.899963379-1.979980469,68.309997559-35.649963379h-30.549987793v10.890014648Z"/>
      <path class="cls-3" d="M279.070007324,178.180053711v-24.75h-128.150024414v99.00994873l128.150024414-.139953613v-24.610046387h-97.880004883v-13.719970703h95.33001709v-22.070007324h-95.33001709v-13.719970703h97.880004883Z"/>
      <path class="cls-3" d="M561.100036621,153.430053711h-43.850036621l-53.739990234,99.00994873h33.799987793l8.91003418-16.269958496h65.909973145l8.909973145,16.269958496h33.810058594l-53.75-99.00994873ZM518.100036621,214.110046387l21.079956055-38.760009766,21.070007324,38.760009766h-42.149963379Z"/>
      <path class="cls-3" d="M745.400024414,214.670043945c8.200012207-3.960021973,11.739990234-8.91003418,11.739990234-23.619995117,0-34.220031738-4.530029297-37.619995117-43.289978027-37.619995117h-90.520019531v99.00994873h30.270019531v-23.619995117h73.549987793v23.619995117h29.989990234v-8.209960938c0-23.470031738-3.539978027-25.309997559-11.739990234-29.559997559ZM727.010009766,204.070007324h-73.409973145v-25.889953613h73.409973145v25.889953613Z"/>
      <g>
        <path class="cls-2" d="M178.91003418,263.890014648v24.429992676h5.949951172v-24.429992676h-5.949951172Z"/>
        <path class="cls-2" d="M215.520019531,263.890014648v15.140014648l-9.950012207-15.140014648h-5.950012207v24.429992676h5.950012207v-15.070007324l9.950012207,15.070007324h5.950012207v-24.429992676h-5.950012207Z"/>
        <path class="cls-2" d="M234.900024414,263.890014648v4.770019531h6.469970703v19.659973145h5.950012207v-19.659973145h6.469970703v-4.770019531h-18.889953613Z"/>
        <path class="cls-2" d="M282.190002441,268.66003418v-4.770019531h-14.960021973v24.429992676h14.960021973v-4.769958496h-9.010009766v-5.350036621h7.960021973v-4.599975586h-7.960021973v-4.940002441h9.010009766Z"/>
        <path class="cls-2" d="M310.020019531,278.650024414c1.789978027-.539978027,3.140014648-1.440002441,4.059997559-2.719970703.909973145-1.270019531,1.369995117-2.720031738,1.369995117-4.350036621,0-1.429992676-.340026855-2.739990234-1.010009766-3.909973145-.66998291-1.170043945-1.690002441-2.090026855-3.039978027-2.770019531-1.360046387-.66998291-3-1.010009766-4.929992676-1.010009766h-9.980041504v24.429992676h5.950012207v-9.219970703h1.41998291l5.08001709,9.219970703h6.720031738l-5.640014648-9.66998291ZM308.58001709,274.090026855c-.549987793.530029297-1.359985352.799987793-2.450012207.799987793h-3.690002441v-6.049987793h3.690002441c1.090026855,0,1.900024414.260009766,2.450012207.799987793.539978027.530029297.820007324,1.260009766.820007324,2.190002441,0,.970031738-.280029297,1.729980469-.820007324,2.260009766Z"/>
        <path class="cls-2" d="M345.510009766,263.890014648v15.140014648l-9.950012207-15.140014648h-5.950012207v24.429992676h5.950012207v-15.070007324l9.950012207,15.070007324h5.950012207v-24.429992676h-5.950012207Z"/>
        <path class="cls-2" d="M380.340026855,263.890014648h-6.890014648l-8.83001709,24.429992676h6.220031738l1.469970703-4.309997559h9.109985352l1.460021973,4.309997559h6.299987793l-8.83996582-24.429992676ZM373.869995117,279.41003418l2.989990234-8.940002441,3.030029297,8.940002441h-6.020019531Z"/>
        <path class="cls-2" d="M400.979980469,263.890014648v4.770019531h6.470031738v19.659973145h5.950012207v-19.659973145h6.469970703v-4.770019531h-18.890014648Z"/>
        <path class="cls-2" d="M433.299987793,263.890014648v24.429992676h5.950012207v-24.429992676h-5.950012207Z"/>
        <path class="cls-2" d="M476.400024414,269.600036621c-1.100036621-1.900024414-2.610046387-3.390014648-4.530029297-4.450012207-1.909973145-1.070007324-4.019958496-1.599975586-6.309997559-1.599975586-2.299987793,0-4.399963379.529968262-6.320007324,1.599975586-1.909973145,1.059997559-3.429992676,2.549987793-4.559997559,4.450012207-1.119995117,1.899963379-1.679992676,4.049987793-1.679992676,6.440002441s.559997559,4.539978027,1.679992676,6.450012207c1.130004883,1.91998291,2.650024414,3.409973145,4.559997559,4.469970703,1.920043945,1.070007324,4.020019531,1.599975586,6.320007324,1.599975586,2.290039062,0,4.390014648-.529968262,6.299987793-1.599975586,1.900024414-1.059997559,3.41003418-2.549987793,4.520019531-4.469970703,1.109985352-1.91003418,1.66998291-4.059997559,1.66998291-6.450012207s-.549987793-4.540039062-1.649963379-6.440002441ZM470.239990234,281.190002441c-1.16998291,1.300048828-2.729980469,1.950012207-4.679992676,1.950012207-1.969970703,0-3.549987793-.649963379-4.719970703-1.929992676-1.170043945-1.289978027-1.75-3.010009766-1.75-5.16998291,0-2.179992676.579956055-3.91003418,1.75-5.190002441,1.16998291-1.270019531,2.75-1.91003418,4.719970703-1.91003418,1.950012207,0,3.510009766.640014648,4.679992676,1.930053711,1.170043945,1.289978027,1.760009766,3.00994873,1.760009766,5.16998291,0,2.130004883-.58996582,3.849975586-1.760009766,5.149963379Z"/>
        <path class="cls-2" d="M507.700012207,263.890014648v15.140014648l-9.960021973-15.140014648h-5.950012207v24.429992676h5.950012207v-15.070007324l9.960021973,15.070007324h5.940002441v-24.429992676h-5.940002441Z"/>
        <path class="cls-2" d="M542.530029297,263.890014648h-6.890014648l-8.840026855,24.429992676h6.230041504l1.459960938-4.309997559h9.110046387l1.469970703,4.309997559h6.289978027l-8.829956055-24.429992676ZM536.049987793,279.41003418l3-8.940002441,3.020019531,8.940002441h-6.020019531Z"/>
        <path class="cls-2" d="M570.429992676,283.730041504v-19.840026855h-5.950012207v24.429992676h13.75v-4.58996582h-7.799987793Z"/>
      </g>
      <g id="_511_Global_Globe_Internet" data-name="511, Global, Globe, Internet">
        <path class="cls-2" d="M374.75,72.980041504c-43,0-78.109985352,33.91998291-80.020019531,76.450012207h6.420043945c.760009766-15.309997559,6.279968262-30.030029297,15.789978027-42.050048828,7.190002441,4.16003418,15.25,7.220031738,23.440002441,9.369995117-2.440002441,10.180053711-3.83001709,21.430053711-4.049987793,33.130004883h-.290039062l6.870056152,11.230041504c-.090026855-1.600036621-.140014648-3.200012207-.170043945-4.820007324h28.809997559v28.869995117c-4.549987793.099975586-9.019958496.41998291-13.349975586.929992676l3.700012207,6.039978027c3.190002441-.299987793,6.409973145-.479980469,9.649963379-.559997559v16.320007324l3.270019531,5.340026855,3.130004883-5.130004883v-16.530029297c3.33996582.070007324,6.58001709.270019531,9.729980469.58001709l3.690002441-6.059997559c-4.320007324-.510009766-8.820007324-.83001709-13.41998291-.929992676v-28.869995117h28.809997559c-.030029297,1.630004883-.08001709,3.25-.16998291,4.849975586l6.869995117-11.260009766h-.290039062c-.219970703-11.699951172-1.609985352-22.949951172-4.039978027-33.130004883,8.099975586-2.139953613,16.210021973-5.179992676,23.429992676-9.369995117,9.510009766,12.020019531,15.030029297,26.74005127,15.790039062,42.050048828h6.41998291c-1.91003418-42.530029297-37.020019531-76.450012207-80.020019531-76.450012207ZM342.030029297,110.570007324c-7.200012207-1.889953613-14.309997559-4.510009766-20.809997559-8.130004883,9.809997559-10.369995117,22.319946289-17.579956055,35.969970703-20.929992676-7.299987793,7.66003418-12.16998291,18.929992676-15.159973145,29.059997559ZM371.549987793,149.880004883h-28.809997559c.210021973-11.219970703,1.540039062-21.969970703,3.869995117-31.659973145,7.800048828,1.609985352,16.119995117,2.58996582,24.940002441,2.779968262v28.880004883ZM371.549987793,114.590026855c-7.899963379-.16998291-15.769958496-1.030029297-23.269958496-2.559997559,1.279968262-4.280029297,2.769958496-8.299987793,4.459960938-11.989990234,5.210021973-11.359985352,11.920043945-18.530029297,18.809997559-20.25v34.799987793ZM377.950012207,79.790039062c6.890014648,1.719970703,13.599975586,8.890014648,18.809997559,20.25,1.690002441,3.690002441,3.179992676,7.709960938,4.469970703,11.989990234-7.66998291,1.559997559-15.539978027,2.390014648-23.279968262,2.559997559v-34.799987793ZM377.950012207,149.880004883v-28.880004883c8.619995117-.190002441,16.989990234-1.129943848,24.940002441-2.779968262,2.33001709,9.690002441,3.659973145,20.440002441,3.869995117,31.659973145h-28.809997559ZM407.470031738,110.570007324c-2.99005127-10.130004883-7.860046387-21.399963379-15.16003418-29.059997559,13.650024414,3.350036621,26.16003418,10.559997559,35.970031738,20.929992676-6.450012207,3.590026855-13.58001709,6.230041504-20.809997559,8.130004883ZM353.869995117,186.670043945h-.010009766l3.25,5.299987793-3.239990234-5.299987793Z"/>
      </g>
      <polygon class="cls-1" points="454.880004883 153.430053711 454.880004883 252.440002441 424.609985352 252.440002441 424.609985352 191.480041504 387.41003418 252.440002441 362.090026855 252.440002441 324.890014648 191.480041504 324.890014648 252.440002441 294.630004883 252.440002441 294.630004883 153.430053711 333.520019531 153.430053711 335.270019531 156.290039062 336.369995117 158.090026855 343.559997559 169.83001709 353.859985352 186.670043945 353.869995117 186.670043945 357.109985352 191.970031738 357.510009766 192.620056152 371.549987793 215.559997559 374.820007324 220.900024414 377.950012207 215.770019531 392.070007324 192.630004883 395.700012207 186.670043945 405.929992676 169.900024414 413.130004883 158.100036621 414.239990234 156.290039062 415.979980469 153.430053711 454.880004883 153.430053711"/>
      <path class="cls-1" d="M415.979980469,153.430053711l-1.739990234,2.859985352-1.109985352,1.809997559-7.200012207,11.799987793-10.229980469,16.770019531-3.630004883,5.959960938-14.119995117,23.140014648-3.130004883,5.130004883-3.270019531-5.340026855-14.039978027-22.939941406-.400024414-.650024414-3.239990234-5.299987793h-.010009766l-10.299987793-16.840026855-7.190002441-11.739990234-1.099975586-1.799987793-1.75-2.859985352h-38.890014648v99.00994873h30.260009766v-60.959960938l37.200012207,60.959960938h25.320007324l37.199951172-60.959960938v60.959960938h30.270019531v-99.00994873h-38.900024414Z"/>
      <path class="cls-3" d="M415.979980469,153.430053711l-1.739990234,2.859985352-1.109985352,1.809997559-7.200012207,11.799987793-10.229980469,16.770019531-3.630004883,5.959960938-14.119995117,23.140014648-3.130004883,5.130004883-3.270019531-5.340026855-14.039978027-22.939941406-.400024414-.650024414-3.239990234-5.299987793h-.010009766l-10.299987793-16.840026855-7.190002441-11.739990234-1.099975586-1.799987793-1.75-2.859985352h-38.890014648v99.00994873h30.260009766v-60.959960938l37.200012207,60.959960938h25.320007324l37.199951172-60.959960938v60.959960938h30.270019531v-99.00994873h-38.900024414Z"/>
    </g>
  </g>
</svg>