<?xml version="1.0" encoding="UTF-8"?>
<svg id="Layer_2" data-name="Layer 2" xmlns="http://www.w3.org/2000/svg" viewBox="0 0 890.286290181 296.651213144">
  <defs>
    <style>
      .cls-1 {
        fill: #e80707;
      }
    </style>
  </defs>
  <g id="Layer_1-2" data-name="Layer 1">
    <g>
      <path class="cls-1" d="M154.820470189,43.273861652c24.828714405,4.410963295,49.323524145,11.126246212,72.863589762,20.091649787,3.931082737,1.49718118,14.198237189,4.899754605,16.657957262,7.717213063,2.69385135,3.085641473,2.250513461,8.503538392,2.188001426,12.389437341-.585281604,36.382516441-8.515232235,73.046552277-23.239287063,106.235336905-2.575709238,5.805782454-8.539682229,13.989290859-6.425023117,20.111571192,8.318887978,19.159545987,17.626998388,37.960248594,25.711706659,57.217063823.783543509,1.86630761,3.11473791,5.494798838,1.208416444,6.786199468l-103.522361295-106.727084848,4.609446011,2.30282112,33.41990071,19.705449702.905473821-.558763253-56.217309677-125.272602772-55.860763907,125.272600579.84753655.501224771c12.772578306-6.90471499,24.908586523-15.045624218,37.619805428-22.054183918.320442999-.176682024.908874856-.803916429,1.195242431-.260199054L2.532203252,274.185970545l-1.110757467-1.830876082,28.3301655-63.328453679c.678505902-2.477754917.653928355-3.762750628-.190088688-6.211351814-2.059573671-5.975086134-6.260686597-13.023340742-8.82325914-19.183705523C9.780801209,157.2900991,2.806310854,128.371839416.89902384,99.817608816c-.446365319-6.682590584-1.231569009-16.440021474-.745808501-22.920325167.58040413-7.742899968,5.039686391-7.914992609,11.306133684-10.520100686,18.809721728-7.819639378,39.798488458-14.3254219,59.659960268-18.926439241,2.478547665-.574168969,19.501032082-4.455469409,20.382127212-3.809816969-3.41615529,7.357324165-6.295949358,15.028219413-9.876087706,22.309557174-1.687148598,3.431347508-1.879722572,5.179745752-5.690341163,6.677403825-14.555654596,5.720696809-32.234827664,8.319870836-46.482519859,14.276634513-2.446800533,1.022973569-3.545905093,1.966033946-3.460744819,4.899481045.165770379,5.710158161.867021675,11.740360433,1.511975916,17.427210051,2.557142817,22.547470403,8.5377158,44.811860404,17.23742634,65.682627371L123.518755709,0l77.69298855,174.180901478c1.181113361.009803835,6.239982841-14.745183946,6.899804056-16.734624688,6.221456288-18.758442928,11.434228616-42.590508255,12.200325577-62.356012644.117538704-3.03252969.579541245-6.785970935-2.806525657-8.097360555-13.045937618-4.149721739-26.332585737-7.643295517-39.31494587-11.984743128-7.668197124-2.564331581-9.968186413-2.151671648-13.861201418-9.784900056-3.603913191-7.066372083-6.391766937-14.659757072-9.508730759-21.949398755Z"/>
      <path class="cls-1" d="M175.376114525,220.742559859l17.652476683,18.714827716c-.003343003.753467461-5.743282409,7.420642667-6.730722508,8.557307361-14.900812674,17.152663416-37.58867299,36.122044183-57.799276057,46.605207499-2.802190103,1.4534854-4.180211946,2.786526191-7.481626283,1.531854754-4.098406738-1.557560895-11.364387319-6.527262353-15.293228474-9.08049442-19.89338272-12.928092712-37.601230332-29.149669078-52.399728723-47.660644966l17.931237572-18.283881509c12.27649617,14.861584975,26.032797321,28.520231722,41.754709073,39.753028819,3.820890573,2.729902649,8.387586016,7.319606447,13.25087206,4.957190297,6.260211134-3.040994043,17.272857448-12.437528464,22.739060389-17.276932282,9.59891553-8.498226092,18.100455894-18.062814842,26.376226268-27.817463269Z"/>
      <g>
        <path class="cls-1" d="M416.784337056,148.699415172c-1.080078125,25.711425781-8.102539062,27.224121094-52.1796875,27.224121094-50.55859375,0-52.611328125-2.052734375-52.611328125-39.863769531,0-37.811523438,2.16015625-39.864257812,52.611328125-39.864257812,43.969726562,0,51.099609375,1.512695312,52.1796875,27.33203125h-23.334960938v-8.426269531h-58.336914062v41.916503906h58.336914062v-8.318359375h23.334960938Z"/>
        <path class="cls-1" d="M450.381016744,154.965040172h74.758789062v18.797851562l-97.876953125.107910156v-75.622558594h97.876953125v18.905761719h-74.758789062v10.479003906h72.813476562v16.853027344h-72.813476562v10.479003906Z"/>
        <path class="cls-1" d="M659.423008931,98.248243297v75.622558594h-23.119140625v-46.562011719l-28.412109375,46.562011719h-19.337890625l-28.413085938-46.562011719v46.562011719h-23.118164062v-75.622558594h29.708007812l31.545898438,51.53125,31.4375-51.53125h29.708984375Z"/>
        <path class="cls-1" d="M748.980626119,161.446973766h-50.342773438l-6.806640625,12.423828125h-25.819335938l41.051757812-75.622558594h33.490234375l41.052734375,75.622558594h-25.8203125l-6.805664062-12.423828125ZM739.905430806,144.593946422l-16.096679688-29.600585938-16.096679688,29.600585938h32.193359375Z"/>
        <path class="cls-1" d="M890.286290181,167.60468861v6.266113281h-22.903320312v-18.041503906h-56.176757812v18.041503906h-23.119140625v-75.622558594h69.140625c29.6015625,0,33.05859375,2.592773438,33.05859375,28.736328125,0,11.235351562-2.701171875,15.016601562-8.966796875,18.041503906,6.265625,3.241210938,8.966796875,4.645507812,8.966796875,22.578613281ZM867.275547994,117.154005016h-56.069335938v19.770019531h56.069335938v-19.770019531Z"/>
      </g>
      <g>
        <path d="M311.060860175,197.412706565v35.423894526h8.627527873v-35.423894526h-8.627527873Z"/>
        <path d="M364.145946074,197.412706565v21.953272322l-14.427682711-21.953272322h-8.627616375v35.423894526h8.627616375v-21.851760541l14.427682711,21.851760541h8.627616375v-35.423894526h-8.627616375Z"/>
        <path d="M392.247274551,197.412706565v6.916607426h9.381564817v28.5072871h8.627616375v-28.5072871h9.381564817v-6.916607426h-27.39074601Z"/>
        <path d="M460.818526947,204.329313991v-6.916607426h-21.692279957v35.423894526h21.692279957v-6.916518924h-13.064663582v-7.757641825h11.542163869v-6.670040885h-11.542163869v-7.163085465h13.064663582Z"/>
        <path d="M501.172513259,218.814965504c2.595497825-.782977095,4.553073314-2.088027421,5.887063791-3.944002627,1.319476151-1.841549382,1.98651564-3.944091129,1.98651564-6.307625241,0-2.073513095-.493044579-3.97303128-1.46453091-5.669525902-.971486331-1.696583125-2.450531567-3.030573601-4.408018555-4.016574258-1.972089816-.971486331-4.350049752-1.46453091-7.148571139-1.46453091h-14.471225689v35.423894526h8.627616375v-13.369110423h2.058998769l7.366109027,13.369110423h9.744157465l-8.178114774-14.021635586ZM499.084485838,212.202893422c-.797491421.76855127-1.972001314,1.159995567-3.552558331,1.159995567h-5.350564735v-8.772582633h5.350564735c1.580557017,0,2.75506691.377018472,3.552558331,1.159995567.782977095.76855127,1.189024219,1.827035056,1.189024219,3.175539859,0,1.406562107-.406047124,2.50850037-1.189024219,3.27705164Z"/>
        <path d="M552.633587664,197.412706565v21.953272322l-14.427682711-21.953272322h-8.627616375v35.423894526h8.627616375v-21.851760541l14.427682711,21.851760541h8.627616375v-35.423894526h-8.627616375Z"/>
        <path d="M603.137690064,197.412706565h-9.990635504l-12.803671217,35.423894526h9.019149173l2.131481897-6.249567937h13.209629839l2.117056073,6.249567937h9.135086779l-12.818097041-35.423894526ZM593.756036745,219.916992269l4.335535426-12.963151801,4.39359273,12.963151801h-8.729128156Z"/>
        <path d="M633.065965096,197.412706565v6.916607426h9.381653319v28.5072871h8.627616375v-28.5072871h9.381564817v-6.916607426h-27.390834512Z"/>
        <path d="M679.93051171,197.412706565v35.423894526h8.627616375v-35.423894526h-8.627616375Z"/>
        <path d="M742.426279581,205.69233312c-1.595071344-2.75506691-3.784610546-4.91557746-6.568617606-6.452591499-2.769492735-1.551528365-5.829006486-2.319991134-9.149601105-2.319991134-3.335020443,0-6.380019868.768462768-9.164115431,2.319991134-2.769492735,1.537014039-4.973546263,3.697524589-6.612072083,6.452591499-1.624011494,2.754978408-2.436017241,5.872549465-2.436017241,9.338110341s.812005747,6.583043431,2.436017241,9.352624667c1.63852582,2.784007061,3.842579348,4.94451761,6.612072083,6.481531649,2.784095563,1.551528365,5.829094988,2.319991134,9.164115431,2.319991134,3.320594619,0,6.365594044-.768462768,9.135086779-2.319991134,2.75506691-1.537014039,4.944606112-3.697524589,6.55410328-6.481531649,1.609497168-2.769581236,2.421502915-5.887063791,2.421502915-9.352624667s-.797491421-6.583131933-2.392474262-9.338110341ZM733.494127862,222.497975767c-1.696494623,1.885092361-3.958516954,2.827550039-6.786066993,2.827550039-2.856490189,0-5.147541173-.942457678-6.844035795-2.798521387-1.696583125-1.870489533-2.537529022-4.364564078-2.537529022-7.496560959,0-3.161025533.840945897-5.669614404,2.537529022-7.525589611,1.696494623-1.841549382,3.987545606-2.769581236,6.844035795-2.769581236,2.827550039,0,5.08957237.928031854,6.786066993,2.798609889,1.696583125,1.870489533,2.552043348,4.364475576,2.552043348,7.496560959,0,3.088542404-.855460223,5.582528447-2.552043348,7.467532306Z"/>
        <path d="M787.811780958,197.412706565v21.953272322l-14.442197037-21.953272322h-8.627616375v35.423894526h8.627616375v-21.851760541l14.442197037,21.851760541h8.613102049v-35.423894526h-8.613102049Z"/>
        <path d="M838.315883359,197.412706565h-9.990635504l-12.818185543,35.423894526h9.0336635l2.116967571-6.249567937h13.209718341l2.131481897,6.249567937h9.120572452l-12.803582715-35.423894526ZM828.919715713,219.916992269l4.350049752-12.963151801,4.379078404,12.963151801h-8.729128156Z"/>
        <path d="M878.77129295,226.181074532v-28.768367967h-8.627616375v35.423894526h19.93772803v-6.655526559h-11.310111655Z"/>
      </g>
    </g>
  </g>
</svg>