<?xml version="1.0" encoding="UTF-8"?>
<svg id="Layer_2" data-name="Layer 2" xmlns="http://www.w3.org/2000/svg" viewBox="0 0 95.72 15.52">
  <defs>
    <style>
      .cls-1 {
        fill: #e83700;
      }

      .cls-2 {
        fill: #cdc6b1;
      }
    </style>
  </defs>
  <g id="Layer_1-2" data-name="Layer 1">
    <g>
      <g>
        <path class="cls-1" d="M12.7,3.63c0-.53-.34-.97-.86-1.09-.83-.21-1.48-.85-1.69-1.69-.13-.51-.56-.86-1.09-.86s-.97.34-1.09.86c-.21.83-.85,1.48-1.69,1.69-.51.13-.86.56-.86,1.09s.34.97.86,1.09c.83.21,1.48.85,1.69,1.69.13.51.56.86,1.09.86s.97-.34,1.09-.86c.21-.83.85-1.48,1.69-1.69.51-.13.86-.56.86-1.09Z"/>
        <path class="cls-1" d="M6.41,10.8c-.83-.21-1.48-.85-1.69-1.69-.13-.51-.56-.86-1.09-.86h0c-.53,0-.97.34-1.09.86-.21.83-.85,1.48-1.69,1.69-.51.13-.86.56-.86,1.09s.34.97.86,1.09c.83.21,1.48.85,1.69,1.69.13.51.56.86,1.09.86h0c.53,0,.97-.34,1.09-.86.21-.83.85-1.48,1.69-1.69.51-.13.86-.56.86-1.09s-.34-.97-.86-1.09Z"/>
        <path class="cls-1" d="M17.28,10.8c-.83-.21-1.48-.85-1.69-1.69-.13-.51-.56-.86-1.09-.86s-.97.34-1.09.86c-.21.83-.85,1.48-1.69,1.69-.51.13-.86.56-.86,1.09s.34.97.86,1.09c.83.21,1.48.85,1.69,1.69.13.51.56.86,1.09.86s.97-.34,1.09-.86c.21-.83.85-1.48,1.69-1.69.51-.13.86-.56.86-1.09s-.34-.97-.86-1.09Z"/>
      </g>
      <path class="cls-2" d="M38.55,13.03h-11.04c-.83,0-1.5-.67-1.5-1.5s.67-1.5,1.5-1.5h11.04c.23,0,.41-.18.41-.41v-4.52c0-.18-.1-.28-.16-.33-.06-.05-.19-.11-.36-.07l-6.52,1.76c-.8.22-1.62-.26-1.84-1.06-.22-.8.26-1.62,1.06-1.84l6.52-1.76c1.03-.28,2.11-.06,2.96.59.85.65,1.34,1.64,1.34,2.71v4.52c0,1.88-1.53,3.41-3.41,3.41Z"/>
      <path class="cls-2" d="M55.76,13.03h-11.04c-.83,0-1.5-.67-1.5-1.5s.67-1.5,1.5-1.5h11.04c.23,0,.41-.18.41-.41v-4.52c0-.18-.1-.28-.16-.33-.06-.05-.19-.11-.36-.07l-6.52,1.76c-.8.22-1.62-.26-1.84-1.06-.22-.8.26-1.62,1.06-1.84l6.52-1.76c1.03-.28,2.11-.06,2.96.59.85.65,1.34,1.64,1.34,2.71v4.52c0,1.88-1.53,3.41-3.41,3.41Z"/>
      <path class="cls-2" d="M62.02,13.04c-.39,0-.78-.15-1.08-.46-.58-.6-.56-1.54.04-2.12l7.93-7.67c1.16-1.12,2.8-1.43,4.28-.8,1.48.63,2.4,2.02,2.4,3.63v3.81c0,1.98-1.61,3.6-3.6,3.6h-4.39c-.83,0-1.5-.67-1.5-1.5s.67-1.5,1.5-1.5h4.39c.33,0,.6-.27.6-.6v-3.81c0-.56-.4-.79-.57-.87-.17-.07-.62-.2-1.02.19l-7.93,7.67c-.29.28-.67.42-1.04.42Z"/>
      <path class="cls-2" d="M94.22,13.51c-.83,0-1.5-.67-1.5-1.5v-7.07c0-.41-.33-.74-.74-.74s-.74.33-.74.74v4.42c0,1.84-1.27,3.31-3.08,3.59-1.81.28-3.46-.76-4.01-2.51l-1.76-5.66c-.16-.53-.58-.55-.82-.51-.24.04-.63.18-.63.73v6.81c0,.83-.67,1.5-1.5,1.5s-1.5-.67-1.5-1.5v-6.81c0-1.89,1.31-3.42,3.18-3.7,1.87-.28,3.57.78,4.13,2.59l1.76,5.66c.13.43.45.47.69.43.24-.04.53-.17.53-.62v-4.42c0-2.06,1.68-3.74,3.74-3.74s3.74,1.68,3.74,3.74v7.07c0,.83-.67,1.5-1.5,1.5Z"/>
    </g>
  </g>
</svg>