<?xml version="1.0" encoding="UTF-8"?>
<svg id="Layer_2" data-name="Layer 2" xmlns="http://www.w3.org/2000/svg" viewBox="0 0 82.63 105.75">
  <defs>
    <style>
      .cls-1 {
        fill: none;
        stroke: #e83700;
        stroke-linecap: round;
        stroke-linejoin: round;
        stroke-width: 1.5px;
      }
    </style>
  </defs>
  <g id="Layer_1-2" data-name="Layer 1">
    <g>
      <path class="cls-1" d="M21.46.75h39.72c7.04,0,12.76,5.72,12.76,12.76v55.81c0,2.19-1.78,3.97-3.97,3.97H12.66c-2.19,0-3.97-1.78-3.97-3.97V13.51C8.69,6.47,14.41.75,21.46.75Z"/>
      <path class="cls-1" d="M71.06,73.29v7.29c0,1.36-1.11,2.47-2.47,2.47H14.24c-1.36,0-2.47-1.11-2.47-2.47v-7.29"/>
      <rect class="cls-1" x="16.93" y="8.78" width="48.82" height="38.18" rx="8.28" ry="8.28"/>
      <path class="cls-1" d="M33.24,39.89h0c0-1.72,1.39-3.11,3.11-3.11h7.28c1.72,0,3.11,1.39,3.11,3.11h0"/>
      <path class="cls-1" d="M38.09,30.7h1.72c.84,0,1.53-.68,1.53-1.53v-8.66"/>
      <line class="cls-1" x1="30.54" y1="23.76" x2="30.54" y2="26.57"/>
      <line class="cls-1" x1="49.42" y1="23.76" x2="49.42" y2="26.57"/>
      <line class="cls-1" x1="49.42" y1="60.61" x2="63.45" y2="60.61"/>
      <line class="cls-1" x1="16.58" y1="63.1" x2="20.28" y2="63.1"/>
      <g>
        <polygon class="cls-1" points="81.88 105 .75 105 2.75 98.31 79.88 98.31 81.88 105"/>
        <g>
          <path class="cls-1" d="M8.4,97.82v-1.03c0-1,.81-1.81,1.81-1.81h2.96c1,0,1.81.81,1.81,1.81v1.03"/>
          <path class="cls-1" d="M8.4,97.82v-1.03c0-1,.81-1.81,1.81-1.81h2.96c1,0,1.81.81,1.81,1.81v1.03"/>
          <path class="cls-1" d="M14.98,97.82v-1.03c0-1,.81-1.81,1.81-1.81h2.96c1,0,1.81.81,1.81,1.81v1.03"/>
          <path class="cls-1" d="M14.98,97.82v-1.03c0-1,.81-1.81,1.81-1.81h2.96c1,0,1.81.81,1.81,1.81v1.03"/>
          <path class="cls-1" d="M21.57,97.82v-1.03c0-1,.81-1.81,1.81-1.81h2.96c1,0,1.81.81,1.81,1.81v1.03"/>
          <path class="cls-1" d="M21.57,97.82v-1.03c0-1,.81-1.81,1.81-1.81h2.96c1,0,1.81.81,1.81,1.81v1.03"/>
          <path class="cls-1" d="M28.15,97.82v-1.03c0-1,.81-1.81,1.81-1.81h2.96c1,0,1.81.81,1.81,1.81v1.03"/>
          <path class="cls-1" d="M28.15,97.82v-1.03c0-1,.81-1.81,1.81-1.81h2.96c1,0,1.81.81,1.81,1.81v1.03"/>
          <path class="cls-1" d="M34.73,97.82v-1.03c0-1,.81-1.81,1.81-1.81h2.96c1,0,1.81.81,1.81,1.81v1.03"/>
          <path class="cls-1" d="M34.73,97.82v-1.03c0-1,.81-1.81,1.81-1.81h2.96c1,0,1.81.81,1.81,1.81v1.03"/>
          <path class="cls-1" d="M41.32,97.82v-1.03c0-1,.81-1.81,1.81-1.81h2.96c1,0,1.81.81,1.81,1.81v1.03"/>
          <path class="cls-1" d="M41.32,97.82v-1.03c0-1,.81-1.81,1.81-1.81h2.96c1,0,1.81.81,1.81,1.81v1.03"/>
          <path class="cls-1" d="M47.9,97.82v-1.03c0-1,.81-1.81,1.81-1.81h2.96c1,0,1.81.81,1.81,1.81v1.03"/>
          <path class="cls-1" d="M47.9,97.82v-1.03c0-1,.81-1.81,1.81-1.81h2.96c1,0,1.81.81,1.81,1.81v1.03"/>
          <path class="cls-1" d="M54.48,97.82v-1.03c0-1,.81-1.81,1.81-1.81h2.96c1,0,1.81.81,1.81,1.81v1.03"/>
          <path class="cls-1" d="M54.48,97.82v-1.03c0-1,.81-1.81,1.81-1.81h2.96c1,0,1.81.81,1.81,1.81v1.03"/>
          <path class="cls-1" d="M61.07,97.82v-1.03c0-1,.81-1.81,1.81-1.81h2.96c1,0,1.81.81,1.81,1.81v1.03"/>
          <path class="cls-1" d="M61.07,97.82v-1.03c0-1,.81-1.81,1.81-1.81h2.96c1,0,1.81.81,1.81,1.81v1.03"/>
          <path class="cls-1" d="M67.65,97.82v-1.03c0-1,.81-1.81,1.81-1.81h2.96c1,0,1.81.81,1.81,1.81v1.03"/>
          <path class="cls-1" d="M67.65,97.82v-1.03c0-1,.81-1.81,1.81-1.81h2.96c1,0,1.81.81,1.81,1.81v1.03"/>
        </g>
        <g>
          <path class="cls-1" d="M2.75,98.31l3.43-3.98c1.17-1.35,2.86-2.13,4.65-2.13h33.33"/>
          <path class="cls-1" d="M79.89,98.31l-3.43-3.98c-1.17-1.35-2.86-2.13-4.65-2.13h-33.33"/>
        </g>
      </g>
      <path class="cls-1" d="M65.75,92.2h0c0-2.71-2.2-4.91-4.91-4.91H20.46c-2.71,0-4.91-2.2-4.91-4.91v-2.66"/>
      <line class="cls-1" x1="26.49" y1="16.45" x2="37.63" y2="20"/>
      <line class="cls-1" x1="52.55" y1="16.77" x2="41.42" y2="20.33"/>
    </g>
  </g>
</svg>