<svg width="11" height="11" viewBox="0 0 11 11" fill="none" xmlns="http://www.w3.org/2000/svg">
<path d="M10.34 5.42C10.34 4.71 9.87 4.11 9.18 3.94C8.05 3.66 7.18 2.79 6.9 1.66C6.73 0.97 6.14 0.5 5.42 0.5C4.7 0.5 4.11 0.97 3.94 1.66C3.66 2.79 2.79 3.66 1.66 3.94C0.97 4.11 0.5 4.7 0.5 5.42C0.5 6.14 0.97 6.73 1.66 6.9C2.79 7.18 3.66 8.05 3.94 9.18C4.11 9.87 4.7 10.34 5.42 10.34C6.14 10.34 6.73 9.87 6.9 9.18C7.18 8.05 8.05 7.18 9.18 6.9C9.87 6.73 10.34 6.14 10.34 5.42Z" stroke="#E80078" stroke-miterlimit="10"/>
</svg>
