<?xml version="1.0" encoding="UTF-8"?>
<svg id="Layer_2" data-name="Layer 2" xmlns="http://www.w3.org/2000/svg" viewBox="0 0 68.440199695 68.440199695">
  <defs>
    <style>
      .cls-1 {
        fill: #8c3111;
      }
    </style>
  </defs>
  <g id="Layer_1-2" data-name="Layer 1">
    <path class="cls-1" d="M39.314125582,4.117807467l1.287056312,6.004290828c1.903126415,8.878340735,8.838578772,15.813793092,17.716919507,17.716919507l6.004290828,1.287056312c5.490409956,1.176902817,5.490409956,9.011148653,0,10.188051469l-6.004290828,1.287056312c-8.878340735,1.903126415-15.813793092,8.838578772-17.716919507,17.716919507l-1.287056312,6.004290828c-1.176902817,5.490409956-9.011148653,5.490409956-10.188051469,0l-1.287056312-6.004290828c-1.903126415-8.878340735-8.838578772-15.813793092-17.716919507-17.716919507l-6.004290828-1.287056312c-5.490409956-1.176902817-5.490409956-9.011148653,0-10.188051469l6.004290828-1.287056312c8.878340735-1.903126415,15.813793092-8.838578772,17.716919507-17.716919507l1.287056312-6.004290828c1.176902817-5.490409956,9.011148653-5.490409956,10.188051469,0Z"/>
  </g>
</svg>