<?xml version="1.0" encoding="UTF-8"?>
<svg id="Layer_2" data-name="Layer 2" xmlns="http://www.w3.org/2000/svg" viewBox="0 0 670.942197054 162.197753906">
  <defs>
    <style>
      .cls-1 {
        fill: #1a1917;
      }
    </style>
  </defs>
  <g id="Layer_4" data-name="Layer 4">
    <g>
      <path class="cls-1" d="M618.979772673,41.399414062c-20.715351214,0-37.241729825,5.840464918-49.779817808,13.474936182-3.269773752,1.990972928-7.333587816-.84523127-6.535613059-4.589377351l7.928174319-37.199475949c1.43595541-6.737590092-3.701616133-13.085496944-10.590526655-13.085496944h-24.45141605c-5.112883228,0-9.529029887,3.576314661-10.591798717,8.577524246l-10.539610779,49.597617964c-.742834026,3.495650742-5.120861525,4.567102882-7.489542096,1.891149062-12.588978189-14.222062987-37.379329558-18.266974866-66.949849155-18.266974866-36.563947369,0-66.387393568,6.740702595-83.624917015,29.592257317-1.903493069,2.523435351-5.850867822,1.973720665-6.975862933-.980157774-7.286989478-19.133310807-28.891363685-26.337082455-56.927070187-28.12776777-3.506775661-.223983358-6.545751509,2.411426336-6.788472587,5.916954906l-2.32479056,33.576069278c-.275447025,3.978177023,2.788075256,7.398581062,6.772451392,7.561400889l95.988128483,3.922513824c4.434935701.181231751,8.791023013-1.590245468,11.634601605-4.998406321,8.19480282-9.821851326,22.371923666-12.46335263,36.446127114-12.46335263,14.372519138,0,27.706713898,2.753585956,31.444484655,13.098413321,1.657655079,4.587802927,5.746517047,7.84786686,10.620538264,8.047048259l25.053374024,1.023829374c2.41786156.098808156,4.165459597,2.349250124,3.662460031,4.716275476l-.000001593.000007498c-.37137917,1.747643478-1.880864709,3.020764192-3.66610951,3.092046818l-30.525878311,1.218860729c-3.727586151.148837925-7.22139233,1.975545923-9.355726288,5.035230513-7.853082941,11.257824374-23.286393309,15.967506761-38.233141271,15.967506761-12.57897872,0-24.097596593-3.336202194-29.287891158-11.103145596-2.792387568-4.178629155-7.624533136-6.525582544-12.64630236-6.325073679l-96.614146263,3.857603173c-5.666301184.226243695-10.764389877,3.50714977-13.317644318,8.570651234l-17.056818092,33.826328462c-1.234610966,2.448425951.592053435,5.345731442,3.33283481,5.261047746,33.357420612-1.030665806,62.483542047-9.64914941,79.333581501-30.817764575,1.930485042-2.425258116,5.830492762-1.85828615,6.900701758,1.050889357,7.975235438,21.679279176,34.366596392,29.879170909,70.555879435,29.879170909,30.27968237,0,57.615556178-5.793141495,76.301527103-20.887380978,2.444469677-1.974604951,6.015331013.261520383,5.362134764,3.335252865l-.48299743,2.272831317c-1.431419864,6.735803733,3.705519641,13.079101483,10.591738834,13.079101483h24.454403371c5.115161165,0,9.532612457-3.579454672,10.593004879-8.583497203l9.581555667-45.215819203c5-23.999511719,28.19921875-30.799316406,44.598632812-30.799316406,12,0,31,5.399902344,26.599609375,26.399414062l-9.611816406,45.114624023c-1.435404236,6.737303305,3.702034682,13.084594727,10.590549845,13.084594727h24.449149456c5.114377408,0,9.531386462-3.578358915,10.592624918-8.581420898l10.779296875-50.817504883c8.19921875-38.799804688-6.600585938-59.19921875-49.799804688-59.19921875Z"/>
      <path class="cls-1" d="M191.665108278,72.646512499c-2.346584521,3.275802702-6.185318052,5.152313374-10.214876621,5.152313474l-77.838649145.000001946c-4.798458986.00000012-8.942629643,3.357314088-9.938328394,8.051330772l-4.192260742,19.763549805c-.566466013,2.670487345,1.470315592,5.184631275,4.200221525,5.184631198l24.448076422-.000000692c2.290897553-.000000065,2.996733673,3.120714366.919027345,4.085778101-7.31051267,3.395624571-18.007082952,6.113929773-32.466983495,6.113929773-37,0-39.799804688-13.999511719-36.19921875-30.799316406,3.399414062-16.399902344,9.399414062-31.799804688,49.598632812-31.799804688,30.74003417,0,38.352316682,3.784739823,39.757215425,8.152707132.992352945,3.085322159,4.035760595,5.047572432,7.27674458,5.047565066l32.665258745-.000074245c5.759154191-.00001309,10.603716923-4.460532267,10.922117869-10.210878155,1.531220214-27.653956292-19.025925221-43.988343235-82.021727244-43.988343235C43.781530486,17.399902344,12.582311736,41.399414062,2.181921111,90.198730469c-9.399414062,44.19921875,10.80078125,71.999023438,75.599609375,71.999023438,18.260498047,0,35.818603516-4.77142334,50.207519531-11.96270752,2.188897695-1.093984564,4.58097748-.139336515,5.627651912,1.695005366,2.73213893,4.788190778,7.480971847,8.067507639,12.993807239,8.067507489l17.945457873-.000000489c3.395273986-.000000092,6.327259241-2.376324462,7.030373015-5.697998206l4.200918847-19.846122126c.521950938-2.465818181,3.90800935-2.800757624,4.894195636-.481247182,7.872477938,18.516070478,29.909975866,26.643526181,60.189917069,28.011139105,3.087755556.139460456,5.713899055-2.237701981,5.927407128-5.321222354l2.288659953-33.05322127c.346191406-5.001037598-3.159912109-9.448242188-8.103515625-10.278686523l-74.780398447-8.532728042-.021405337-4.225507224,83.099167064-10.33581991c4.894775391-.75,9.12487793-3.820678711,11.354492188-8.242370605l16.652484218-33.024249027c1.663401166-3.298761531-.815196847-7.162047625-4.508034665-7.053973923-34.106433923.998150678-65.282931108,8.629423219-81.115119807,30.730961035Z"/>
    </g>
  </g>
</svg>