<?xml version="1.0" encoding="UTF-8"?>
<svg xmlns="http://www.w3.org/2000/svg" xmlns:xlink="http://www.w3.org/1999/xlink" viewBox="0 0 287.316292891 295.297301027">
  <defs>
    <style>
      .cls-1 {
        fill: none;
      }

      .cls-2 {
        clip-path: url(#clippath-1);
      }

      .cls-3 {
        clip-path: url(#clippath-2);
      }

      .cls-4 {
        fill: #fff;
      }

      .cls-5 {
        opacity: .5;
      }

      .cls-6 {
        opacity: .1;
      }

      .cls-7 {
        clip-path: url(#clippath);
      }
    </style>
    <clipPath id="clippath">
      <rect class="cls-1" x="-1534.880896257" y="416.201095338" width="863.414759198" height="1136.941911502" rx="70.929393093" ry="70.929393093"/>
    </clipPath>
    <clipPath id="clippath-1">
      <rect class="cls-1" width="297.253042903" height="297.253042903"/>
    </clipPath>
    <clipPath id="clippath-2">
      <rect class="cls-1" width="297.253042903" height="297.253042903"/>
    </clipPath>
  </defs>
  <g id="Layer_1" data-name="Layer 1">
    <g class="cls-7">
      <g class="cls-6">
        <rect class="cls-4" x="-918.139511854" y="-338.226970994" width="556.592365197" height="1592.970108255" transform="translate(-511.443170359 -318.216871997) rotate(-45)"/>
      </g>
    </g>
  </g>
  <g id="Layer_4" data-name="Layer 4">
    <g class="cls-5">
      <g class="cls-2">
        <g class="cls-3">
          <path d="M244.65799591,76.012954314c-6.22448398-20.510464496-14.951824429-31.806089198-24.570933079-31.806089198-6.497965306,0-12.639218797,5.16627748-17.861943331,14.984526981-5.222724534-9.818249501-11.366948922-14.984526981-17.867885126-14.984526981-6.500913525,0-12.642167016,5.16627748-17.864902889,14.984526981-5.222735873-9.818249501-11.363989364-14.984526981-17.867873787-14.984526981-6.497965306,0-12.642178355,5.16627748-17.864914228,14.984526981-5.222735873-9.818249501-11.363978024-14.984526981-17.861943331-14.984526981-6.503884423,0-12.645137914,5.16627748-17.867873787,14.984526981-5.222735873-9.818249501-11.363978024-14.984526981-17.864902889-14.984526981-9.622079547,0-18.343489541,11.295624702-24.567973521,31.806089198-5.897492479,19.443322625-9.14944603,45.232992726-9.14944603,72.612977493,0,27.379973427,3.251953551,53.169643529,9.14944603,72.612966154,6.22448398,20.510464496,14.945893974,31.806077858,24.567973521,31.806077858,6.500924865,0,12.642167016-5.166254801,17.864902889-14.981556084,5.222735873,9.81827218,11.363989364,14.981556084,17.867873787,14.981556084,6.497965306,0,12.639207458-5.163283904,17.861943331-14.981556084,5.222735873,9.815301282,11.366948922,14.981556084,17.864914228,14.981556084,6.503884423,0,12.645137914-5.163283904,17.867873787-14.981556084,5.222735873,9.815301282,11.363989364,14.981556084,17.864902889,14.981556084,6.500936204,0,12.645160592-5.166254801,17.867885126-14.981556084,5.222724534,9.815301282,11.363978024,14.981556084,17.861943331,14.981556084,9.61910865,0,18.346449099-11.295613362,24.570933079-31.806077858,5.897503818-19.452235318,9.146463793-45.238934522,9.146463793-72.612966154,0-27.374042972-3.248959975-53.160742176-9.146463793-72.612977493M220.087062831,247.192058144c-4.96711395,0-10.177954893-5.644830114-14.705126538-15.908975055,1.254421811-3.055760918,2.443438518-6.429589305,3.543260263-10.044185128,5.897503818-19.443322625,9.149457369-45.232992726,9.149457369-72.612966154,0-27.379984767-3.251953551-53.169654868-9.149457369-72.612977493-1.099821744-3.614607162-2.288838452-6.98841287-3.543260263-10.041202891,4.527171645-10.26415628,9.738012588-15.908997733,14.705126538-15.908997733,6.732779607,0,13.646874681,10.07687634,18.979590461,27.647512959,5.73104284,18.887447279,8.884911414,44.070736776,8.884911414,70.915665158,0,26.844917043-3.153868574,52.031166098-8.884911414,70.918624716-5.33271578,17.57062528-12.246810853,27.64750162-18.979590461,27.64750162M112.897600139,247.192058144c-4.970062169,0-10.180914452-5.644830114-14.70510386-15.908975055,1.251439574-3.055760918,2.443427179-6.429589305,3.537318468-10.044185128,5.900474716-19.452235318,9.14944603-45.238934522,9.14944603-72.612966154,0-27.374042972-3.248971314-53.160742176-9.14944603-72.612977493-1.096862186-3.614607162-2.285878894-6.98841287-3.537318468-10.041202891,4.524189408-10.26415628,9.735041691-15.908997733,14.70510386-15.908997733,4.96711395,0,10.177954893,5.644841453,14.702144301,15.908997733-1.257381369,3.067644508-2.449368974,6.441472895-3.540278026,10.041202891-5.900474716,19.452235318-9.149457369,45.238934522-9.149457369,72.612977493,0,27.374031632,3.248982653,53.160730836,9.149457369,72.612966154,1.090909052,3.599729995,2.282896657,6.973558382,3.543248924,10.041202891-4.527160306,10.267127178-9.738001249,15.911957292-14.705115199,15.911957292M77.164823463,247.192058144c-6.732790947,0-13.64688602-10.07687634-18.976642242-27.64750162-5.731031501-18.890429516-8.884888735-44.076678571-8.884888735-70.918624716,0-26.838986587,3.153857234-52.025224303,8.884888735-70.915665158,5.329756221-17.570636619,12.243851295-27.647512959,18.976642242-27.647512959,4.967091271,0,10.177943554,5.644841453,14.702132962,15.908997733-1.257381369,3.073586304-2.449368974,6.447414691-3.537318468,10.041202891-5.903434274,19.44926442-9.14944603,45.238934522-9.14944603,72.612977493,0,27.37700253,3.246011756,53.166672631,9.14944603,72.612966154,1.087949493,3.5937882,2.276966201,6.967616587,3.540289365,10.041202891-4.527160306,10.267127178-9.738012588,15.911957292-14.70510386,15.911957292M93.917998339,77.710266649c.362653611-1.18604581.731249017-2.351272658,1.111728013-3.483796954.380490336,1.135495194.752056639,2.297751144,1.108757116,3.483796954,5.731031501,18.887447279,8.89083053,44.070736776,8.89083053,70.915665158,0,26.844917043-3.15979903,52.031166098-8.89083053,70.918624716-.356700476,1.18603447-.72826678,2.34830176-1.108757116,3.483808294-.380478996-1.132535636-.749074402-2.297773823-1.111728013-3.483808294-5.728060603-18.890429516-8.884888735-44.076678571-8.884888735-70.918624716,0-26.838986587,3.156828132-52.025224303,8.884888735-70.915665158M129.650786354,77.710266649c.359682713-1.18604581.728278119-2.351272658,1.108757116-3.483796954.380478996,1.135495194.755016198,2.297751144,1.111728013,3.483796954,5.73104284,18.887447279,8.887859633,44.070736776,8.887859633,70.915665158,0,26.844917043-3.156816793,52.031166098-8.887859633,70.918624716-.356711816,1.18603447-.731249017,2.34830176-1.111728013,3.483808294-.380478996-1.132535636-.749074402-2.297773823-1.108757116-3.483808294-5.73104284-18.887458618-8.887859633-44.073707673-8.887859633-70.918624716,0-26.844928382,3.156816793-52.028217879,8.887859633-70.915665158M137.462591423,221.238897961c5.900474716-19.452235318,9.149457369-45.238934522,9.149457369-72.612966154,0-27.374042972-3.248982653-53.160742176-9.149457369-72.612977493-1.090909052-3.599729995-2.282896657-6.973558382-3.540278026-10.041202891,4.524189408-10.26415628,9.735041691-15.908997733,14.702144301-15.908997733,4.970062169,0,10.180903112,5.644841453,14.70510386,15.908997733-1.251439574,3.052790021-2.440444942,6.426595729-3.537318468,10.041202891-5.903445613,19.452235318-9.14944603,45.238934522-9.14944603,72.612977493,0,27.374031632,3.246000416,53.160730836,9.14944603,72.612966154,1.093902628,3.614595822,2.285878893,6.988424209,3.537318468,10.044185128-4.524200747,10.264144941-9.735041691,15.908975055-14.70510386,15.908975055-4.96710261,0-10.177954893-5.644830114-14.705115199-15.911957292,1.260352267-3.067644508,2.452339872-6.441472895,3.543248924-10.041202891M165.383574369,77.710266649c.356700476-1.18604581.72826678-2.34830176,1.108757116-3.483796954.380490336,1.132524296.749074402,2.297751144,1.108757116,3.483796954,5.731031501,18.890440855,8.884888735,44.076678571,8.884888735,70.915665158,0,26.841946146-3.153857234,52.028195201-8.884888735,70.918624716-.356700476,1.18603447-.72826678,2.34830176-1.108757116,3.483808294-.380490336-1.135506533-.752056639-2.297773823-1.108757116-3.483808294-5.731031501-18.887458618-8.89084187-44.073707673-8.89084187-70.918624716,0-26.844928382,3.159810369-52.028217879,8.89084187-70.915665158M173.19241988,221.238897961c5.903445613-19.446293522,9.14944603-45.235963624,9.14944603-72.612966154,0-27.374042972-3.246000416-53.163713073-9.14944603-72.612977493-1.087949493-3.5937882-2.279937098-6.967616587-3.537318468-10.041202891,4.524189408-10.26415628,9.735041691-15.908997733,14.702132962-15.908997733,4.970073508,0,10.180925791,5.644841453,14.70510386,15.911968631-1.254399132,3.052790021-2.446386737,6.426595729-3.540266687,10.038231993-5.900486055,19.443322625-9.149457369,45.232992726-9.149457369,72.612977493,0,27.379973427,3.248971314,53.169643529,9.149457369,72.612966154,1.093879949,3.614595822,2.285867554,6.988424209,3.540266687,10.044185128-4.524178069,10.264144941-9.735030351,15.908975055-14.70510386,15.908975055-4.967091271,0-10.177943554-5.644830114-14.70510386-15.911957292,1.263323164-3.073586304,2.452339872-6.447414691,3.540289365-10.041202891M201.110420589,77.710266649c.365624508-1.191987605.734219915-2.354243555,1.114698911-3.483796954.374537201,1.129553399.749074402,2.291809349,1.108757116,3.483796954,5.73104284,18.887447279,8.884888735,44.070736776,8.884888735,70.915665158,0,26.844917043-3.153845895,52.031166098-8.884888735,70.918624716-.359682713,1.191987605-.734219915,2.354243556-1.108757116,3.483808294-.380478996-1.129564738-.749074402-2.291820689-1.114698911-3.483808294-5.728071942-18.890429516-8.884888735-44.076678571-8.884888735-70.918624716,0-26.838986587,3.156816793-52.025224303,8.884888735-70.915665158"/>
        </g>
      </g>
    </g>
  </g>
</svg>