<?xml version="1.0" encoding="UTF-8"?>
<svg xmlns="http://www.w3.org/2000/svg" viewBox="0 0 519.687854945 584.34299264">
  <defs>
    <style>
      .cls-1 {
        fill: #8c3111;
      }

      .cls-2 {
        fill: #fff;
      }
    </style>
  </defs>
  <rect class="cls-2" width="519.687854945" height="584.34299264"/>
  <g id="Layer_1" data-name="Layer 1">
    <path class="cls-1" d="M488.843536678,186.220365407c13.219428388-16.339609961,12.23550412-40.431302528-2.951376859-55.619239362l-2.315092634-2.314300744c-5.106771524-5.105055761-11.342779271-8.962355649-18.151060073-11.063637778-1.039752567-.320979721-1.676564719-1.364823723-1.401646644-2.41777447.321903594-1.232182021.667035983-2.48402933,1.048463365-3.766100469,11.717871527-39.408707594-5.441873297-63.702860231-25.405967263-73.299520378-7.409193906-3.558889054-15.468134181-5.157452533-23.072529159-4.997886545-.584811326.018873396-1.526369438.075757549-2.107353292.115484069-61.386843724,3.411597372-56.942356838,43.244758413-56.942356838,43.244758413,1.353605271,7.496565854.859465437,12.517153267-1.471860958,14.924501175-2.149719448,2.220725652-6.540357762,2.872979674-13.045212421,1.939340469-2.242898594-.321771612-4.594022258.369944966-6.147843909,2.019057472-1.850384741,1.963889083-2.375012369,4.70092751-1.415108787,7.181921259,1.980782752,5.10716747,7.371975041,13.676481338,21.218448929,13.676481338.477246164,0,.950268911-.006335126,1.41906824-.017949524,9.056854613-.228064539,17.618909483-4.213386766,23.645066178-10.920833478.368361185,1.263065761.483317327,2.424505541.274258166,3.452775692-.618598665,3.027794318-3.960113705,5.937596912-9.937833082,8.648766908-2.066042991.937070732-3.679256449,2.785607727-4.105425659,5.013856342-.507469995,2.652834043.522779883,5.243636644,2.669595731,6.816727637,2.620630486,1.921654909,6.90528742,4.224473237,12.395730017,4.224473237,3.765176596,0,8.09840283-1.084362413,12.845523968-4.115720239.405448069-.258684315.800337594-.517368629,1.188891993-.779220507,7.718295266-5.207473632,12.891981559-13.467422178,14.192794113-22.660745965.284948692-2.011006583.355426969-4.004591569.268846913-5.970460379.277293748.188865946.553003713.37905171.782784015.601441032,2.233527886,2.162125736,2.880106691,6.580744191,1.925086436,13.136147877-.291283818,1.999656149.246673971,4.09367928,1.592228353,5.601307303,1.374722358,1.540359508,3.228802589,2.342676829,5.125908884,2.342676829.836236642,0,1.680920118-.155210589,2.496039673-.471966892,5.108223324-1.979726898,13.677537193-7.368807478,13.677537193-21.217393074,0-.479357873-.006335126-.951324765-.01689367-1.41906824-.236511373-9.307356056-4.413471164-18.113181298-11.460243067-24.159003281-3.817045441-3.274072344-8.199104939-5.490046652-12.844600096-6.64620716-.365457585-.120631359-.756387657-.22595283-1.186912266-.307253615-5.556697457-1.049915165-6.01836977-4.835021012-5.834123186-6.619414856.286400491-2.77333342,2.415794743-4.22104171,4.320819946-4.972678022,6.003983754-1.941188214,13.368567815-1.448368199,20.182127888,1.826100091,15.457707619,7.428991175,20.707415425,25.241253985,14.044974505,47.645427344-.355558951,1.195623065-.691584596,2.377124077-1.008868827,3.54463502-1.35202149,4.97544964-4.519320563,9.357113192-9.098956805,11.725526471-3.723734313,1.925746345-7.171494697,4.424557635-10.221593938,7.475052821l-2.983844381,2.982788526c-13.656948033,13.657871905-15.786342284,34.498984887-6.461696613,50.442913432,1.293685537,2.212014854,1.08343854,4.944697882-.521196101,6.942638267-13.122025825,16.336838344-12.112893034,40.347890034,3.038220879,55.500059802l2.893040907,2.890929198c2.574832803,2.574964785,5.41415712,4.719009016,8.42518975,6.463544358,2.283680968,1.32338144,3.435882022,3.954702451,2.761719023,6.506570423-1.304772008,4.939550592-3.745511309,12.511873995-7.882084671,20.005272286-8.381371795,15.184241344-19.803604106,23.137992129-33.947828919,23.640578797-21.344491541.766550255-47.057316473-10.756780109-66.40320772-21.675237915-20.692369501-11.678408971-32.316138009-34.780897997-29.126929959-58.326317922,1.065357035-7.86505902,2.998890305-14.122711781,4.108065295-17.274700966.299202725-.764042601.580059981-1.51396315.846003294-2.251609392l.000131982-.000395945c1.30714768-3.626463732,2.230624287-6.923632889,2.872451747-9.720986996.293527508-1.280751321,1.450743871-1.407453843,1.797064096-1.415900677.468799329-.009502689,1.448632162.095026891,1.778058718,1.269136923.498759197,1.79072897.871211817,3.905737206,1.103763736,6.289328391.231232102,2.371052915,1.839694215,4.522488126,4.14963956,5.105187743,2.572193168.648954477,5.134883646-.557491094,6.280749575-2.892776943,12.414735395-25.238086422,9.709636562-46.77962678,5.253931224-60.40542711-.428676864-1.311371097.477246164-1.977615189.884805942-2.202512165.40333636-.223841121,1.433850201-.625065773,2.297539056.419174175.012670252.015837815.200612326.241790645.215394286.25762846,1.672341302,2.047961485,4.424821599,2.627625521,6.802737567,1.410489424,2.234847704-1.144018183,3.293605649-3.799623844,2.798805907-6.260952306-5.136863373-25.549695436-13.471381632-39.609187938-19.568808495-46.910684701-.120367395-.143596191-.439235408-.525815464-.01689367-1.033681404.390666108-.473022747.766550255-.25762846,1.119205606-.061239552,1.93643687,1.114982189,4.329002817.940766222,6.088056157-.43501199,1.775947009-1.384225047,2.527715303-3.674373123,1.917431492-5.837818677-4.989967637-17.594756815-18.517573513-25.107160483-28.985313495-28.310622568-1.264913506-.387498545-1.334599893-1.388448464-1.264913506-1.951218831.061239552-.482525436.358990477-1.61334544,1.816069474-1.683031827.739889933-.036690938,1.473180776-.045269755,2.187994168-.036163011,1.895654496.024152668,3.789197283-.73236697,4.926352413-2.24923372,2.069474517-2.760663168.907902755-6.371817012-1.714047548-8.039670933-34.273823948-21.801148546-84.420702218-9.532253032-91.648817104.27966942-2.772673511,3.767288305-6.799701985,6.55791134-11.967053153,8.295847593-9.378098297,3.155948639-18.536578891,8.356031291-27.222036737,15.454540056l-20.593383156,16.829658359c-1.357432743,1.109438954-2.508181998,2.493268055-3.162151783,4.119943656-1.626279656,4.045769889-.442798916,8.326599351,2.499075254,10.753480564.035899048.030619776.20905916.16999255.244958208.198500617,1.583781518,1.244852273,2.783232055,2.51715676,3.668037997,3.886599846,6.522672202,10.128810737,15.365716309,14.557063862,24.531059956,12.658505767,1.7767389-.368097221,3.592280447.399508888,4.476162516,1.984082297l1.133195676,2.031463761c.578608181,1.041072385,1.672473283,1.664026449,2.831801355,1.664026449.206947452,0,.418118321-.020061233.627177481-.061239552,1.378945775-.272410421,2.426353286-1.401118717,2.593178273-2.795902307l.659776984-5.499549341c.176591639-1.471992939,1.22545095-2.691240745,2.654549807-3.085734325l.222785267-.061503516c1.63908189-.452433587,3.372794725.291547781,4.174056192,1.791388879l2.667879968,4.993927091c.572273055,1.068524598,1.678808409,1.714707457,2.861365276,1.714707457.187942074,0,.377995856-.01689367.570161347-.050681009,1.383169193-.246014063,2.449582082-1.35571698,2.641747573-2.748388862l.498495233-3.600331337c.292075708-2.109728964,2.29635122-3.505832373,4.392750023-3.12955228,2.806196887.503774505,5.402146777,1.358884543,7.639634117,2.577208476,4.778796768,2.601625107,7.412097506,6.495615934,7.823880701,11.573219482.1457079,1.799175805-.356878769,3.246752113-1.58166981,4.556011501-1.754829922,1.8738775-4.903651544,3.371738871-9.202694494,4.452933721-1.662574649.418118321-3.408693773-.375884147-4.195833187-1.898690077l-3.695754173-7.15037761c-.646182859-1.250131545-2.037798887-1.950162976-3.408297827-1.71048404-1.38739261.228064539-2.46858746,1.322985495-2.679758329,2.712489814l-1.11141868,7.299121091c-.23769921,1.561740559-1.56847163,2.713149723-3.14789775,2.736246537-.015969797.000263964-.031939594.000395945-.048041373.000659909-1.213044661.017289615-2.335153867-.665716165-2.892249016-1.743479488l-2.706418651-5.236905572c-.646182859-1.249075691-2.042022304-1.946995413-3.408297827-1.711539894-1.38739261.228064539-2.46858746,1.322985495-2.679758329,2.711433959l-.917669408,6.022197242c-.245354154,1.60964995-1.056250291,3.061185711-2.243822466,4.174980064-1.899877913,1.781754208-3.385728941,4.055932487-4.240047088,6.698603932-2.086368187,6.458661032-5.82409257,9.866958859-11.113922841,10.129866591-1.330376475.065462969-2.485481129.938654513-2.912046285,2.200400456-.426565156,1.261745943-.038010756,2.656529533.979832833,3.515994971.344208517.294583362,8.605212916,7.163971735,18.162806452,5.52528579,2.74020599-.470647075,5.35080586-1.927462108,7.677512892-3.735744656.557755058-.433560191.941030185-1.057438127,1.100068246-1.745723179.444118734-1.922182836,2.16463339-3.3621042,4.213254784-3.3621042h.019005378c2.207659455,0,4.179467445,1.657163395,4.294159623,3.861919251.35331526,6.795874513-7.46462626,14.261820591-19.23133105,14.261820591-3.259422365,0-6.59908966-.39594538-9.925030848-1.176221741-6.190474028-1.451799725-11.817121836-5.125116993-15.84415031-10.342093315l-44.131544082-57.173061013-.423661556-.490972271c-.422077775-.541125352-1.163023562-1.459322687-2.201720274-2.664052496-5.328500937-7.324593577-6.359014778-16.968239242-2.493795982-25.341560148l3.50121301-7.582090056c1.598299516-3.459506763,1.197206846-7.317598542-.700163413-10.314773084.393965653-4.293763678.32533512-13.320130497-6.158666416-18.750785341-1.007285046-.845739331-2.428464995-.99144723-3.594128192-.380107564-1.165663197.614507229-1.843521687,1.876253172-1.714707457,3.186568415.217374013,2.233131941.160357879,8.916030039-2.452485681,12.096263328-2.125038852,1.057702091-3.938336709,2.774653238-5.010292833,5.097268835l-2.432424449,5.26765733c-1.250131545-3.484451322-1.842861778-5.656871638-1.875461281-5.779746688-.932847314-3.560340853-3.543711147-6.227032985-6.757599793-7.403122744-1.704676841-2.869548148-7.744163698-11.758125974-17.29265049-11.951743265-1.264913506-.050681009-2.51715676.747544877-3.040860515,1.955442248-.521592047,1.208953226-.261851878,2.616407068.658853112,3.558229145,1.659803031,1.698869642,6.265439687,7.492342436,5.665714418,11.690419314-.063483243.445966479-.002111709.878734779.11112867,1.295665264-.695676032,1.965736828-.832013224,4.152807123-.267395113,6.322323839.044345882.164713278.219617704.829901516.544820842,1.913208074-1.446520453-.873191544-2.931051663-1.747438942-4.45359363-2.619574631-2.313508853-1.326417022-4.902331726-1.655711596-7.333964284-1.205125754-.037482829-.019005378-.069290441-.046457591-.107697143-.06401117-.525815464-.238623082-13.012348955-5.81670159-21.921647923.884805942-1.053742637.791890759-1.520430258,2.141272613-1.184668576,3.415688808.333649973,1.274416195,1.408509697,2.219405834,2.713545668,2.392565947,2.354555191.311477032,9.553370119,2.028296198,11.675637353,5.700557612.05741208.09938229.139240792.175403803.205759616.266735204.570293328,2.991103379,2.347296192,5.733685042,5.195991216,7.367091714,1.959533684,1.123824969,3.82509633,2.246858047,5.643805441,3.36725149-1.102047973.091067437-1.80247535.194013236-1.967320609.220541576-2.411835289.384462964-4.488832768,1.566359922-6.071822396,3.201878303-.503774505.031279685-1.005173337.143596191-1.458530797.412311122-3.640585784,2.166613117-10.765490907.150987171-12.968003072-.724316081-1.214232497-.486748853-2.620630486-.193221345-3.539223766.755991711-.918593281.948157202-1.167774906,2.357722754-.635624316,3.564564271,4.50216293,10.196385415,18.122683987,11.428567436,18.69918046,11.476080882.088691765.00739098.17738353.010558543.266075295.010558543.04342201,0,.085524202-.010822507.12881423-.01253827,2.32657505,2.110388873,5.517102919,3.220751699,8.879735046,2.684905619.463916003-.063615224,8.711326278-1.096900683,16.584172224,3.535000349,5.052790971,9.697890182,9.280695734,20.544813856,7.417508759,26.755349117-.578608181,1.931157598-1.744271379,3.183400852-3.668037996,3.940448418-2.926168337,1.151805109-5.004089689,3.699845609-5.575834817,6.897632476-.49242407,2.75419606.388422417,5.58269787,2.15354692,7.753402423,4.433928342,5.452827786,11.600011786,12.258073007,20.966363704,14.451478428.067574678.015837815.1942772.045401737.228064539.220673558.027452213.130925939-.027452213.171048404-.092915182.21856185l-7.316410706,5.292073962c-1.251847308.905659065-2.273122424,2.154602774-2.70193127,3.639002002-.862237055,2.985032217.375884147,5.995008992,2.84909097,7.534972555,4.698551838,2.924716537,11.929042396,7.015096272,19.70013038,9.887020092,1.199450537.442402971,1.98500617,1.456023143,2.105373565,2.711433959.054904426.584943307.019005378,2.043078159-1.503536588,2.961671439l-4.00168797,2.41262718c-3.486431049,2.100094293-4.715445507,6.537850108-2.798014016,10.102414378,3.741551855,6.950029248,15.839530947,21.084751372,37.562018344,23.723463363.012010343.0014518.024020686.002903599.03603103.004487381,2.297671038.287456346,4.599961438-.450321878,6.044502165-2.260056227l9.499125602-11.900534329c1.3439706-1.683691736,3.740100056-2.325915141,5.617805027-1.269664851,2.392301983,1.345686363,2.924584555,4.431288707,1.286294556,6.484001536l-16.569522245,20.758360397c-.11997145.179363257-.227272648.365721549-.363213895.535582117l-22.733863878,28.400766133-11.436750308,14.328075451c-.047645427.059655771-.108357052.10083409-.158378152.157322297l-2.899639997,3.622504278c-.471834911.498231269-1.26887296,1.36825525-2.304666073,2.575492712-6.445066907,6.36429405-15.825936822,8.825886475-24.683366945,6.25686087l-8.020533573-2.327630905c-3.659591162-1.062717399-7.414341196-.088955729-10.093967544,2.235375631-4.304322222.252877116-13.218900461,1.671153465-17.618381556,8.894517007-.685513434,1.122505151-.617014883,2.549492299.161809678,3.610625916.781992125,1.06060569,2.130978033,1.542075272,3.407241973,1.218719878,2.175455897-.54904426,8.79170319-1.492450117,12.327099485.615167138,1.363635887,1.942903978,3.332540278,3.478908087,5.789381359,4.191345807l5.572271309,1.61704093c-3.258234529,1.757337576-5.317546448,2.668407895-5.434086371,2.719088903-3.380713633,1.454967288-5.626779789,4.435380142-6.308861697,7.789037507-2.582223784,2.114744272-10.467344037,9.415977072-9.230278689,18.886066679.13910881,1.258182435,1.11577408,2.376992095,2.38834253,2.714073595,1.273360341.334837809,2.626173721-.13250972,3.419648262-1.183744703,1.431474529-1.89525855,6.470671375-7.315882779,10.71124639-7.350857954.45045386-.003959454.86923209-.129342157,1.264517561-.303690106,2.047697521.393701689,4.230544399.201272235,6.291176136-.68155398.156134461-.068366569.787667342-.341304917,1.810130294-.824886207-.64697475,1.560948668-1.289330138,3.159512147-1.923898599,4.795426474-.965314835,2.485877075-.903679338,5.094893163-.094366982,7.431630811-.013198179.039990483-.035503102.075493586-.0471175.116143978-.157322297.555643349-3.804639152,13.736137109,4.154258923,21.542596213.94063424.923344625,2.344656556,1.182952812,3.554533654.660304911,1.210141062-.520536192,1.983686352-1.724738073,1.959665665-3.040992497-.044213901-2.374616423.576364491-9.7492311,3.889767409-12.397049835.089615638-.071534132.152570953-.163789405.232947865-.243242445,2.872055802-1.011376481,5.317942393-3.178649507,6.506834386-6.239703237.818023154-2.105637529,1.64937647-4.118227893,2.485085184-6.083964721.254856843,1.075915578.461408349,1.753114159.512353321,1.91215222.740945787,2.327102978,2.220197725,4.204016059,4.074145974,5.5244939.106377325.493347943.292339672.972309871.625857663,1.380397575,2.686885346,3.275524144,1.75984523,10.621762735,1.223867168,12.930388261-.299598671,1.273492323.201008271,2.620102558,1.277055831,3.38638885,1.074859724.766418273,2.505806326.801921375,3.619468697.095158873,9.408058164-5.976927487,8.588847174-19.628464266,8.5495166-20.205620648-.005939181-.088691765-.016101779-.176855603-.029299958-.264623495-.00659909-.042894083-.023492759-.082884566-.03167563-.125514685,1.738596162-2.616011123,2.359042572-5.936805022,1.32628504-9.181445425-.077869258-.263963586-.888897377-3.136283352-.854054184-7.180733422.047777409-5.522910118,2.908350795-10.663732945,7.54711488-13.661435414,7.226399123-4.67004377,14.592830928-8.142484749,19.665683132-7.420808304,1.995960659.283100946,3.408561791,1.248415782,4.444882831,3.037165025,1.576390538,2.720804667,4.406212166,4.393805877,7.653228242,4.481177824,2.796694198.07509764,5.461670566-1.218455915,7.343862919-3.288326377,3.073855964-3.380053724,7.50144918-10.09660718,10.434876515-17.017732415,1.020351243-2.407347908,4.153071087-2.999550214,5.98524234-1.134383512l1.665742212,1.695702079c2.039118705,2.076205589,5.230570446,2.63858001,7.954146731,1.175693814,1.378021903-.740285878,2.382139385-2.019981345,2.997438505-3.458186945.791494814-1.849856813,1.675640846-4.038114945,2.560182824-6.456945269,1.0540066-2.882482363,4.476030534-4.036531163,7.054822792-2.372372733,5.985902249,3.86257916,12.420806558,7.219272106,18.63516929,10.063347768,5.680760343,2.599777362,6.116168278,10.486613378.742001641,13.671993957-17.182577674,10.184375072-34.703028739,25.461135653-37.172276108,46.171586659-5.228326756,43.849367008,29.046289083,42.397039356,25.015829082,69.650091814-2.303610218,15.576491233-12.384511565,24.806373977-21.215677311,30.014243554-6.53653029,3.854660252-14.604973253,4.683637895-21.426716198,1.359676434-.637999988-.310817123-1.266101342-.652781949-1.88272028-1.026422406l-6.655577867-4.035079363c-3.036637098-1.841805924-6.651486432-1.873745518-9.625432178-.429996682-3.935169146-.813667755-12.301363035-1.693854334-18.008387754,3.743003655-.888501432.844419513-1.171998324,2.145364048-.727747608,3.288722323.447154315,1.14375422,1.544714908,1.903441421,2.771749639,1.921126982,2.090723586.032203558,8.27354267.783575906,10.945514073,3.53579224.757311529,2.078581261,2.157770337,3.937280855,4.196625078,5.172762421l4.623982125,2.803425269c-3.357616819.793342559-5.431314754,1.115114171-5.548514586,1.132535767-3.394703703.49163218-6.137285365,2.630661102-7.562424768,5.483975489-2.835628827,1.278639612-11.698470204,5.942348257-12.876011762,14.764671223-.179231275,1.166191125.42907281,2.409327635,1.492978045,3.020535319,1.064961089.609491921,2.395601528.516048811,3.364083927-.238095155,1.746779033-1.359544452,7.59344049-5.019003632,11.418404838-4.024652802.406371941.105321471.813535773.093839055,1.211592862.032467521,1.747570924.849830766,3.758709488,1.204729808,5.826864188.908694646.157190316-.023888705.791494814-.116671905,1.828739727-.304613979-.9597716,1.2482838-1.92469049,2.531674757-2.891457125,3.850568817-1.470277176,2.003747584-2.045849776,4.36674961-1.882852262,6.665740465-.021513032.032731485-.050285063.059259825-.070478278.093047164-.27597393.461936276-6.747173232,11.442293543-1.472520867,20.393562721.623218027,1.058625963,1.823988382,1.631822891,3.039408716,1.454175397,1.215024388-.175799749,2.202512165-1.07235207,2.499339218-2.262827844.534658244-2.147871702,2.87707111-8.635040802,6.49970737-10.216446648.098062472-.042894083.177119566-.110600743.268582949-.162733551,2.829557664-.215394287,5.555245657-1.574278829,7.365639915-4.041678453,1.245644164-1.697153879,2.480729785-3.307331756,3.708424425-4.874483568-.03088374,1.030117896-.00884278,1.689498935-.0014518,1.844973487.103869671,2.273650351.981284632,4.320687964,2.330402522,5.957658145-.023756723.469855184.027848158.945913512.229252375,1.393859718,1.62588371,3.597955664-.985640032,9.985346528-2.026448453,11.933529777-.577684309,1.073539906-.452961514,2.406687999.330086465,3.356560965.781992125.949872966,2.061291646,1.328000803,3.234609788.961355382,9.913152487-3.103287903,12.47835062-15.588105631,12.582616236-16.116956676.016101779-.081432766.028244104-.163129496.037482829-.245354154.004619363-.040122465-.001055854-.08024493.001979727-.120631359,2.197496857-1.933929216,3.559416981-4.772461642,3.414764935-7.942532333-.00739098-.313060813.85524202-5.08657831,3.233553933-10.273198819,1.628391364-3.551102128,5.024150922-5.989729721,8.909694913-6.496539807,3.146709913-.410331395,6.225713167,1.184800558,7.830875736,3.92223493l1.918487346,3.271828653c1.046747602,1.785053753,3.241736805,2.606112488,5.173026384,1.863054993,10.618727153-4.085364427,14.133270324-11.501157423,15.117458556-17.468978166.342888699-2.079109188,3.165187364-2.473074841,4.106349532-.587846907l.649746368,1.301472463c1.549862197,3.104343758,5.849301093,3.483791413,7.914024265.695280087,5.499681323-7.427407394,6.746249359-14.460981117,6.706126894-19.423628523-.01544187-1.906081057,2.352971409-2.773861348,3.528401259-1.273228359l1.453383507,1.855400049c2.605584561,3.326205152,7.751818642,2.803425269,9.714915834-.938126586,15.176850363-28.927769433.045116401-51.080934213-5.735686141-69.389976492-.754349427-2.58466981-1.308015043-4.086639144-2.681188757-8.09851402-4.665563208-13.630945323,3.362896091-26.638149284,3.706048753-27.185081835,1.268081069-2.02407278,3.936225-2.636468301,5.961353635-1.366275523,2.019849363,1.267025215,2.633300738,3.927778166,1.373666504,5.949739237-.087635911.142540337-6.163021815,10.186882726-2.831801355,19.876458055,1.501688843,4.368333391,4.765334625,8.1152965,9.664366807,11.228219074,25.957123231,13.226687387,56.690271613,19.679409238,63.69467736,35.980744479,6.357430996,14.795818926,2.306249854,28.211636223-2.62907732,37.295019176-3.566807961,6.564642412-10.089744126,11.19258399-17.533913208,11.82477678-.595765814.050681009-1.197074864.078661149-1.803003277.083412493l-7.782966345.059523789c-3.551498073.026396359-6.645019324,1.896842332-8.418326697,4.686805458-3.776527031,1.373270558-11.359276995,5.015836069-13.362628634,12.639236425-.312943052,1.185196503.128682248,2.441267229,1.1069313,3.181289143.981020669.738702097,2.31403678.809180374,3.367647435.180023166,1.796404187-1.070108379,7.453275825-3.676220868,11.172258794-2.736378518,1.735692562,1.371554795,3.903361534,2.218481962,6.287348664,2.199740547l5.407294067-.041310301c-2.441399211,2.437835702-4.037455036,3.800283753-4.128126528,3.87656923-2.631189029,2.200532438-3.842649909,5.460878675-3.557701217,8.637548456-1.742291652,2.57681253-6.83758076,11.198787135-3.208609374,19.325961996.459692586,1.086606103,1.629975146,1.825440182,2.856349968,1.787165462,1.226374822-.040386429,2.309945345-.8184191,2.738358245-1.968640427.773017363-2.07409388,3.828263893-8.257968819,7.605846778-9.419672562.401092669-.12366694.741605696-.347112116,1.048199402-.608304085,1.93353327-.194145218,3.83169542-.947761257,5.436462044-2.285396731.121291268-.102813817.612527502-.514860975,1.39661616-1.219247806-.161530539,1.56622794-.309086184,3.165187364-.439616177,4.79516251-.199556471,2.477298258.551023987,4.790675129,1.896578368,6.661912993-.001055854.039066611-.01174638.076813404-.011086471.116143978.007522962.538089771.263831605,13.280799922,9.452272065,18.130602895,1.086078176.573988819,2.409063671.431448482,3.350225838-.357802641.941954058-.787403378,1.311767043-2.06894659.939446404-3.237909332-.672447236-2.108805092-2.084256478-8.859937777.168936695-12.107613762.060975588-.088031856.092783201-.187150183.143200246-.279537438,2.295295365-1.668645811,3.901909734-4.256148867,4.147527851-7.306644053.169332641-2.09837853.375224238-4.117172039.597481578-6.095447137.51446503.892856831.879394688,1.442561.967294562,1.570979284,1.281939157,1.880740553,3.103287903,3.162415747,5.110994942,3.847401253.226348775.412443104.520272229.790570941.926776152,1.066016944,3.272620544,2.208847291,4.402912621,9.016336202,4.539777741,11.220828094.071798096,1.217004115.877810907,2.286188622,2.042946177,2.683585801,1.164211398.398057088,2.451561809.048305336,3.257706601-.879658652,6.808412784-7.845261751,2.437835702-19.818122103,2.248969756-20.322952462-.029035994-.077737276-.061635497-.153626807-.097006618-.228460484-.017025651-.036558957-.043026065-.067838642-.061635497-.103737689.85524202-2.799597797.524231683-5.930601877-1.262933779-8.552816144-.170520477-.262247823-1.94013236-4.772989569-2.6393719-10.431576971-.467083566-3.780222521,1.049255256-7.542627499,3.939920491-10.022961339l.039990483-.034315266c2.459480716-2.110388873,5.960297781-2.4994712,8.823114857-.980624723l3.443141021,1.82676c1.826496036.969010326,4.124299056.520008265,5.377202218-1.124748842,6.892485186-9.047483905,5.997120701-17.200923144,3.704992899-22.797875048-.802317321-1.959137738,1.382641266-3.783258102,3.18181707-2.667484022l1.236273457.766682237c2.975397546,1.845105469,6.816595655-.143728173,7.106691636-3.632798858.763514674-9.182633262-1.867674356-15.804819735-4.503218784-19.996297524-1.012168372-1.60964995.556831186-3.58145794,2.340697102-2.923000774l1.888131533.696863868c4.298910968,1.586949081,8.395889792-1.572167121,8.100910485-5.795320539-2.739150136-39.206643469-38.848708846-45.203632188-49.664220853-61.973502795-5.630079334-8.729671747-5.423527828-22.311258176-3.725054131-33.964722588.857749674-5.884936177,8.389290703-7.818469447,11.992921584-3.087450088l.092387255.121291268c3.423079788,4.493716095,7.300176945,9.586101603,13.337552093,13.05247142,1.019955298.584943307,2.132825778.871079835,3.239361132.871079835,1.653467905,0,3.287930432-.637736025,4.559179064-1.869918046,2.109596982-2.042022304,2.605848525-5.139898954,1.239573002-7.707736723-1.292365719-2.426353286-1.932213452-5.14623408-1.911096365-8.104737957,4.206523713,3.638474075,10.790831412,8.076229889,19.839503153,10.610280319,2.998098414.831617279,6.150615527-.519348356,7.586445455-3.435882022,1.021407098-2.074489825.776976817-4.589666858-.446098461-6.55197216-1.172130305-1.880476589-2.047037612-4.008551023-2.610731851-6.34515669,3.293605649,1.681843991,8.18669865,3.329504697,14.530139577,3.259158401,2.583807565-.028640049,5.072060313-1.426459221,6.163153797-3.768740105,1.185064521-2.544213027.691716578-5.396339578-1.248679745-7.35864488-3.348906021-3.387972631-2.798277979-9.157160776-1.222811314-14.417427125,5.924002788-5.399243178,11.154969179-12.19208211,15.580318705-20.348688911,3.593072338-6.622318455,6.129234476-13.194747793,7.871394146-18.647311615,2.22204547-6.954384647,7.65824355-12.25833697,14.444219429-14.95142546,5.10795936-2.027240343,9.892167382-5.102548107,14.018446164-9.228826889l2.890929198-2.890929198c13.622764748-13.623820603,15.775519777-34.394719271,6.531514982-50.323073964-1.286690502-2.217294126-1.068392616-4.950373099.544028952-6.943298176ZM437.475430875,232.966864757c-.76615431-.571481165-1.511851441-1.182556867-2.207263509-1.877968935l-2.890929198-2.890929198c-7.806987031-7.808042885-7.806987031-20.511026517-.002111709-28.316957694.195465036-.195465036.408879595-.365193622.609755885-.553003714,5.71072021,10.653702329,5.85207271,23.401427788,4.490548532,33.638859541ZM440.902998045,172.035622183c-.024020686.004619363-.048041373.009238726-.072194041.013726107-1.388448464.265415386-2.811080213.172632186-4.140532816-.307913524-.167484896-.060579643-.336157627-.116671905-.505886213-.16854075-2.038194832-.622030191-3.601387191-2.297011129-4.368861318-4.284920898-2.767658203-7.168459116-1.266497287-15.620177207,4.506386347-21.393852732l2.648610626-2.647686753c.411915177,9.241101196,2.229172487,17.078048094,4.797538183,23.669218846.875963161,2.247649938-.494799743,4.670967643-2.865060767,5.119969703ZM466.474998404,228.199022478l-2.888817489,2.889873344c-1.360996251,1.360600306-2.87707111,2.468719442-4.483553497,3.354977183.937466677-7.799068124,1.147185746-16.731331923-.401488615-25.781587447-.536242026-3.133511734,1.523333857-6.134909693,4.62952536-6.811580347.032731485-.007127017.065594951-.014254034.098326436-.021513032,2.611259778-.574780709,5.361232421.55419155,6.602917132,2.922340865,3.95826596,7.549358571,2.781780255,17.106952107-3.556909327,23.447489434ZM472.281537395,172.273585356c-5.348298206-5.681420252-11.768024609-16.219506529-11.669170245-33.89714791,2.596213854.991975158,4.983896475,2.511085597,7.007177364,4.534894414l2.981732672,2.980676818c7.193403675,7.194459529,7.74139208,18.535655018,1.680260209,26.381576678Z"/>
  </g>
</svg>