<?xml version="1.0" encoding="UTF-8"?>
<svg id="Layer_1" data-name="Layer 1" xmlns="http://www.w3.org/2000/svg" viewBox="0 0 611.196228128 652.697206582">
  <defs>
    <style>
      .cls-1 {
        fill: #8c3111;
      }

      .cls-2 {
        fill: #b59f6f;
      }

      .cls-3 {
        fill: #353638;
      }

      .cls-4 {
        fill: none;
        stroke: #fff;
        stroke-miterlimit: 10;
        stroke-width: 3px;
      }

      .cls-5 {
        fill: #353534;
      }

      .cls-6 {
        fill: #767a79;
      }

      .cls-7 {
        fill: #3d3d3d;
      }

      .cls-8 {
        fill: #1a1917;
      }

      .cls-9 {
        fill: #1054a4;
      }

      .cls-10 {
        fill: #9b9b9b;
      }

      .cls-11 {
        fill: #fff;
      }

      .cls-12 {
        fill: #343434;
      }

      .cls-13 {
        fill: #fefefe;
      }
    </style>
  </defs>
  <g>
    <g>
      <path class="cls-10" d="M37.696455323,383.720684375c.891715894,5.59244463,1.347091518,11.36253328,1.659519599,17.556233382l.883324339,13.173606238-12.349857877.011068293c-2.054494387.421851209-3.591802437-.86747701-3.684016051-2.929515388l.034270932-25.62360947c.47921199-1.298246429,1.116269683-2.038513431,2.533448207-2.282496618,4.026444354-.062688344,7.529660492-.234564971,10.923310851.094713563Z"/>
      <path class="cls-10" d="M577.838215309,414.506969696c-.375572251-6.600960579.596809589-13.262831091,1.077377652-20.394100174.296671146-3.722515593.344611835-7.124932337,1.03269432-10.290045308,3.178575287-.457294765,6.485712247-.273046594,10.30898718-.191834064,1.417063733.221036854,2.049509731.982738682,2.532409835,2.279731386l.03563595,25.620124928c-.102663701,1.617364153-1.005381144,2.849327056-2.63660639,2.993988046l-12.350498547-.017864814Z"/>
      <path class="cls-10" d="M39.16141281,249.707714144c.206258257,3.197973585.015027086,6.547141688-.243700132,10.243073472l-1.398802317,18.455190098c-.211252222.883285782-.520851176,1.447083056-.424564235,1.926748321l-10.294017429.161257227c-1.462504318-.344059723-2.325880644-1.596811177-2.598771141-3.115049808l.01969708-25.694982135c.690527627-2.087911675,2.634286728-2.636746534,4.697511646-2.330333954,3.737470982.049182727,7.087134486-.331145079,10.242646527.35409678Z"/>
      <g>
        <path class="cls-12" d="M579.948287281,383.822824214l1.70747038,2.056918522-1.852402642,25.96494495-1.965139709,2.662282009-1.663245287,15.702971141-1.224529182,20.229244807c-.14031396,3.093718972-1.118286986,5.915306189-3.197611864,8.052107818l-11.700124635,11.023207116c-2.253372551,1.923001861-4.050167955,3.690053813-5.603274545,6.590601392l-53.044097248,90.298886566-2.547562862,4.979355853-16.066665132,43.819580817c-1.204931076,4.108646209-3.754001514,6.927783751-8.616023674,7.140605657l-329.236274165-.014168393c-4.092417519-.693298084-6.666434105-1.594804824-8.515656915-4.868153318l-14.50280514-38.705558762c-1.868321507-5.093530991-3.348631563-9.732739328-6.23247364-14.81917935l-53.33911211-90.184043411c-1.624182128-2.149174954-3.289470384-3.764866726-5.409630068-5.347994608l-9.854774658-9.480139439c-2.424202913-2.602327234-3.856108654-5.802861337-3.451119898-9.535963653l-2.495589586-29.662120002c-.135763791-2.069561541-.25093595-3.805855764-.89834544-5.275685931-.80118017-.044385777-2.021547642-.213440039-2.103619663-.757140579-1.103255248-7.308708407-1.878450612-19.027392906-1.985491888-26.331897999l1.546267613-3.640801043-.590145179-13.178990363c-.301663548-2.514496563-.378740147-4.995003324,1.096742107-7.093111218l13.691690466-12.416782829.010311344-36.735268692-12.376804853-10.672745678c-2.609354889-2.662223976-3.53634596-6.13021847-2.774936138-9.865458432.152020494-4.781372118.712889485-9.175055177.341033057-13.425601127-.494328176-.059661474-.966536872-.157242747-1.361327384-.387543314-1.22303539-.713456214,1.111594675-25.456781554,1.462961943-28.049331411l1.965432123-2.188137165c.68820409-1.759206298.750282451-3.796650371.742610454-6.163704878l2.144099883-30.696792658c.128248877-3.687564502,1.697802441-6.901194834,4.515871153-8.992760586l15.769486319-15.261231206,49.751383957-87.310183181c2.242252544-3.536104791,3.981205054-6.335307597,5.145242183-10.302783028l15.67395565-48.290588534c.847351819-3.903465546,3.306764674-6.426343272,7.915068837-6.85962267l337.432884502-.002050601c3.867172976.224747807,5.989596269,2.05817224,6.845566386,5.144916714l16.637325515,53.304132504,57.358064615,96.916700938,13.333947244,12.754028326c2.638591943,2.703232995,3.720687807,6.041423501,3.83913266,9.662344991l1.574519418,22.830642654,1.719119597,22.487971618,2.441185921,34.885702918c.115711258,3.289200625-.439046896,6.197159798-2.38857064,8.441473112l-14.133393647,11.735495584.420012404,18.675230981-.310996748,19.209869,12.949723742,9.841330197c2.025872203,2.688785273,2.231079898,5.732319061,1.762812646,8.821618629-.209533928,4.742733144-.722691888,9.076591256-.352177579,13.283369246Z"/>
        <g>
          <path class="cls-7" d="M431.852567955,565.11274863l-122.299584609,1.446023966-112.623382087-1.435117635-63.522035933-2.099834341c-2.858759685-.026959978-5.175439298-1.287533369-7.472031246-2.4965994-5.666239173-3.56771574-9.713600915-8.544926063-12.72216974-14.648151709l-36.976780793-64.844339437c-2.413968264-4.118635276-4.867026989-7.911835554-6.81496627-12.358349138-2.184917528-4.049856909-3.300311892-8.376356733-3.721380499-13.139334899l-2.961674043-37.844038098-.913627495-22.594805376c-1.042821612-18.25097201-1.243829849-35.936358047-1.291116105-54.199360737l-.052658236-22.596053362.63016227-37.882084122,1.704682092-40.954119445,2.05563341-31.743038344c.217273992-6.279349971,2.361701246-11.509667071,4.730843446-17.672498082l41.896918695-73.699811359c1.736300941-4.028532764,4.494190637-6.926504306,8.613124184-8.982657759,3.541161166-1.607598136,7.395918297-1.839581785,11.219494845-2.056568899l42.122705153-.939406684,154.466680804-1.55570281,102.389830716,1.192742432,28.752296614.407065688,30.701433396,1.044265706c7.468151922.285345831,13.677663107,3.953186176,17.304104942,10.34017163l39.481030047,70.096398466c2.484445911,5.078531123,4.080405792,10.040523357,5.482698885,15.688281448l.704153181,9.201629386,1.612518563,18.445008979,1.997969348,27.7329881.88763502,28.661284737c1.32262205,29.20476881,1.414620315,57.691646699.074216029,86.902409791l-.937685299,27.855101731-2.093503444,31.490508176-1.929356786,20.746009791c-.48302954,9.994515314-3.051504298,19.157185013-8.581680881,27.327027395l-37.343120908,66.693977497c-2.4698674,4.857483115-5.210033501,8.58110667-9.106943661,11.767926633-4.163477649,3.317542793-9.214295348,5.014503632-14.706139482,4.663100428l-50.758294121,2.039949657Z"/>
          <g>
            <path class="cls-12" d="M326.501229789,525.310236391l-31.364370908.013667779-79.758963904-1.262620778-35.917748221-.72144759-33.790211658-1.306818503c-10.13753046-1.774603186-18.268073446-7.454389296-24.370040248-15.615142866l-20.391116541-34.756349128c-5.351548821-8.371524889-8.569051089-17.342145039-9.426016149-27.372886784l-1.031519404-18.591831665c-1.44276193-19.348013432-2.115350995-37.845199721-2.278103757-57.189408561l.00459275-66.569466105c.157481781-19.089359756.951257173-37.321316566,2.197670665-56.198916849.342042292-11.456385854,1.022236965-22.46059518,2.428775711-33.941129101,1.891644644-7.669730566,4.982474671-14.461699952,9.326719435-20.756169449l21.881627416-34.686547135c5.744897943-7.004476506,13.991148853-10.737862503,22.949407627-10.578589714l37.610791806-1.278300886,26.741425056-.517225581,114.586402376-1.106601271,97.274143453,1.122979536,49.175410546,1.549793664c9.792479527,1.281428449,18.213413677,5.910011497,23.847283743,14.086405965l20.392506357,32.771425949c3.58386952,5.25083029,5.992602057,10.625413354,7.458728606,16.530546625l2.737176191,32.56812597,1.941823895,37.991057093c1.390149294,35.38444085,1.465917838,69.925779045.019260481,105.305841855l-2.016204302,32.982162109-2.497562844,26.496324823c-.301172564,8.126286916-1.750657058,15.740183921-4.981607873,23.171164536l-22.063699199,37.502629383c-6.738054463,9.808561252-16.883777685,16.232491815-28.902574093,17.382664565l-26.638122167,1.016725728-45.093660934,1.030921855-70.052223918.927014527Z"/>
            <path class="cls-9" d="M428.318172057,510.452001126l-62.494791911,1.282114972-101.323604904-.008264837-79.863305409-1.839975836-31.761473382-.947829052-8.210810371-2.357909893c-5.734705263-2.373745037-10.383685868-5.716910174-13.795371608-10.698638815-8.647318471-10.683902094-15.890411404-21.983353277-21.572489411-34.390795695-2.803279793-6.727703175-4.563203237-13.62411632-4.581797427-21.219991305l-1.938036063-25.699640238-2.184657193-52.211990219-.177283846-58.350094081c.067339535-11.843446998.54682205-23.049943173,1.290236107-34.855375284.435319758-14.535462445,1.124295304-28.512401053,2.511083111-42.978618892-.045715084-7.242483381,1.859560876-13.757993397,4.806464237-20.533570824,6.131766434-11.649379871,12.84988058-22.159955044,20.219617926-32.839756012,5.508935154-6.476793131,12.5409494-10.848084504,20.731010475-12.804585099,13.255160244-1.012699865,26.227903374-1.6053569,39.730948831-1.74533079l21.531218391-.561429011,48.182736454-.768084518,102.285338517.043156346,44.09740928.739781325,21.521690257.548391001,36.850442499,1.514486494c4.685022262.747706157,9.011374342,1.948213285,13.02722275,4.124389809,3.73924672,1.887846692,6.925232656,4.302690867,9.402344719,7.847670732l19.069632774,32.617629762c2.672070484,5.429764216,4.486443375,10.962078894,5.097145505,16.93544641l1.703956774,29.431818866,1.320247175,28.936578448.800223989,33.551688332-.049140097,49.168147635c-.041970308,20.755553775-.890174896,40.709155917-2.204537129,61.387099714l-2.104411687,26.631682773c-.758541299,5.147503812-2.663385631,9.720686619-4.949050494,14.297792273l-15.346584823,25.643873213c-4.021274616,6.305679105-9.025069174,11.398337765-15.410247174,15.109183293-5.453892298,3.108615143-11.287133709,4.253135343-17.515792313,4.15629194l-28.695584532.844657061Z"/>
            <path class="cls-3" d="M448.373000025,502.637419135l-93.755009509,2.036673929-90.136574443-.067496215-78.819114496-1.802327844-32.748452805-1.211228526c-6.29217519-1.506400337-11.817581709-4.002741757-15.587883146-9.015041831-8.253500701-10.212488084-15.340143779-20.850979772-20.890925955-32.660020288-3.173026563-6.845546544-4.667971124-14.024460557-4.718613306-21.764069276l-1.896801023-24.635820675-2.045981867-52.196490421.024090083-69.605331683,2.025213313-47.132476959,1.669365101-21.50562642c.561255202-5.848425156,2.348375153-11.107022045,4.921595098-16.158845927,5.740834221-10.469237973,11.895408191-20.306227309,18.794009711-30.111350727,4.487584881-4.912164472,9.90645677-8.457508843,16.628602685-9.871293526l56.296301933-2.04159258,52.308199071-.844617975,102.066163628.108234458,45.362630652.729524423,55.091166592,1.949165045c3.079395928.393435918,5.706979083,1.025492335,8.388014543,2.23685241,3.821204411,1.395833932,6.915051836,3.5561561,9.403358486,6.743202878,7.160415585,11.346631444,13.764444777,22.42507658,19.734935191,34.143373934,2.100295196,5.19191582,3.348417446,10.409266875,3.439275756,16.203614053l1.433415324,24.562721936,1.702413678,37.967291477-.003433363,98.178945905-2.132293769,43.08133696-1.859273076,20.408102488c-.731425586,3.265005733-1.868575489,6.196430016-3.182886592,9.330556006l-18.454341592,30.439859568c-4.534769421,5.579721187-10.018357985,9.898525298-17.199608795,11.737659457-5.114449884.761956977-9.789993549.784943003-15.857557105.766515945Z"/>
            <path class="cls-12" d="M256.284174458,172.893866654h87.050704449l43.000259588.00986643c1.050868627-.146203938,1.881347417-.237983915,2.285587519.988740722l5.920449628.025541643h9.217133412l29.290172444.049223493c1.675102497,1.928645242,3.870704298.623891536,5.530109336.974925302h8.193007478c3.22653473.333826922,6.527480091-.684672645,10.186417212.51619144,2.557224102-.478852041,5.363283718-.516139354,8.256367199.955562535,4.212380876,1.195444728,7.425594167,4.03262564,9.728974754,7.440501805l16.466042068,26.785176447c1.682285647,3.342437822,2.763657235,6.59832769,2.495301159,10.048930087,1.778387011,1.093965122.808002574,2.793894677.980034361,4.442035725.332673969,1.960475416-.846611357,4.022067966.961292887,5.487620056l.10921394,14.738497014c1.187112693.428936202,1.170552802,1.249531558.964725348,2.274808788l.033801872,11.290877265.027227145,6.992918669c.547373969.222978286.843365832.254072595.99689879.176122894v27.652017456c.198666094,1.711374528-.754919166,3.349810241,1.011729938,4.504230456l.03670817,84.626146368c-.568094394,1.226763789-1.464123694,1.928926309-1.048438109,3.043014695v25.603719866c-2.014939946.568920825-.687202635,2.835925826-1.024125935,4.096595179l-.053889848,9.926460456c-1.610069177.929558367-.869298416,2.351146967-.970236087,3.387473874l-.019087204,6.940851169c-.717653308.273112836-1.089543958.594235557-1.042270618,1.184781607l.037231887,6.212450349c.235608932,1.714160608.076252687,2.902941749-1.335113573,3.908310824.930647334,1.970597186.020369064,2.983427059-.725645838,4.161723155-.269156058,2.184794033-1.036132208,3.804464892-1.63111427,5.51987078-.388312396.924539039-1.010158795,1.642783514-1.334524006,2.791629487l-16.167551321,25.805860067c-2.32937539,2.270631655-4.442043933,4.363920198-7.443449064,5.54909865-2.646775396.712122979-4.800823237,2.563191965-7.318951801,1.777259151-2.343621803-.838424388-4.52378007-.071884915-7.116203137-.426734989-.601986421-.003803491-.925320041.375653321-1.20689554,1.087281271l-13.071603793.008992543h-11.265385282c-1.128962473-.145029685-1.851715034-.201731926-2.313466231,1.023403842l-33.530941484.000744953c-6.494442411.6968145-13.407934759-1.388680279-19.458392759,1.024148795l-114.378569523.000230637c-.546920561-1.210194781-1.301557201-1.212129143-2.344915221-.97712336l-7.195753355-.047256071h-14.337763086l-20.229476404-.002736656c-.420281312-1.228312275-1.258917373-1.183993095-2.317942524-.98442192l-39.891647827-.671402561-14.99319548-.714848696c-3.913664166-1.021930668-7.448841927-2.051554129-10.61690819-4.818512898-6.350035292-8.588978036-12.200513734-17.01114049-16.97238576-26.205125928-.739248446-2.45637739-1.935965924-4.506891785-3.386436184-6.975497442-.035328236-1.177793-.059108139-2.543560212-1.472510122-3.462478755.523537398-1.635911458.762938208-2.81205453-.667256563-3.568653113l-.173698053-7.566696192c-1.683160863-1.298434854-.679843815-3.091062077-.908269776-4.430255929v-3.072446384c-.050672353-1.39682042.541794316-2.618591193-.988043978-3.371876575l-.036081956-9.942057756-.052898993-3.944755997c-.532873385-.197362147-.818293701-.22348907-.971226942-.151839181v-17.410529509c-.305719542-2.015196278.885266492-4.016391919-.959690453-5.500734866l-.064435481-18.054687411.069834799-3.128380589c-.056222599-.874017848-.657734216-1.13122659-1.093960734-.968214589l-.003381176-76.764060408c-.112244943-.71489276.293938139-1.040570508,1.022869519-1.318274551l.004637591-17.163502944v-16.386380714c2.439356472-3.376120322.226978475-7.916401957,1.155957289-12.326012831-.264917453-.89359726.889977736-1.103216181.969734409-1.915812724l-.077439829-8.289447927c.105453888-1.852436882-.233802615-3.32699084.175666231-4.817353146,1.533454795-1.356160021.845383406-3.255278701.609227161-4.604281312.11779413-3.900627771.739947236-7.983663567,2.472117395-11.809726537,1.151092911-1.723484103,2.164966467-3.400799903,2.644217202-5.517825229,4.843604079-9.128396868,10.062051634-17.876782256,16.36858592-26.485304697,3.332830905-4.024984649,7.231567803-5.732888172,11.96613201-6.91256005l22.11975377-.327734309c.630364815.177248131.957919689-.234777918,1.235819896-.96648073l12.049043974-.00766167h15.36188902c1.13120666.145836306,1.844494891.197765908,2.326765333-1.024085965l48.879531402-.00006283Z"/>
            <g>
              <rect class="cls-9" x="131.340810424" y="222.351380272" width="352.484781842" height="5.782011921"/>
              <path class="cls-9" d="M479.70045043,457.850851638l-110.57723841-.008195276c-1.37426471-.741849257-1.299509068-1.893648575-1.048422998-3.314267535-.301877207-1.239553354-.091411428-2.140298376,1.057153382-3.064081796l114.779548818.103531597c-.559416611,3.223679102-2.128083493,3.906509633-4.211040791,6.28301301Z"/>
              <path class="cls-9" d="M246.622228114,457.794181273l-110.133357628.086577752c-2.531783189-1.172418875-4.167807274-2.63252296-5.248385869-6.292299453l114.997476931-.141069578c1.396751054,1.647015311,1.00500968,3.890546216.384266566,6.346791279Z"/>
              <path class="cls-5" d="M161.093882804,441.347144159l-14.64205239-2.048775961c-.745374121-.390093181-1.514137775-.704908579-.731075085-1.286311798l15.293538207-2.590410436c.926967422,1.820500055,1.017266088,3.488545288.079589268,5.925498194Z"/>
              <path class="cls-5" d="M157.4209349,249.689678806c-5.329120571-1.099560221-9.845594342-.482000569-14.005289207-2.586902803,5.380859217-1.241499092,10.049518995-1.337382964,14.820460489-2.757122656.612957649-.021032071,1.123933637-.029868005,1.807629319.128282149.315978912.234503464.754995194,1.005986666.657644488,2.173706593.079365631.976933242.076066081,1.641531377-.256852525,2.5546516-.074628699.49730392-1.199164378.91714228-3.023592564.487385117Z"/>
              <path class="cls-5" d="M470.488978051,439.379334019c-4.818139044.458537842-8.837564164.911929111-13.861189108,1.95293484-1.191493717-1.755763354-.955447527-3.877709403-.063352558-5.857164881l15.465839306,2.579696234c-.062053864.776457355-.817874419.954650082-1.541297639,1.324533806Z"/>
              <g>
                <path class="cls-9" d="M354.047932366,485.116155556c-2.371707839,1.885533109-4.838718531,2.65131427-7.730305382,3.179000894l-77.658002956-.005162908c-4.051850412-.559680892-7.232659181-2.33170021-9.789706875-5.634617209-2.984575477-2.676989051-5.572131497-5.197350384-7.547912872-8.619093401l-.125993856-16.438708744c.126043164-4.220093828,2.66681622-7.674998374,7.134142209-8.283661909l98.15362349.014524603c4.277532485.774869721,6.958169832,3.999869033,7.32735151,8.256419617l.082900386,14.358585553c-.099745513,2.387614063-.990187016,4.278620756-2.598136888,5.80057072l-7.247958766,7.372142783Z"/>
                <g>
                  <path class="cls-12" d="M346.328331452,484.51277345l-76.655074822.02800468c-1.994016782-.129592194-3.618836383-.439821941-5.326841073-1.391055382l-6.970495441-6.889763172c-1.219425137-1.1439713-2.099101908-2.47859262-2.601412817-4.292398056l.045103343-14.353436599c.175987047-2.733658915,1.689738347-4.64459581,4.624913996-4.745469414l95.066983918.006512033c3.505262753-.133905516,5.387720736,2.013375996,5.928796537,5.022910576l.120959353,13.029806772c.023254666,1.583423052-.530507136,2.73808985-1.35208967,3.824830094l-6.986168159,7.104566628c-1.553175116,1.670768029-3.439183295,2.380506398-5.894675167,2.65549184Z"/>
                  <path class="cls-1" d="M307.159066496,459.606953366c.847214497-1.18325871,2.043089161-1.012326661,3.600235131-.966992963,1.472630789-.23818295,1.718204793.769650958,1.494674388,1.823086013l-8.074753135,14.64755376c-.8904682,1.407886977-2.177976474,2.232621155-3.85901645,1.830949062-2.520872157.651694956-4.332976246-.781516104-4.485168755-3.16165791l-3.245747932-9.344232947c-.79426003-.441200085-1.150488397-.442289105-1.711485156.021661114l-5.757014473,11.862081209c-1.954936387,1.148095207-4.568159093,1.039682041-6.728091348.076082312l-7.09552808-16.857119631c1.624272145-1.448220815,3.481192619-.986226614,5.286257511-.564396497,1.631232168,3.64330731,2.70511007,7.018147877,4.004859811,10.994933551.428195177.80785748.725940395,1.344824346.885822164,1.819958811.86311428.314057459,1.595863541-.223928584,2.006184321-1.136118507l5.449155512-11.215826026c1.843381285-1.172233196,4.299670649-1.291735883,6.174876839.074846207l3.796064503,10.8386455c.86765551.934474056,1.813236041.752746747,2.486772536-.395109824l5.771902612-10.348343233Z"/>
                  <g>
                    <path class="cls-1" d="M335.981438494,476.762787631c-1.585829075-1.957444999-2.573824093-3.398033844-4.118919795-4.811831303-4.03675346-.337596607-7.869409144-.337026391-11.888895912-.009195955-1.399748128,1.565518932-2.359923343,2.947996246-3.550131481,4.751311002-1.501318365.538479783-2.923165593.285202017-4.975460035.342382064-.464830636-.426036531-.289108613-1.134747313-.215127562-1.815310245l9.247232668-16.617086251,21.817487977.117464156c2.392825402.765872565,3.835361223,2.54031644,3.36763354,5.02383916-.117995835,2.860085833-1.690018089,4.802008532-4.438028499,5.886592018-1.282409474.568898351-2.425148488.852905958-2.861527168,2.298432904l3.183545819,4.373128659c-1.623515438,1.177070373-3.408769275.817158923-5.567809552.46027379Z"/>
                    <path class="cls-12" d="M337.957593419,462.420781796c2.01817691,2.027331539.746383686,3.766106013-1.051729999,5.205773051l-13.101666242.102610237c-1.294411139-.632487049-1.493036939-1.670192115-.714082346-2.629378406.437890783-1.370290848,1.238549769-2.359394818,2.793574963-2.747282812l12.073903624.06827793Z"/>
                  </g>
                </g>
              </g>
              <g>
                <path class="cls-6" d="M427.123713501,305.950541699c-.604355789,4.129375456-5.205477742,1.444813783-1.822474106-1.056403481,1.795147006-2.772464774,4.839060236-1.181638434,1.822474106,1.056403481Z"/>
                <path class="cls-6" d="M281.80668791,299.852030669c-.486723398,4.10065087-4.061337974,1.156103249-1.07857013-.862875364-.467689561-3.855543707,4.333305694-1.535361583,1.07857013.862875364Z"/>
                <path class="cls-6" d="M280.681768331,288.691221658c-2.763610113-1.710376867-.868921952-3.765312486,1.094665859-1.18139039,2.743765799,1.847375003.622846562,3.950772102-1.094665859,1.18139039Z"/>
                <path class="cls-6" d="M445.536347895,417.979752557l-275.057901963-.00236847c-8.544116565-.764287772-14.383367245-6.399950796-15.015302226-14.733869326l.001083502-118.615084432c-.108087886-8.98327095,5.851918696-15.393190101,15.018976506-16.272812155l275.883707668.007596286c8.011390804.867629786,13.880143656,6.264268917,14.779363955,14.168076828l.001143494,121.67842052c-1.432007792,8.156596013-7.194239007,13.347369566-15.611070935,13.770040749Z"/>
                <path class="cls-6" d="M280.681768331,288.691221658c2.467146107,1.440227102,2.138400765,8.558772443.04634945,10.297933647l-1.174485239,2.172740518c-1.124562261.278835793-13.022436723.013604399-13.229853518-.620778926-.161482409-.493893215-.102170185-1.059980256.020226221-1.646694105-2.997619286-1.619174058-2.453660837-8.618330553.374952357-10.225360603,3.845537692-2.480349112,10.144247946-2.528010654,13.962810729.022159469Z"/>
              </g>
            </g>
          </g>
        </g>
      </g>
    </g>
    <g>
      <path class="cls-13" d="M206.7614213,196.53166407v.640625c0,9.334960938-.48046875,9.841796875-12.936523438,9.841796875-12.482421875,0-12.989257812-.506835938-12.989257812-9.841796875,0-9.3359375.533203125-9.842773438,12.989257812-9.842773438,9.842773438,0,12.215820312.3203125,12.776367188,5.094726562.052734375.453125-.293945312.827148438-.720703125.827148438h-4.827148438c-.213867188,0-.426757812-.107421875-.560546875-.293945312-.74609375-.959960938-2.533203125-.959960938-6.694335938-.959960938q-7.254882812,0-7.254882812,5.174804688,0,5.173828125,7.28125,5.173828125c4.694335938,0,6.348632812,0,6.934570312-1.413085938.1875-.454101562-.159179688-.987304688-.666015625-.987304688h-8.72265625c-.399414062,0-.719726562-.3203125-.719726562-.719726562v-2.66796875c0-.399414062.3203125-.74609375.719726562-.74609375h14.669921875c.400390625,0,.720703125.346679688.720703125.719726562Z"/>
      <path class="cls-13" d="M222.262397863,207.014085945c-12.482421875,0-12.989257812-.506835938-12.989257812-9.841796875,0-9.3359375.533203125-9.842773438,12.989257812-9.842773438,12.4296875,0,12.936523438.506835938,12.936523438,9.842773438,0,9.334960938-.48046875,9.841796875-12.936523438,9.841796875ZM214.981147863,197.17228907q0,5.173828125,7.28125,5.173828125c7.254882812,0,7.228515625,0,7.228515625-5.147460938,0-5.201171875.026367188-5.201171875-7.254882812-5.201171875q-7.254882812,0-7.254882812,5.174804688Z"/>
      <path class="cls-13" d="M262.914741613,200.292406258c.426757812,0,.747070312.346679688.720703125.7734375-.400390625,5.6015625-2.427734375,5.948242188-12.856445312,5.948242188-12.482421875,0-12.989257812-.506835938-12.989257812-9.841796875,0-9.3359375.533203125-9.842773438,12.989257812-9.842773438,10.40234375,0,12.456054688.346679688,12.856445312,5.948242188.026367188.426757812-.293945312.799804688-.720703125.799804688h-4.454101562c-.3203125,0-.61328125-.212890625-.693359375-.506835938-.533203125-1.573242188-2.133789062-1.573242188-7.014648438-1.573242188q-7.254882812,0-7.254882812,5.174804688,0,5.173828125,7.28125,5.173828125c4.854492188,0,6.455078125,0,6.98828125-1.546875.106445312-.3203125.373046875-.506835938.693359375-.506835938h4.454101562Z"/>
      <path class="cls-13" d="M285.990913488,187.83635157h4.240234375c.400390625,0,.720703125.3203125.720703125.720703125v17.23046875c0,.399414062-.3203125.719726562-.720703125.719726562h-4.240234375c-.400390625,0-.720703125-.3203125-.720703125-.719726562v-5.815429688c0-.399414062-.346679688-.719726562-.747070312-.719726562h-11.921875c-.400390625,0-.720703125.3203125-.720703125.719726562v5.815429688c0,.399414062-.319335938.719726562-.719726562.719726562h-4.267578125c-.400390625,0-.720703125-.3203125-.720703125-.719726562v-17.23046875c0-.400390625.3203125-.720703125.720703125-.720703125h4.267578125c.400390625,0,.719726562.3203125.719726562.720703125v5.814453125c0,.400390625.3203125.719726562.720703125.719726562h11.921875c.400390625,0,.747070312-.319335938.747070312-.719726562v-5.814453125c0-.400390625.3203125-.720703125.720703125-.720703125Z"/>
    </g>
    <g>
      <path class="cls-2" d="M362.103710153,190.969083398h-16.408017661c-.536916817,0-1.02174469.403689323-1.129929421.951624956l-2.205766477,12.6075281c-.058099208.290496039.011018815.581993789.189323281.799364963.178304465.216369464.448766295.340581563.743269176.340581563h3.106304198c.560957869,0,1.058807977-.425726954,1.129929421-.949621535l.759296544-4.269290065c.012020526-.057097497.080136838-.114194995.122208679-.114194995h11.87627945c.536916817,0,1.02174469-.403689323,1.129929421-.949621535l.35460551-1.995407276c.039066709-.289494329-.044075261-.574981815-.226386568-.784339306-.183313018-.20835578-.442756032-.323552485-.73124865-.323552485h-11.787127217l.121206968-.735255492c.014023947-.069118023.090153943-.132225783.122208679-.134229204h12.227879828c.534913396,0,1.019741269-.403689323,1.129929421-.947618114l.432738927-2.388077784c.039066709-.289494329-.044075261-.574981815-.226386568-.784339306-.183313018-.20835578-.441754322-.323552485-.73024694-.323552485Z"/>
      <path class="cls-2" d="M375.276202964,196.164955658h-9.882875595c-.554947606,0-1.06381653.43774748-1.129929421.951624956l-.388663666,2.213780161c-.058099208.290496039.010017105.581993789.18832157.800366673.178304465.217371174.448766295.341583274.743269176.341583274h9.884879016c.560957869,0,1.058807977-.426728664,1.129929421-.951624956l.388663666-2.215783582c.058099208-.290496039-.012020526-.580992078-.190324991-.798363252s-.448766295-.341583274-.743269176-.341583274Z"/>
      <path class="cls-2" d="M389.77496045,190.598450521c-6.765552581,0-9.853825991,0-10.662206348,4.564794657-.343586695,1.939311489-.192328412,3.167408537.489836425,3.980797447.849450487,1.012729295,2.375055548,1.21106797,4.723064913,1.21106797,4.641926364,0,6.919815995-.090153943,8.603691312-.343586695-.048082103.246420778-.098167627.489836425-.172294203.714219572-.213364332.803371805-.231395121.869484697-4.935427534.869484697-2.52531212,0-4.194161779,0-4.430565453-.25142933-.040068419-.502858661-.444759453-.881505222-.940606141-.881505222h-3.223504324c-.549939053,0-1.058807977.444759453-1.132934553.987686533-.226386568,1.600733347-.06310776,2.582409617.543928791,3.282605243,1.134937974,1.306230466,3.629197069,1.306230466,8.598682759,1.306230466,8.894187351,0,9.824776387,0,11.189106061-7.631030436.593012604-3.363743792.880503512-5.324091201-.107183021-6.501101015-1.097874686-1.308233887-3.430858394-1.308233887-8.543588683-1.308233887ZM384.245518601,195.749245809c.113193284-.657122075.233398542-.707207599,4.924408719-.707207599,2.594430143,0,4.308356774,0,4.543758737.20935749.003005131.011018815.018030789.076129996-.027046183.315538801l-.00100171.008013684c-.114194995.654116943-.123210389.707207599-4.92641214.707207599-2.593428432,0-4.307355064,0-4.541755316-.191326702-.006010263-.02003421-.015025657-.093159075.028047893-.341583274Z"/>
      <path class="cls-2" d="M409.883296624,190.969083398h-3.495969575c-.201343806,0-.388663666.051087234-.528903133.136232625l-3.845566532,2.001417539c-.52189116.297508013-.75228457.913559958-.534913396,1.380357041l.816394041,2.023455169c.098167627.253432751.301514854.450769716.558954448.54292708.276472092.097165917.589005762.066112892.839433382-.076129996l1.174004682-.700195625-1.443464802,8.250087512c-.058099208.289494329.010017105.580992078.18832157.798363252s.449768005.342584984.744270887.342584984h3.125336697c.525898002,0,1.020742979-.421720112,1.129929421-.970657455l1.698900974-9.70557284.530906554-2.914977497c.039066709-.289494329-.044075261-.574981815-.226386568-.784339306-.183313018-.20835578-.442756032-.323552485-.73124865-.323552485Z"/>
      <path class="cls-2" d="M438.61736174,191.441890745c-.169289071-.296506302-.481822741-.472807347-.836428251-.472807347h-3.04720328c-.428732085,0-.83542654.261446435-1.00171048.62707076l-3.921696529,7.494797811c-.025042762.045076972-.057097497.066112892-.071121444.090153943l-1.259150073-7.441707155c-.08414368-.453774847-.468800505-.770315359-.934595878-.770315359h-3.02716907c-.428732085,0-.83542654.261446435-1.00171048.62707076l-3.922698239,7.494797811c-.025042762.045076972-.057097497.066112892-.071121444.090153943l-1.258148363-7.438702024c-.08314197-.455778268-.466797084-.77332049-.934595878-.77332049h-3.04720328c-.331566169,0-.650110101.153261703-.874493249.419716691-.216369464.257439593-.309528538.578988657-.255436172.886513775l2.246836606,12.622553757c.085145391.460786821.468800505.770315359.953628377.770315359h4.102004415c.411703007,0,.810383778-.242413936,1.019741269-.624065629l3.239531692-6.109432217c.017029078-.031053025.038064998-.051087234.057097497-.06310776l1.077840476,6.023285116c.08414368.462790242.467798794.77332049.954630087.77332049h4.081970206c.420718402,0,.810383778-.238407094,1.018739558-.624065629l6.689422585-12.599514416c.190324991-.322550775.198338675-.697190494.023039341-1.00271219Z"/>
    </g>
    <g>
      <path class="cls-11" d="M168.7223588,243.818773445h1.599609375v5.690429688h5.865234375v1.497070312h-7.46484375v-7.1875Z"/>
      <path class="cls-11" d="M178.169624425,251.006273445v-7.1875h1.599609375v7.1875h-1.599609375Z"/>
      <path class="cls-11" d="M190.845405675,247.048265633v3.958007812h-1.466796875v-.881835938c-.697265625.584960938-1.72265625.984375-3.137695312.984375-2.994140625,0-4.541992188-1.405273438-4.541992188-3.69140625,0-2.368164062,1.547851562-3.702148438,4.541992188-3.702148438,3.240234375,0,4.532226562,1.1484375,4.604492188,2.830078125h-1.72265625c-.072265625-.54296875-.369140625-1.404296875-2.881835938-1.404296875-2.563476562,0-2.901367188,1.42578125-2.901367188,2.276367188,0,.872070312.41015625,2.266601562,2.901367188,2.266601562,1.958007812,0,2.666015625-.90234375,2.778320312-1.364257812h-2.7578125v-1.271484375h4.583984375Z"/>
      <path class="cls-11" d="M192.786811925,243.818773445h1.599609375v2.860351562h5.978515625v-2.860351562h1.599609375v7.1875h-1.599609375v-2.861328125h-5.978515625v2.861328125h-1.599609375v-7.1875Z"/>
      <path class="cls-11" d="M203.650093175,245.314867195v-1.49609375h9.07421875v1.49609375h-3.732421875v5.69140625h-1.599609375v-5.69140625h-3.7421875Z"/>
    </g>
    <g>
      <path class="cls-2" d="M255.8551713,249.87541407l4.225585938-9.541992188c.294921875-.67578125.814453125-1.056640625,1.55859375-1.056640625h.15625c.745117188,0,1.247070312.380859375,1.541015625,1.056640625l4.225585938,9.541992188c.086914062.208007812.138671875.380859375.138671875.537109375,0,.709960938-.553710938,1.28125-1.263671875,1.28125-.624023438,0-1.022460938-.36328125-1.282226562-.91796875l-.813476562-1.904296875h-5.333984375l-.848632812,1.991210938c-.225585938.537109375-.67578125.831054688-1.229492188.831054688-.693359375,0-1.23046875-.553710938-1.23046875-1.24609375,0-.19140625.069335938-.381835938.15625-.572265625ZM263.354194738,246.51603907l-1.6796875-4.000976562-1.6796875,4.000976562h3.359375Z"/>
      <path class="cls-2" d="M269.797554113,240.696703133c0-.745117188.588867188-1.333007812,1.333007812-1.333007812.745117188,0,1.333984375.587890625,1.333984375,1.333007812v8.46875h4.935546875c.67578125,0,1.211914062.537109375,1.211914062,1.212890625,0,.674804688-.536132812,1.211914062-1.211914062,1.211914062h-6.26953125c-.744140625,0-1.333007812-.588867188-1.333007812-1.333984375v-9.559570312Z"/>
      <path class="cls-2" d="M279.841499425,249.87541407l4.225585938-9.541992188c.294921875-.67578125.814453125-1.056640625,1.55859375-1.056640625h.15625c.745117188,0,1.247070312.380859375,1.541015625,1.056640625l4.225585938,9.541992188c.086914062.208007812.138671875.380859375.138671875.537109375,0,.709960938-.553710938,1.28125-1.263671875,1.28125-.624023438,0-1.022460938-.36328125-1.282226562-.91796875l-.813476562-1.904296875h-5.333984375l-.848632812,1.991210938c-.225585938.537109375-.67578125.831054688-1.229492188.831054688-.693359375,0-1.23046875-.553710938-1.23046875-1.24609375,0-.19140625.069335938-.381835938.15625-.572265625ZM287.340522863,246.51603907l-1.6796875-4.000976562-1.6796875,4.000976562h3.359375Z"/>
      <path class="cls-2" d="M293.783882238,240.800218758c0-.744140625.588867188-1.333007812,1.333007812-1.333007812h4.208984375c1.541015625,0,2.71875.416015625,3.533203125,1.229492188.692382812.692382812,1.0390625,1.610351562,1.0390625,2.771484375v.034179688c0,1.922851562-.953125,3.083007812-2.424804688,3.688476562l1.852539062,2.251953125c.259765625.329101562.43359375.606445312.43359375,1.021484375,0,.745117188-.624023438,1.229492188-1.264648438,1.229492188-.606445312,0-.987304688-.293945312-1.31640625-.692382812l-2.59765625-3.290039062h-2.129882812v2.649414062c0,.744140625-.588867188,1.333007812-1.333984375,1.333007812-.744140625,0-1.333007812-.588867188-1.333007812-1.333007812v-9.560546875ZM299.1520463,245.35588282c1.31640625,0,2.043945312-.67578125,2.043945312-1.71484375v-.03515625c0-1.16015625-.779296875-1.731445312-2.095703125-1.731445312h-2.649414062v3.481445312h2.701171875Z"/>
      <path class="cls-2" d="M306.305366613,240.731859383c0-.745117188.588867188-1.333984375,1.333007812-1.333984375h.294921875c.571289062,0,.952148438.293945312,1.211914062.692382812l3.221679688,5.248046875,3.23828125-5.264648438c.27734375-.450195312.67578125-.67578125,1.1953125-.67578125h.293945312c.745117188,0,1.333984375.588867188,1.333984375,1.333984375v9.62890625c0,.744140625-.588867188,1.333007812-1.333984375,1.333007812-.744140625,0-1.31640625-.588867188-1.31640625-1.333007812v-6.043945312l-2.337890625,3.6015625c-.276367188.416015625-.623046875.67578125-1.108398438.67578125-.484375,0-.831054688-.259765625-1.108398438-.67578125l-2.302734375-3.549804688v6.026367188c0,.745117188-.572265625,1.298828125-1.31640625,1.298828125-.745117188,0-1.298828125-.553710938-1.298828125-1.298828125v-9.663085938Z"/>
      <path class="cls-2" d="M325.996772863,245.56291407v-.034179688c0-3.446289062,2.59765625-6.26953125,6.321289062-6.26953125,1.818359375,0,3.030273438.485351562,4.052734375,1.229492188.27734375.208007812.51953125.588867188.51953125,1.056640625,0,.745117188-.571289062,1.298828125-1.31640625,1.298828125-.36328125,0-.606445312-.138671875-.796875-.259765625-.744140625-.553710938-1.506835938-.866210938-2.4765625-.866210938-2.04296875,0-3.515625,1.697265625-3.515625,3.776367188v.034179688c0,2.078125,1.4375,3.810546875,3.515625,3.810546875,1.125976562,0,1.87109375-.346679688,2.6328125-.953125.224609375-.190429688.501953125-.293945312.796875-.293945312.674804688,0,1.247070312.553710938,1.247070312,1.229492188,0,.415039062-.19140625.744140625-.451171875.952148438-1.090820312.953125-2.372070312,1.524414062-4.311523438,1.524414062-3.568359375,0-6.217773438-2.75390625-6.217773438-6.235351562Z"/>
      <path class="cls-2" d="M339.315132238,240.696703133c0-.745117188.588867188-1.333007812,1.333007812-1.333007812.745117188,0,1.333984375.587890625,1.333984375,1.333007812v3.567382812h4.91796875v-3.567382812c0-.745117188.588867188-1.333007812,1.333984375-1.333007812.744140625,0,1.333007812.587890625,1.333007812,1.333007812v9.6640625c0,.744140625-.588867188,1.333007812-1.333007812,1.333007812-.745117188,0-1.333984375-.588867188-1.333984375-1.333007812v-3.63671875h-4.91796875v3.63671875c0,.744140625-.588867188,1.333007812-1.333984375,1.333007812-.744140625,0-1.333007812-.588867188-1.333007812-1.333007812v-9.6640625Z"/>
      <path class="cls-2" d="M352.477241613,240.800218758c0-.744140625.588867188-1.333007812,1.333007812-1.333007812h4.208984375c1.541015625,0,2.71875.416015625,3.533203125,1.229492188.692382812.692382812,1.0390625,1.610351562,1.0390625,2.771484375v.034179688c0,1.922851562-.953125,3.083007812-2.424804688,3.688476562l1.852539062,2.251953125c.259765625.329101562.43359375.606445312.43359375,1.021484375,0,.745117188-.624023438,1.229492188-1.264648438,1.229492188-.606445312,0-.987304688-.293945312-1.31640625-.692382812l-2.59765625-3.290039062h-2.129882812v2.649414062c0,.744140625-.588867188,1.333007812-1.333984375,1.333007812-.744140625,0-1.333007812-.588867188-1.333007812-1.333007812v-9.560546875ZM357.845405675,245.35588282c1.31640625,0,2.043945312-.67578125,2.043945312-1.71484375v-.03515625c0-1.16015625-.779296875-1.731445312-2.095703125-1.731445312h-2.649414062v3.481445312h2.701171875Z"/>
      <path class="cls-2" d="M364.461616613,245.56291407v-.034179688c0-3.446289062,2.71875-6.26953125,6.459960938-6.26953125,3.740234375,0,6.424804688,2.788085938,6.424804688,6.235351562v.034179688c0,3.446289062-2.71875,6.26953125-6.459960938,6.26953125-3.740234375,0-6.424804688-2.788085938-6.424804688-6.235351562ZM374.5582963,245.56291407v-.034179688c0-2.078125-1.524414062-3.810546875-3.671875-3.810546875s-3.63671875,1.697265625-3.63671875,3.776367188v.034179688c0,2.078125,1.524414062,3.810546875,3.671875,3.810546875s3.63671875-1.697265625,3.63671875-3.776367188Z"/>
      <path class="cls-2" d="M379.719429113,240.731859383c0-.745117188.588867188-1.333984375,1.333007812-1.333984375h.27734375c.640625,0,1.021484375.311523438,1.385742188.779296875l5.143554688,6.75390625v-6.251953125c0-.744140625.571289062-1.315429688,1.31640625-1.315429688.744140625,0,1.315429688.571289062,1.315429688,1.315429688v9.646484375c0,.745117188-.588867188,1.333984375-1.333007812,1.333984375h-.086914062c-.640625,0-1.021484375-.311523438-1.385742188-.779296875l-5.333984375-6.997070312v6.495117188c0,.744140625-.571289062,1.315429688-1.31640625,1.315429688-.744140625,0-1.315429688-.571289062-1.315429688-1.315429688v-9.646484375Z"/>
      <path class="cls-2" d="M392.864936925,245.56291407v-.034179688c0-3.446289062,2.71875-6.26953125,6.459960938-6.26953125,3.740234375,0,6.424804688,2.788085938,6.424804688,6.235351562v.034179688c0,3.446289062-2.71875,6.26953125-6.459960938,6.26953125-3.740234375,0-6.424804688-2.788085938-6.424804688-6.235351562ZM402.961616613,245.56291407v-.034179688c0-2.078125-1.524414062-3.810546875-3.671875-3.810546875s-3.63671875,1.697265625-3.63671875,3.776367188v.034179688c0,2.078125,1.524414062,3.810546875,3.671875,3.810546875s3.63671875-1.697265625,3.63671875-3.776367188Z"/>
      <path class="cls-2" d="M407.58564005,245.56291407v-.034179688c0-3.446289062,2.684570312-6.26953125,6.35546875-6.26953125,1.853515625,0,3.03125.416015625,4.139648438,1.177734375.259765625.190429688.553710938.537109375.553710938,1.07421875,0,.744140625-.571289062,1.315429688-1.315429688,1.315429688-.3984375,0-.624023438-.137695312-.814453125-.276367188-.744140625-.537109375-1.489257812-.83203125-2.649414062-.83203125-1.939453125,0-3.481445312,1.71484375-3.481445312,3.776367188v.034179688c0,2.216796875,1.524414062,3.844726562,3.671875,3.844726562.987304688,0,1.8359375-.2421875,2.510742188-.727539062v-1.731445312h-1.80078125c-.640625,0-1.16015625-.502929688-1.16015625-1.143554688s.51953125-1.16015625,1.16015625-1.16015625h3.047851562c.745117188,0,1.333984375.588867188,1.333984375,1.333984375v2.943359375c0,.762695312-.311523438,1.333984375-.935546875,1.697265625-.987304688.606445312-2.424804688,1.212890625-4.243164062,1.212890625-3.775390625,0-6.373046875-2.6328125-6.373046875-6.235351562Z"/>
      <path class="cls-2" d="M421.700874425,240.800218758c0-.744140625.588867188-1.333007812,1.333007812-1.333007812h4.208984375c1.541015625,0,2.71875.416015625,3.532226562,1.229492188.693359375.692382812,1.040039062,1.610351562,1.040039062,2.771484375v.034179688c0,1.922851562-.953125,3.083007812-2.424804688,3.688476562l1.852539062,2.251953125c.259765625.329101562.43359375.606445312.43359375,1.021484375,0,.745117188-.624023438,1.229492188-1.264648438,1.229492188-.606445312,0-.987304688-.293945312-1.31640625-.692382812l-2.59765625-3.290039062h-2.129882812v2.649414062c0,.744140625-.588867188,1.333007812-1.333984375,1.333007812-.744140625,0-1.333007812-.588867188-1.333007812-1.333007812v-9.560546875ZM427.069038488,245.35588282c1.31640625,0,2.043945312-.67578125,2.043945312-1.71484375v-.03515625c0-1.16015625-.779296875-1.731445312-2.095703125-1.731445312h-2.649414062v3.481445312h2.701171875Z"/>
      <path class="cls-2" d="M433.54657755,249.87541407l4.225585938-9.541992188c.294921875-.67578125.814453125-1.056640625,1.55859375-1.056640625h.15625c.745117188,0,1.247070312.380859375,1.541015625,1.056640625l4.225585938,9.541992188c.086914062.208007812.138671875.380859375.138671875.537109375,0,.709960938-.553710938,1.28125-1.263671875,1.28125-.624023438,0-1.022460938-.36328125-1.282226562-.91796875l-.813476562-1.904296875h-5.333984375l-.848632812,1.991210938c-.225585938.537109375-.67578125.831054688-1.229492188.831054688-.693359375,0-1.23046875-.553710938-1.23046875-1.24609375,0-.19140625.069335938-.381835938.15625-.572265625ZM441.045600988,246.51603907l-1.6796875-4.000976562-1.6796875,4.000976562h3.359375Z"/>
      <path class="cls-2" d="M447.488960363,240.800218758c0-.744140625.588867188-1.333007812,1.333007812-1.333007812h3.620117188c2.891601562,0,4.641601562,1.697265625,4.641601562,4.19140625v.034179688c0,2.823242188-2.182617188,4.260742188-4.901367188,4.260742188h-2.026367188v2.407226562c0,.744140625-.588867188,1.333007812-1.333984375,1.333007812-.744140625,0-1.333007812-.588867188-1.333007812-1.333007812v-9.560546875ZM452.268257238,245.580492195c1.333984375,0,2.11328125-.796875,2.11328125-1.8359375v-.034179688c0-1.1953125-.831054688-1.8359375-2.165039062-1.8359375h-2.060546875v3.706054688h2.112304688Z"/>
      <path class="cls-2" d="M459.057319738,240.696703133c0-.745117188.588867188-1.333007812,1.333007812-1.333007812.745117188,0,1.333984375.587890625,1.333984375,1.333007812v3.567382812h4.91796875v-3.567382812c0-.745117188.588867188-1.333007812,1.333984375-1.333007812.744140625,0,1.333007812.587890625,1.333007812,1.333007812v9.6640625c0,.744140625-.588867188,1.333007812-1.333007812,1.333007812-.745117188,0-1.333984375-.588867188-1.333984375-1.333007812v-3.63671875h-4.91796875v3.63671875c0,.744140625-.588867188,1.333007812-1.333984375,1.333007812-.744140625,0-1.333007812-.588867188-1.333007812-1.333007812v-9.6640625Z"/>
    </g>
    <rect class="cls-4" x="149.496314065" y="261.88122177" width="317.639109866" height="162.954611211" rx="22.460575996" ry="22.460575996"/>
    <g>
      <path class="cls-11" d="M181.977241613,435.505296883v7.359375h-2.249023438v-4.53125l-2.765625,4.53125h-1.881835938l-2.764648438-4.53125v4.53125h-2.25v-7.359375h2.890625l3.0703125,5.014648438,3.059570312-5.014648438h2.890625Z"/>
      <path class="cls-11" d="M193.350288488,439.184984383c0,3.6796875-.189453125,3.879882812-5.098632812,3.879882812-4.920898438,0-5.120117188-.200195312-5.120117188-3.879882812s.209960938-3.87890625,5.120117188-3.87890625c4.8984375,0,5.098632812.19921875,5.098632812,3.87890625ZM191.100288488,437.14494532h-5.71875v4.080078125h5.71875v-4.080078125Z"/>
      <path class="cls-11" d="M204.720405675,439.184984383c0,3.479492188-.189453125,3.668945312-5.098632812,3.668945312l-5.120117188.010742188v-7.359375h5.120117188c4.899414062,0,5.098632812.200195312,5.098632812,3.6796875ZM202.470405675,437.345140633h-5.71875v3.6796875h5.71875v-3.6796875Z"/>
      <path class="cls-11" d="M208.102241613,441.024828133h7.275390625v1.829101562l-9.525390625.010742188v-7.359375h9.525390625v1.83984375h-7.275390625v1.01953125h7.0859375v1.640625h-7.0859375v1.01953125Z"/>
    </g>
    <g>
      <path class="cls-11" d="M178.1286088,463.44572657l-4.01171875,11.279296875h-4.01171875l-2.3046875-6.494140625-2.3046875,6.494140625h-3.99609375l-4.01171875-11.279296875h3.448242188l2.659179688,7.669921875,2.658203125-7.669921875h3.109375l2.659179688,7.669921875,2.659179688-7.669921875h3.447265625Z"/>
      <path class="cls-11" d="M189.0270463,472.87150782h-7.508789062l-1.014648438,1.853515625h-3.8515625l6.123046875-11.279296875h4.995117188l6.123046875,11.279296875h-3.850585938l-1.015625-1.853515625ZM187.673530675,470.357835945l-2.400390625-4.4140625-2.401367188,4.4140625h4.801757812Z"/>
      <path class="cls-11" d="M207.85126505,465.959398445h-6.1875v8.765625h-3.44921875v-8.765625h-6.1875v-2.513671875h15.82421875v2.513671875Z"/>
      <path class="cls-11" d="M212.431343175,471.904710945h11.150390625v2.8046875l-14.598632812.015625v-11.279296875h14.598632812v2.8203125h-11.150390625v1.5625h10.860351562v2.513671875h-10.860351562v1.5625Z"/>
      <path class="cls-11" d="M240.602241613,473.790453133v.934570312h-3.416015625v-2.69140625h-8.37890625v2.69140625h-3.448242188v-11.279296875h10.3125c4.415039062,0,4.930664062.38671875,4.930664062,4.286132812,0,1.67578125-.403320312,2.239257812-1.336914062,2.690429688.93359375.484375,1.336914062.693359375,1.336914062,3.368164062ZM237.169624425,466.26603907h-8.362304688v2.948242188h8.362304688v-2.948242188Z"/>
    </g>
    <g>
      <path class="cls-11" d="M390.287788488,473.790453133v.934570312h-3.416015625v-2.69140625h-8.37890625v2.69140625h-3.448242188v-11.279296875h10.3125c4.415039062,0,4.930664062.38671875,4.930664062,4.286132812,0,1.67578125-.403320312,2.239257812-1.336914062,2.690429688.93359375.484375,1.336914062.693359375,1.336914062,3.368164062ZM386.8551713,466.26603907h-8.362304688v2.948242188h8.362304688v-2.948242188Z"/>
      <path class="cls-11" d="M395.528999425,471.904710945h11.150390625v2.8046875l-14.598632812.015625v-11.279296875h14.598632812v2.8203125h-11.150390625v1.5625h10.860351562v2.513671875h-10.860351562v1.5625Z"/>
      <path class="cls-11" d="M423.732124425,471.276781258c0,3.448242188-1.41796875,3.754882812-7.798828125,3.754882812s-7.783203125-.291015625-7.783203125-3.802734375h3.46484375v.982421875h8.63671875v-1.869140625h-4.318359375c-6.380859375,0-7.637695312,0-7.637695312-3.448242188s1.385742188-3.754882812,7.653320312-3.754882812c6.251953125,0,7.622070312.37109375,7.622070312,3.802734375h-3.448242188v-.982421875h-8.37890625v1.869140625h4.189453125c6.4609375,0,7.798828125,0,7.798828125,3.448242188Z"/>
      <path class="cls-11" d="M428.82782755,463.44572657v11.279296875h-3.448242188v-11.279296875h3.448242188Z"/>
      <path class="cls-11" d="M446.03876505,471.276781258c0,3.448242188-1.41796875,3.754882812-7.798828125,3.754882812s-7.783203125-.291015625-7.783203125-3.802734375h3.46484375v.982421875h8.63671875v-1.869140625h-4.318359375c-6.380859375,0-7.637695312,0-7.637695312-3.448242188s1.385742188-3.754882812,7.653320312-3.754882812c6.251953125,0,7.622070312.37109375,7.622070312,3.802734375h-3.448242188v-.982421875h-8.37890625v1.869140625h4.189453125c6.4609375,0,7.798828125,0,7.798828125,3.448242188Z"/>
      <path class="cls-11" d="M462.68720255,465.959398445h-6.1875v8.765625h-3.447265625v-8.765625h-6.1875v-2.513671875h15.822265625v2.513671875Z"/>
    </g>
    <g>
      <path class="cls-11" d="M274.481147863,441.315843758h-4.5078125l-.609375,1.112304688h-2.3125l3.67578125-6.771484375h2.999023438l3.676757812,6.771484375h-2.3125l-.609375-1.112304688ZM273.668647863,439.806078133l-1.44140625-2.650390625-1.44140625,2.650390625h2.8828125Z"/>
      <path class="cls-11" d="M285.8082963,440.919359383v1.508789062h-7.827148438v-6.771484375h2.0703125v5.262695312h5.756835938Z"/>
      <path class="cls-11" d="M293.333686925,441.315843758h-4.5078125l-.609375,1.112304688h-2.3125l3.67578125-6.771484375h2.999023438l3.676757812,6.771484375h-2.3125l-.609375-1.112304688ZM292.521186925,439.806078133l-1.44140625-2.650390625-1.44140625,2.650390625h2.8828125Z"/>
      <path class="cls-11" d="M305.986030675,441.866625008v.561523438h-2.05078125v-1.615234375h-5.03125v1.615234375h-2.0703125v-6.771484375h6.19140625c2.651367188,0,2.9609375.231445312,2.9609375,2.573242188,0,1.005859375-.2421875,1.344726562-.803710938,1.615234375.561523438.290039062.803710938.416015625.803710938,2.021484375ZM303.9254838,437.349046883h-5.021484375v1.770507812h5.021484375v-1.770507812Z"/>
      <path class="cls-11" d="M318.0192338,435.65666407v6.771484375h-2.0703125v-4.169921875l-2.543945312,4.169921875h-1.731445312l-2.544921875-4.169921875v4.169921875h-2.0703125v-6.771484375h2.661132812l2.82421875,4.614257812,2.815429688-4.614257812h2.66015625Z"/>
      <path class="cls-11" d="M338.59345255,439.042406258c0,3.385742188-.173828125,3.569335938-4.69140625,3.569335938-4.52734375,0-4.7109375-.18359375-4.7109375-3.569335938s.193359375-3.5703125,4.7109375-3.5703125c4.5078125,0,4.69140625.184570312,4.69140625,3.5703125ZM336.52314005,437.165453133h-5.262695312v3.75390625h5.262695312v-3.75390625Z"/>
      <path class="cls-11" d="M348.798530675,435.65666407v6.771484375h-2.921875l-4.16015625-4.653320312v4.653320312h-2.0703125v-6.771484375h2.71875l4.373046875,4.884765625v-4.884765625h2.060546875Z"/>
      <path class="cls-11" d="M369.372749425,439.042406258c0,3.385742188-.173828125,3.569335938-4.69140625,3.569335938-4.52734375,0-4.7109375-.18359375-4.7109375-3.569335938s.193359375-3.5703125,4.7109375-3.5703125c4.5078125,0,4.69140625.184570312,4.69140625,3.5703125ZM367.302436925,437.165453133h-5.262695312v3.75390625h5.262695312v-3.75390625Z"/>
      <path class="cls-11" d="M372.4957963,437.349046883v.938476562h6.404296875v1.5h-6.404296875v2.640625h-2.0703125v-6.771484375h8.649414062v1.692382812h-6.579101562Z"/>
      <path class="cls-11" d="M382.024116613,437.349046883v.938476562h6.404296875v1.5h-6.404296875v2.640625h-2.0703125v-6.771484375h8.649414062v1.692382812h-6.579101562Z"/>
      <path class="cls-11" d="M400.740913488,435.65666407l-4.130859375,6.771484375h-2.166992188l4.140625-6.771484375h2.157226562Z"/>
      <path class="cls-11" d="M416.043647863,442.428148445h-9.267578125v-1.547851562c0-1.770507812.086914062-1.934570312,4.672851562-2.379882812,2.486328125-.2421875,2.515625-.2421875,2.515625-.745117188,0-.5703125-.087890625-.58984375-2.515625-.58984375-2.428710938,0-2.409179688-.009765625-2.505859375.58984375h-2.080078125c0-2.060546875.822265625-2.283203125,4.5859375-2.283203125,3.75390625,0,4.594726562.319335938,4.594726562,2.389648438,0,1.625-.086914062,1.770507812-4.594726562,2.235351562-2.592773438.270507812-2.592773438.260742188-2.592773438.637695312h7.1875v1.693359375Z"/>
      <path class="cls-11" d="M426.375679113,440.00041407v1.508789062h-.715820312v.909179688l-2.0703125.009765625v-.918945312h-6.733398438v-1.508789062l6.733398438-4.34375h2.0703125v4.34375h.715820312ZM423.5895463,440.00041407v-2.418945312l-3.7734375,2.418945312h3.7734375Z"/>
      <path class="cls-11" d="M436.32782755,435.65666407v6.771484375h-2.060546875v-2.630859375h-4.856445312v2.630859375h-2.0703125v-6.771484375h2.0703125v2.630859375h4.856445312v-2.630859375h2.060546875Z"/>
      <path class="cls-11" d="M446.650093175,441.866625008v.561523438h-2.05078125v-1.615234375h-5.03125v1.615234375h-2.0703125v-6.771484375h6.19140625c2.651367188,0,2.9609375.231445312,2.9609375,2.573242188,0,1.005859375-.2421875,1.344726562-.803710938,1.615234375.561523438.290039062.803710938.416015625.803710938,2.021484375ZM444.5895463,437.349046883h-5.021484375v1.770507812h5.021484375v-1.770507812Z"/>
    </g>
    <g>
      <path class="cls-8" d="M169.84345255,367.576585945l-2.119140625-2.119140625v-29.109375l2.119140625-2.0078125,6.245117188,6.133789062v20.856445312l-6.245117188,6.24609375ZM169.84345255,402.819750008l-2.119140625-2.0078125v-29.109375l2.119140625-2.119140625,6.245117188,6.24609375v20.856445312l-6.245117188,6.133789062ZM198.95282755,338.467210945h-20.856445312l-6.245117188-6.24609375,2.118164062-2.119140625h29.110351562l2.006835938,2.119140625-6.133789062,6.24609375ZM203.079780675,407.058031258h-29.110351562l-2.118164062-2.119140625,6.245117188-6.24609375h20.856445312l6.133789062,6.24609375-2.006835938,2.119140625ZM207.205757238,367.576585945l-6.245117188-6.24609375v-20.856445312l6.245117188-6.133789062,2.119140625,2.0078125v29.109375l-2.119140625,2.119140625ZM207.205757238,402.819750008l-6.245117188-6.133789062v-20.856445312l6.245117188-6.24609375,2.119140625,2.119140625v29.109375l-2.119140625,2.0078125Z"/>
      <path class="cls-8" d="M219.696968175,367.576585945l-2.119140625-2.119140625v-29.109375l2.119140625-2.0078125,6.245117188,6.133789062v20.856445312l-6.245117188,6.24609375ZM219.696968175,402.819750008l-2.119140625-2.0078125v-29.109375l2.119140625-2.119140625,6.245117188,6.24609375v20.856445312l-6.245117188,6.133789062ZM248.806343175,338.467210945h-20.856445312l-6.245117188-6.24609375,2.118164062-2.119140625h29.110351562l2.006835938,2.119140625-6.133789062,6.24609375ZM252.9332963,407.058031258h-29.110351562l-2.118164062-2.119140625,6.245117188-6.24609375h20.856445312l6.133789062,6.24609375-2.006835938,2.119140625ZM257.059272863,367.576585945l-6.245117188-6.24609375v-20.856445312l6.245117188-6.133789062,2.119140625,2.0078125v29.109375l-2.119140625,2.119140625ZM257.059272863,402.819750008l-6.245117188-6.133789062v-20.856445312l6.245117188-6.24609375,2.119140625,2.119140625v29.109375l-2.119140625,2.0078125Z"/>
      <path class="cls-8" d="M268.099311925,354.639085945v-8.365234375h8.252929688v8.365234375h-8.252929688ZM268.099311925,386.31291407v-8.364257812h8.252929688v8.364257812h-8.252929688Z"/>
      <path class="cls-8" d="M287.393257238,367.576585945l-2.119140625-2.119140625v-29.109375l2.119140625-2.0078125,6.245117188,6.133789062v20.856445312l-6.245117188,6.24609375ZM287.393257238,402.819750008l-2.119140625-2.0078125v-29.109375l2.119140625-2.119140625,6.245117188,6.24609375v20.856445312l-6.245117188,6.133789062ZM316.502632238,338.467210945h-20.856445312l-6.245117188-6.24609375,2.118164062-2.119140625h29.110351562l2.006835938,2.119140625-6.133789062,6.24609375ZM320.629585363,407.058031258h-29.110351562l-2.118164062-2.119140625,6.245117188-6.24609375h20.856445312l6.133789062,6.24609375-2.006835938,2.119140625ZM324.755561925,367.576585945l-6.245117188-6.24609375v-20.856445312l6.245117188-6.133789062,2.119140625,2.0078125v29.109375l-2.119140625,2.119140625ZM324.755561925,402.819750008l-6.245117188-6.133789062v-20.856445312l6.245117188-6.24609375,2.119140625,2.119140625v29.109375l-2.119140625,2.0078125Z"/>
      <path class="cls-8" d="M337.2457963,367.576585945l-2.119140625-2.119140625v-29.109375l2.119140625-2.0078125,6.245117188,6.133789062v20.856445312l-6.245117188,6.24609375ZM337.2457963,402.819750008l-2.119140625-2.0078125v-29.109375l2.119140625-2.119140625,6.245117188,6.24609375v20.856445312l-6.245117188,6.133789062ZM366.3551713,338.467210945h-20.856445312l-6.245117188-6.24609375,2.118164062-2.119140625h29.110351562l2.006835938,2.119140625-6.133789062,6.24609375ZM370.482124425,407.058031258h-29.110351562l-2.118164062-2.119140625,6.245117188-6.24609375h20.856445312l6.133789062,6.24609375-2.006835938,2.119140625ZM374.608100988,367.576585945l-6.245117188-6.24609375v-20.856445312l6.245117188-6.133789062,2.119140625,2.0078125v29.109375l-2.119140625,2.119140625ZM374.608100988,402.819750008l-6.245117188-6.133789062v-20.856445312l6.245117188-6.24609375,2.119140625,2.119140625v29.109375l-2.119140625,2.0078125Z"/>
    </g>
    <g>
      <path class="cls-8" d="M392.251655675,379.138109383l-1.458007812-1.45703125v-20.017578125l1.458007812-1.380859375,4.294921875,4.21875v14.341796875l-4.294921875,4.294921875ZM392.251655675,403.374437508l-1.458007812-1.380859375v-20.017578125l1.458007812-1.45703125,4.294921875,4.294921875v14.341796875l-4.294921875,4.21875ZM412.2692338,359.120531258h-14.342773438l-4.294921875-4.294921875,1.45703125-1.45703125h20.017578125l1.380859375,1.45703125-4.217773438,4.294921875ZM415.106147863,406.288500008h-20.017578125l-1.45703125-1.45703125,4.294921875-4.294921875h14.342773438l4.217773438,4.294921875-1.380859375,1.45703125ZM417.944038488,379.138109383l-4.294921875-4.294921875v-14.341796875l4.294921875-4.21875,1.45703125,1.380859375v20.017578125l-1.45703125,1.45703125ZM417.944038488,403.374437508l-4.294921875-4.21875v-14.341796875l4.294921875-4.294921875,1.45703125,1.45703125v20.017578125l-1.45703125,1.380859375Z"/>
      <path class="cls-8" d="M426.533882238,379.138109383l-1.458007812-1.45703125v-20.017578125l1.458007812-1.380859375,4.294921875,4.21875v14.341796875l-4.294921875,4.294921875ZM426.533882238,403.374437508l-1.458007812-1.380859375v-20.017578125l1.458007812-1.45703125,4.294921875,4.294921875v14.341796875l-4.294921875,4.21875ZM446.551460363,359.120531258h-14.342773438l-4.294921875-4.294921875,1.45703125-1.45703125h20.017578125l1.380859375,1.45703125-4.217773438,4.294921875ZM449.388374425,406.288500008h-20.017578125l-1.45703125-1.45703125,4.294921875-4.294921875h14.342773438l4.217773438,4.294921875-1.380859375,1.45703125ZM452.22626505,379.138109383l-4.294921875-4.294921875v-14.341796875l4.294921875-4.21875,1.45703125,1.380859375v20.017578125l-1.45703125,1.45703125ZM452.22626505,403.374437508l-4.294921875-4.21875v-14.341796875l4.294921875-4.294921875,1.45703125,1.45703125v20.017578125l-1.45703125,1.380859375Z"/>
    </g>
    <g>
      <path class="cls-8" d="M398.492866613,297.124437508l-1.078125-1.079101562v-14.8203125l1.078125-1.022460938,3.180664062,3.123046875v10.619140625l-3.180664062,3.1796875ZM398.492866613,315.067796883l-1.078125-1.021484375v-14.821289062l1.078125-1.078125,3.180664062,3.1796875v10.618164062l-3.180664062,3.123046875ZM413.314155675,282.304125008h-10.619140625l-3.1796875-3.180664062,1.079101562-1.078125h14.8203125l1.022460938,1.078125-3.123046875,3.180664062ZM415.414741613,317.226000008h-14.8203125l-1.079101562-1.079101562,3.1796875-3.1796875h10.619140625l3.123046875,3.1796875-1.022460938,1.079101562ZM417.516304113,297.124437508l-3.180664062-3.1796875v-10.619140625l3.180664062-3.123046875,1.078125,1.022460938v14.8203125l-1.078125,1.079101562ZM417.516304113,315.067796883l-3.180664062-3.123046875v-10.618164062l3.180664062-3.1796875,1.078125,1.078125v14.821289062l-1.078125,1.021484375Z"/>
      <path class="cls-8" d="M435.231147863,297.124437508l-1.078125-1.079101562v-14.8203125l1.078125-1.022460938,3.180664062,3.123046875v10.619140625l-3.180664062,3.1796875ZM435.231147863,315.067796883l-1.078125-1.021484375v-14.821289062l1.078125-1.078125,3.180664062,3.1796875v10.618164062l-3.180664062,3.123046875ZM450.052436925,282.304125008h-10.619140625l-3.1796875-3.180664062,1.079101562-1.078125h14.8203125l1.022460938,1.078125-3.123046875,3.180664062ZM452.153022863,317.226000008h-14.8203125l-1.079101562-1.079101562,3.1796875-3.1796875h10.619140625l3.123046875,3.1796875-1.022460938,1.079101562ZM454.254585363,297.124437508l-3.180664062-3.1796875v-10.619140625l3.180664062-3.123046875,1.078125,1.022460938v14.8203125l-1.078125,1.079101562ZM454.254585363,315.067796883l-3.180664062-3.123046875v-10.618164062l3.180664062-3.1796875,1.078125,1.078125v14.821289062l-1.078125,1.021484375Z"/>
    </g>
    <g>
      <path class="cls-8" d="M271.911811925,294.825609383l-.951171875-.951171875v-13.072265625l.951171875-.901367188,2.754882812,2.8046875v9.315429688l-2.754882812,2.8046875ZM286.836616613,312.55510157h-15.875976562l3.706054688-3.755859375,1.001953125-.05078125h9.264648438l2.8046875,2.842773438-.901367188.963867188ZM285.885444738,281.804125008h-10.267578125l-2.8046875-2.841796875.952148438-.9140625h15.875976562l-3.755859375,3.755859375ZM285.434272863,297.179125008h-10.317382812l-1.852539062-1.90234375,1.852539062-1.853515625h10.317382812l1.853515625,1.853515625-1.853515625,1.90234375ZM288.690132238,310.701585945l-2.8046875-2.8046875v-9.315429688l2.8046875-2.803710938.951171875.901367188v13.071289062l-.951171875.951171875Z"/>
      <path class="cls-8" d="M307.020210363,292.07072657l-2.8046875,2.754882812-.901367188-.901367188v-14.924804688l3.706054688,3.706054688v9.365234375ZM303.314155675,312.55510157v-15.826171875l.901367188-.951171875,2.8046875,2.803710938v10.267578125l-3.706054688,3.706054688ZM317.286811925,281.804125008h-9.315429688l-3.755859375-3.755859375h16.827148438l-3.755859375,3.755859375ZM317.787788488,297.179125008h-10.317382812l-1.852539062-1.852539062,1.852539062-1.903320312h10.317382812l1.852539062,1.903320312-1.852539062,1.852539062ZM321.94501505,293.924242195l-.90234375.901367188-2.8046875-2.754882812v-9.365234375l3.70703125-3.706054688v14.924804688ZM318.2379838,308.849046883v-10.267578125l2.8046875-2.803710938.90234375.951171875v15.826171875l-3.70703125-3.706054688Z"/>
    </g>
    <path class="cls-8" d="M167.746881151,281.320518109l.570629352,1.886546414c.132660521.438586325.47585434.781780144.914440666.914440666l1.886546414.570629352c1.297465167.392448181,1.297465167,2.229502411,0,2.621950591l-1.886546414.570629352c-.438586325.132660521-.781780144.47585434-.914440666.914440666l-.570629352,1.886546414c-.392448181,1.297465167-2.229502411,1.297465167-2.621950591,0l-.570629352-1.886546414c-.132660521-.438586325-.47585434-.781780144-.914440666-.914440666l-1.886546414-.570629352c-1.297465167-.392448181-1.297465167-2.229502411,0-2.621950591l1.886546414-.570629352c.438586325-.132660521.781780144-.47585434.914440666-.914440666l.570629352-1.886546414c.392448181-1.297465167,2.229502411-1.297465167,2.621950591,0Z"/>
    <path class="cls-8" d="M180.230597097,281.320518109l.570629352,1.886546414c.132660521.438586325.47585434.781780144.914440666.914440666l1.886546414.570629352c1.297465167.392448181,1.297465167,2.229502411,0,2.621950591l-1.886546414.570629352c-.438586325.132660521-.781780144.47585434-.914440666.914440666l-.570629352,1.886546414c-.392448181,1.297465167-2.229502411,1.297465167-2.621950591,0l-.570629352-1.886546414c-.132660521-.438586325-.47585434-.781780144-.914440666-.914440666l-1.886546414-.570629352c-1.297465167-.392448181-1.297465167-2.229502411,0-2.621950591l1.886546414-.570629352c.438586325-.132660521.781780144-.47585434.914440666-.914440666l.570629352-1.886546414c.392448181-1.297465167,2.229502411-1.297465167,2.621950591,0Z"/>
    <path class="cls-8" d="M194.104168759,281.320518109l.570629352,1.886546414c.132660521.438586325.47585434.781780144.914440666.914440666l1.886546414.570629352c1.297465167.392448181,1.297465167,2.229502411,0,2.621950591l-1.886546414.570629352c-.438586325.132660521-.781780144.47585434-.914440666.914440666l-.570629352,1.886546414c-.392448181,1.297465167-2.229502411,1.297465167-2.621950591,0l-.570629352-1.886546414c-.132660521-.438586325-.47585434-.781780144-.914440666-.914440666l-1.886546414-.570629352c-1.297465167-.392448181-1.297465167-2.229502411,0-2.621950591l1.886546414-.570629352c.438586325-.132660521.781780144-.47585434.914440666-.914440666l.570629352-1.886546414c.392448181-1.297465167,2.229502411-1.297465167,2.621950591,0Z"/>
    <g>
      <path class="cls-8" d="M160.943061925,301.712328133c0-.770507812.594726562-1.365234375,1.365234375-1.365234375h4.711914062c3.611328125,0,5.857421875,2.047851562,5.857421875,5.15234375v.043945312c0,3.435546875-2.752929688,5.262695312-6.165039062,5.262695312h-3.061523438v3.720703125c0,.771484375-.572265625,1.34375-1.342773438,1.34375s-1.365234375-.572265625-1.365234375-1.34375v-12.814453125ZM166.8004838,308.361742195c2.047851562,0,3.32421875-1.14453125,3.32421875-2.751953125v-.043945312c0-1.828125-1.298828125-2.752929688-3.32421875-2.752929688h-3.149414062v5.548828125h3.149414062Z"/>
      <path class="cls-8" d="M175.65595255,301.624437508c0-.770507812.594726562-1.365234375,1.365234375-1.365234375h.286132812c.594726562,0,.991210938.30859375,1.254882812.7265625l4.66796875,7.310546875,4.690429688-7.333007812c.286132812-.461914062.704101562-.704101562,1.232421875-.704101562h.287109375c.770507812,0,1.364257812.594726562,1.364257812,1.365234375v12.90234375c0,.771484375-.59375,1.34375-1.364257812,1.34375-.7265625,0-1.34375-.6171875-1.34375-1.34375v-9.247070312l-3.764648438,5.658203125c-.286132812.440429688-.638671875.705078125-1.145507812.705078125-.505859375,0-.836914062-.264648438-1.123046875-.705078125l-3.743164062-5.614257812v9.225585938c0,.770507812-.572265625,1.321289062-1.342773438,1.321289062s-1.321289062-.55078125-1.321289062-1.321289062v-12.924804688Z"/>
    </g>
  </g>
  <path class="cls-4" d="M308.495618463,172.010548998s-116.028251835,2.135149119-151.38799053,3.303326104c-6.043019137.199642762-11.579043192,3.405700165-14.762869998,8.545854287l-10.217859646,16.496303525c-7.061469562,11.400444836-11.145667703,24.384965903-11.882869665,37.774925877-1.387277837,25.197429832-3.469866823,68.917500178-3.469866823,104.30723175"/>
  <path class="cls-4" d="M308.495618463,172.010548994s116.028251835,2.135149124,151.38799053,3.303326111c6.043019137.199642762,11.579043192,3.405700166,14.762869998,8.545854287l10.217859645,16.496303525c7.061469562,11.400444836,11.145667702,24.384965903,11.882869664,37.774925877,1.387277836,25.197429832,3.46986682,68.917500178,3.469866818,104.30723175"/>
  <path class="cls-4" d="M308.495618456,496.321741919s116.028251835-2.135149119,151.38799053-3.303326104c6.043019137-.199642762,11.579043192-3.405700165,14.762869998-8.545854287l10.217859646-16.496303525c7.061469562-11.400444836,11.145667703-24.384965903,11.882869665-37.774925877,1.387277837-25.197429832,3.469866823-68.917500178,3.469866823-104.30723175"/>
  <path class="cls-4" d="M308.495618456,496.321741923s-116.028251835-2.135149124-151.38799053-3.303326111c-6.043019137-.199642762-11.579043192-3.405700166-14.762869998-8.545854287l-10.217859645-16.496303525c-7.061469562-11.400444836-11.145667702-24.384965903-11.882869664-37.774925877-1.387277836-25.197429832-3.46986682-68.917500178-3.469866818-104.30723175"/>
</svg>