<?xml version="1.0" encoding="UTF-8"?>
<svg id="Layer_4" data-name="Layer 4" xmlns="http://www.w3.org/2000/svg" viewBox="0 0 977.159401761 801.723447391">
  <defs>
    <style>
      .cls-1 {
        opacity: .49;
      }

      .cls-1, .cls-2 {
        stroke: #898683;
        stroke-linejoin: round;
        stroke-width: 6px;
      }

      .cls-1, .cls-2, .cls-3, .cls-4 {
        fill: none;
      }

      .cls-1, .cls-2, .cls-4 {
        stroke-linecap: round;
      }

      .cls-5 {
        fill: #8c3111;
      }

      .cls-2 {
        opacity: .38;
      }

      .cls-6 {
        fill: #a5a09b;
      }

      .cls-7, .cls-8 {
        fill: #63210c;
      }

      .cls-9 {
        fill: #898683;
      }

      .cls-8, .cls-3, .cls-4 {
        stroke: #63210c;
        stroke-miterlimit: 10;
      }

      .cls-3 {
        stroke-width: 4px;
      }

      .cls-10 {
        fill: #ededed;
      }

      .cls-4 {
        stroke-width: 3px;
      }
    </style>
  </defs>
  <g>
    <path class="cls-6" d="M172.878988073,624.079158717c-28.768457831,5.059363444-12.022336078,38.017839233-22.370312969,46.16639651l-77.35587691,8.863277301c-19.985518687,2.289899633-23.919355356-52.76402151-24.171876824-64.659639943l238.472814455-290.219659672c-2.451313176-12.963709916-27.988738445-18.277454156-16.354804617-35.637517692,8.862919582-13.225178115,8.385843344-25.942328745,2.248016845-40.722453087-8.714439424-20.984708233-13.715954271-50.174379992,2.183510675-69.584829996l90.530602038-110.521940875c14.220273275-17.360452342,40.818626304-25.130017329,62.318471351-21.522700085,37.675161557,6.321266951,72.169255167,11.996016125,109.578361194,20.583693938,19.502111976,4.476927468,42.321679005,23.32877078,50.518713392,41.590664916,15.442379214,34.403551465,27.342808046,66.610270031,40.80437879,101.622970159,8.07790626,21.010126896,6.047086016,48.807436021-8.509886202,67.173835951-30.042757613,37.904675029-59.059396525,73.785384864-90.984616993,110.156256893-17.150702902,19.538972991-48.471484811,21.018299567-71.124868273,14.241785524-26.842457998-8.02963027-30.533523565,8.142336347-47.744311817,21.53188252l-18.17347042-11.831793051c-3.686340033-2.399982578-7.070776312-5.601836229-9.750960743-5.438703791-11.090119901.675012612-19.567900193,42.000163291-65.837255404,38.778975959-6.690478993,7.775037869-16.842572995,17.146039258-18.927145729,25.828284314-2.16633496,9.02278471,4.966207893,22.835840352-7.112137488,26.575900095-34.733540008,10.75524094-1.285454636,33.850176496-39.498879916,35.670699179-13.666785858.651098232-25.354902359,7.079371355-24.926948499,21.225258916.118287255,3.90995004-.838906899,10.386660915-2.432871024,13.159273525.420972528-.732258476-25.990912117,11.936940097-37.231105208,37.852120752-3.700061761,8.530793749-2.787561663,17.120139755-14.147539704,19.117961743ZM491.671893129,186.921615833l77.557628263-6.132575004-24.50376936-58.28133565c-1.464727452-3.483801656-8.442081455-9.228603559-12.146217876-9.995090681l-62.013134808-12.832213455,9.312033608,79.165853352c.388338592,3.301443845,8.073444798,8.369507529,11.793460172,8.075361437ZM588.985132594,229.422151411l-103.282521803,7.659563517c22.391023149,21.72152075,41.21374695,36.168460716,65.990748443,56.317298459,14.030775078-15.423112723,44.867275885-44.16626577,37.29177336-63.976861976ZM431.416994315,192.596792718l-12.678418908-103.557575142c-10.377103793,1.983954983-16.187997033,4.717437357-23.591947562,8.965970729l-31.910885088,39.962991524c23.459920202,20.211676058,42.25056686,36.473702635,68.181251559,54.628612889Z"/>
    <path class="cls-2" d="M76.125636086,631.30477795l244.419604362-297.296490834c1.683581292-2.047801409,3.899532339-3.591382699,6.403927735-4.460830959l.000026407-.000009168c10.250016006-3.55848705,20.606383351,5.061560758,18.967140547,15.787162896l-.099937981.653896431c-.391564599,2.562015885-1.466985316,4.970966336-3.112932416,6.972991903l-82.481537874,100.32530669"/>
    <line class="cls-1" x1="237.829906207" y1="479.479740369" x2="133.478094585" y2="606.406659706"/>
  </g>
  <g>
    <path class="cls-5" d="M877.280151937,291.448586743l-240.660317643-207.086048821c-41.793561738-35.963093986-106.830927386-11.904367325-115.158730736,42.59970246l-47.954485638,313.850899969c-5.173616349,33.862375506,7.455455359,68.002235278,33.420703854,90.345368956l240.660514818,207.08658184c41.793364563,35.962560967,106.830730211,11.903834306,115.158730736-42.59970246l47.954288463-313.851432988c5.173714937-33.862108997-7.455356771-68.001968768-33.420703854-90.345368956ZM608.796177982,190.903094927c-11.122505134,4.114454947-23.474468365-1.566676839-27.588923311-12.689181973-4.114356359-11.122238625,1.566775427-23.474201855,12.689280561-27.588656802,11.122505134-4.114454947,23.474468365,1.566676839,27.588824724,12.688915464,4.114454947,11.122505134-1.566676839,23.474468365-12.689181973,27.588923311Z"/>
    <g>
      <path class="cls-8" d="M661.942716617,457.410410886c-2.337011593,5.515846645-5.802144943,10.491595857-10.396188749,14.925115561-4.593255105,4.435651779-9.691824283,7.688764495-15.297050909,9.762258922-3.195981252,1.182262513-6.908351817,1.636915875-11.132058843,1.364514759-4.224495727-.274533192-8.162263007-1.064761211-11.811958465-2.373604834-8.784826044-3.042573575-14.518314588-4.067767553-17.200465632-3.075581935-2.509452924.928300853-2.845723615,4.140657914-1.009600774,9.63493911.322379557.976317362.298244408,1.913573522-.072405448,2.81176848-.371993231.901115734-1.022110629,1.52214999-1.949563494,1.865234842s-1.7569959.269408958-2.487285729-.223948458c-.727369053-.492014041-1.270366001-1.219475786-1.626858766-2.183173935-1.131785661-3.059528417-1.569458396-5.985587085-1.312229502-8.776043929.256440193-2.79258892,1.11234162-5.288231235,2.565572207-7.486138244s3.316921431-4.138024356,5.586808384-5.818774638c2.269886952-1.680750282,4.883819174-3.067023396,7.841007964-4.160951419-.101742404-.275037746-.385989271-2.045935447-.852740601-5.312693102-1.221249286-7.638988127-2.666874059-13.709165273-4.333398869-18.214240913-2.301428961-6.22139646-4.790501833-10.519147122-7.466429915-12.891119912-2.685626518-2.404742624-6.264709694-2.782293213-10.735672126-1.128387616-.961566074.355704065-1.682718212.915757617-2.16132434,1.679371954-.480738203.764403038-.574131617,1.540644184-.281523617,2.331644214.343084852.927452865.860003005,1.715462213,1.546256282,2.358420517.687041977.64509038,1.335550069,1.100833303,1.941814797,1.363753319.604921354.265840792,1.469262963.590841741,2.588760678.976580247,1.120286415.387870581,1.962284542.711441535,2.528126455.969924159,2.803685446,1.347907873,5.058391081,4.324109055,6.76277353,8.931524323,2.454436918,6.635019117,2.714547136,12.147548337.782462729,16.536798961-1.935005184,4.387907249-5.307094648,7.472581424-10.121321243,9.253467851-1.341075522.496092809-2.459393983.323215378-3.356298757-.515711518-.885074262-.806945762-1.243439243-1.828123331-1.074306242-3.061400632.168344301-1.235409376.890007041-2.088935606,2.16072407-2.559001288l2.270660463-.839966362c.825113239-.305227213,1.493648854-.581618977,2.007738923-.829963993s1.087436032-.598596557,1.722958668-1.049411249c.634179261-.447893916,1.048745621-.991488085,1.24369908-1.630782508.192821383-.638505722.150698069-1.335530307-.129290718-2.092417127-.343873553-.929584941-.990553501-1.61626827-1.938141797-2.068023617s-2.268177359-.850363807-3.962001216-1.203010308c-3.394945097-.62018322-6.101222195-1.914442724-8.121752071-3.884121886-2.0176091-1.968335787-3.681824022-4.724258465-4.991856066-8.265635956-2.149209705-5.809905878-1.305424508-11.614445877,2.530012216-17.41069922,3.767210307-5.771014917,8.658108026-9.768984867,14.674825233-11.994698551,4.19379261-1.551374492,8.246272536-2.141536986,12.155307701-1.769698781,3.909035165.371838205,7.245385423,2.019587625,10.007707399,4.946169038l.206811329-.076503978c-1.862162135-6.934100845,1.665234506-12.029835915,10.583533298-15.290125986,6.257641744-2.314836875,11.209088614-2.289827953,14.85860476.073449366,3.602783725,2.341783323,6.617708796,6.796465684,9.046907288,13.363258383.686169704,1.85490573,1.466339163,2.797611366,2.337587602,2.826773534.775651519-.013037123,1.197984838-.03110886,1.268343331-.057135987l1.650226477-.610454426c1.003765365-.451300984,1.594523533-.708616522,1.765089577-.771712587,1.168377402-.432208043,2.159117811-.289699391,2.971432525.425393882.778201505.727712486,1.105018453,1.663607033.978873444,2.80341949-.137975522,1.107831323-.77488408,1.869409325-1.909148274,2.288998155-2.302641596.851796874-6.006053781,3.414294898-11.108104481,7.686705372,4.338343695-.315367894,8.57435081.59964657,12.710153423,2.74425469,4.135013912,2.142476045,6.920355618,5.157495283,8.357368492,9.042136938,1.920486471,5.191603968,1.650402837,10.745138036-.813171676,16.659258827ZM638.71044808,444.371819234c-6.628808322-2.279182645-12.794074832-2.36175456-18.501641084-.250402493-.489278648,2.798734405-1.45254672,5.266226637-2.890592917,7.40034462-1.506272615,2.159356409-4.08752617,5.167204435-7.742417291,9.0206233-.337118679.359819286-.438538912.668806119-.301894598.933356728.137198988.259497757.435438824.384284201.900327033.369861155,4.671717943-.790146019,9.751420636-.051498128,15.242028855,2.217287048,2.141188933.926425566,4.274984746,1.780447183,6.39767796,2.558589401,4.770372426,1.907443204,9.014056833,2.174878088,12.726000369.801749979,3.059528417-1.131785661,5.238264961-2.718221612,6.535420931-4.761439929,1.295023895-2.042429615,1.460799971-4.372461475.49464148-6.984254026-1.945724896-5.259830386-6.233663193-9.027876513-12.859550738-11.305715784ZM640.125814812,422.683334565c.930182163-.656768938.977511806-.948170327.146253083-.875781569-.302408248.034304688-.485593505.063287543-.553819922.088525969-1.641351694.529608796-3.01885486.901018495-4.130932096,1.118493249-1.112865937.215342678-2.32200504.301478236-3.62820601.256274596s-2.488551603-.417386825-3.550761376-1.120025007c-1.059288997-.701294807-2.012338936-1.718206701-2.855440338-3.047260232-.235196962-.419576664-.832450144-1.509933472-1.793657595-3.263096798-.99985379-1.857635028-2.015749052-3.280317523-3.04555371-4.268836188-.61871982-.512815076-1.305682773-.75800224-2.059311456-.731297343-.752285308.023784121-1.730067618.257023772-2.934690305.702639729-3.816415238,1.411774449-4.566810068,5.247548583-2.251973193,11.505190327.279200086.754754745.715515755,1.718010675,1.303105453,2.887081038.590510475,1.170413739,1.023905367,2.132326293,1.303894154,2.889213114.16562717.447735866.462672562,1.19831308.890347474,2.249599568.428463613,1.053418563.693960973,1.718712755.795703377,1.993750501.546569661,1.477528357.942290798,3.071454668,1.181321858,4.779092183l21.183720602-15.163563138Z"/>
      <path class="cls-8" d="M743.73699569,389.835606737c-1.010164615,2.661780087-3.062856436,4.562740492-6.156498062,5.707145366-2.166188761.801320022-4.320948205.650693382-6.468542484-.450302518s-3.619919354-2.735376932-4.421239376-4.901565692c-.571808087-1.545754775-.778614868-3.081101437-.620420343-4.606039987.158194525-1.52493855.554003782-2.754810306,1.184506994-3.690958642.773429776-1.185350434,1.292718579-2.002795501,1.555734334-2.451546499.610949814-1.205232076.598259171-2.058574422-.04043803-2.566423266-.635776425-.506505469-1.504806167-.555879044-2.604957152-.148909427-1.066037776.394350405-1.986409048.999013422-2.759770442,1.811068275-.772572693.814186929-1.363242717,1.648342119-1.772010072,2.502465571-.40663528.853334751-.730456974,1.930537435-.97359716,3.232396753-.24100811,1.301070617-.391602845,2.374788732-.45122953,3.216101492-.058837985.843444836-.114537881,1.937807459-.162046837,3.283642543-.103862313,1.09521211-.066088247,2.409499163.109846749,3.946570633.017152344.151204124.132027611,1.359407119.344625801,3.624608987.020896774.266162963.082901729.800707585.18388279,1.604422567.10019236.801582906.172251352,1.468142972.211912824,2.0012576.186344632,1.768332524.299251945,2.76154237.341642714,2.980972911,2.437720675.77795074,4.407597412,1.457497761,5.910973584,2.035720289,1.502587471.576090452,3.135769511,1.341406788,4.893704566,2.293262258,1.76006713.951066769,3.219598228,1.993917646,4.382857445,3.126975229,1.161127141,1.133846283,2.300509544,2.549629546,3.416015135,4.248138489,1.116848965,1.695588166,2.089341373,3.662721914,2.915899821,5.897137093,6.25676352,16.913755352-.584045649,29.059664049-20.525348284,36.436382718-1.23660382.457446469-2.257020046.287134214-3.060459977-.50880469-.850961053-.819564975-1.19591812-1.80449726-1.036448603-2.959061005.092031801-1.127193244.738898656-1.914269532,1.941389268-2.359096788,3.541377491-1.310032044,6.154027125-2.647354041,7.8371602-4.014098066,3.798427073-3.046055193,4.728955692-7.181152677,2.795850009-12.406869854-.660931278-1.786679312-1.743606248-3.448856351-3.249368285-4.983610339-1.504973336-1.532621912-3.117779847-2.511501403-4.83605343-2.930242246-.152225279,7.405373138-1.822848523,13.484268565-5.008160254,18.24016173-3.183968356,4.752972389-8.198605482,8.39678377-15.040435928,10.927724667-3.850528446,1.424393662-7.88894245,1.783936396-12.116585384,1.08154898-4.225510859-.703176117-8.053270341-2.355777791-11.479014294-4.959382425-3.422823177-2.602261259-5.847497633-5.828261761-7.271891295-9.678790208-2.047467301-5.534868132-2.281316365-10.969853932-.69649434-16.304402726,1.582689949-5.333760093,4.582094721-10.166312239,9.00034639-14.498445138-2.689144517-2.093190614-4.671541703-4.857450114-5.942927408-8.294355903-2.200475258-5.948490789-1.927662327-11.815708942.819227493-17.599522384,2.74688982-5.783813442,7.109110304-9.782544735,13.091714302-11.995639206,5.15749076-1.907867258,9.685684918-2.135915793,13.581661698-.685488982,3.911516769,1.485883395,6.583926853,4.169408195,8.021728428,8.056181926,1.04266247,2.818603879,1.006927811,5.939176834-.112256827,9.36116419-1.118395938,3.424119432-2.931851553,5.912830608-5.444630997,7.467710931,2.037314453.65217652,5.608893578,1.638461275,10.706763748,2.956956215-1.752721202-12.561520523-1.091356895-21.073867902,1.987802398-25.533566687,2.477638936-3.340365191,5.349628276-5.614692607,8.615968022-6.822982247,2.611792551-.966158491,5.180521133-1.046230636,7.707529121-.24313721,2.525664613.806014202,4.660129077,2.166369572,6.403393392,4.081066109,1.745396391,1.913907836,3.0931265,4.161556164,4.046665779,6.739235506,1.170432001,3.164000119,1.250843031,6.074363796.24202179,8.733223106ZM708.090811019,424.860636085c-4.360673511-1.120976305-7.076092848-1.856796135-8.142548534-2.203984041-5.168420141-1.607495274-10.223980089-3.702725247-15.166125171-6.290742772-3.44332023,4.320516652-4.681112399,7.788803329-3.714953908,10.400595879,1.691763236,4.573302058,5.967419681,8.052607712,12.829890111,10.439260337,6.794244013,2.41189105,12.529186862,2.753026138,17.204828546,1.023405264,3.164000119-1.170432001,4.909572749-4.904120298,5.236717892-11.20106489-.864774711-.227887414-3.613518556-.948955956-8.247808937-2.167469777ZM699.271230183,381.047504654c-1.598973091-.620421819-3.222506838-.625799865-4.872733315-.015345439-2.132075552.788700809-3.668537633,2.021201576-4.611518321,3.698291-.997799191,1.738573135-1.237887908,3.310772947-.715767972,4.722206962,1.767478514,4.777981311,5.085492627,7.673516175,9.956174414,8.685815889,1.44692098-2.214963614,2.542204496-4.692509882,3.288771324-7.43129543s.738907752-5.137970814-.024554632-7.201819948c-.368323278-.995679283-1.376798062-1.815148519-3.020371499-2.457853034Z"/>
      <path class="cls-8" d="M818.310149735,409.005124899c-3.32331461,5.332915177-8.646417325,9.355032444-15.970096845,12.064219723-2.95718879,1.093928022-6.322290901,1.478291273-10.095306332,1.15308975-3.774358806-.322280746-7.226532581-1.175796309-10.355732625-2.558414613-1.401036546-.616080167-2.579392007-1.10850907-3.537198461-1.47649801s-2.235346738-.814031903-3.836885006-1.336551486c-1.598617491-.521176209-3.063017558-.830228377-4.388147347-.92660183-1.325129789-.096373453-2.469543759.033686203-3.431109832.389390268-1.616113268.597835213-1.550687554,3.467689455.192567666,8.606087274.29635243.905958869.242887944,1.737720599-.161182159,2.493153116s-1.036784416,1.292466338-1.896010864,1.610312764-1.675214162.307023451-2.445831067-.033257626-1.315242922-.941100877-1.633089348-1.800327324c-2.823548897-7.632830475-1.277871671-14.809554856,4.639163753-21.530961843,2.609152897-2.880010113,3.580602791-5.27296632,2.915138382-7.176736548-.012619213-.034113209-.113668656-.46453261-.301804954-1.294178979-.177649161-.79474446-.393753183-1.378933161-.649100766-1.754698179-.841489048-1.213305991-2.836926382-2.54510401-5.994285628-3.997292107-7.158822861-3.292611494-11.684003575-7.498868291-13.579251619-12.622245841-2.530940897-6.841830445-1.871278588-13.242389657,1.984039778-19.201122962,3.831692294-5.911212182,9.272136666-10.173067137,16.318646364-12.779723312,2.577679342-.953539278,5.26145186-1.653040919,8.047053402-2.09692752,2.787733618-.444675302,5.645055266-.563636932,8.574097021-.357673591,2.929041755.205963341,5.651957547.752374928,8.168747377,1.639234761,2.51678983.886859833,4.807485436,2.296070581,6.870743444,4.23055302,2.064601382,1.931561663,3.617955971,4.30917086,4.660618441,7.127774739.928300852,2.509452924,1.375688738,5.225891941,1.342952357,8.151449127-.031393006,2.922636409-.576522005,5.596601084-1.634043622,8.018973249-2.302301162,5.190332047-3.103268584,8.732139616-2.403690967,10.62329063.291819299.788867954.842078675,1.319736528,1.644936575,1.589918973.802069199.268050369,1.617120805.250133634,2.442234044-.055093579,2.132075552-.788700809,3.447234877-2.036290226,3.948953426-3.746477726.427018404-1.486223828.737707236-3.496591762.934198572-6.031892501.118464671-1.684757596.727378148-2.731687241,1.827529133-3.138656858.345396239-.127769531.771378249-.188396159,1.28299888-.181325209,1.883482843.124938399,2.850322128,1.211888139,2.90635941,3.26353597.074025446,3.685928576-.732757695,7.159596347-2.418217347,10.420214613-1.684670952,3.262750341-4.144580084,5.491289038-7.374674545,6.686170764-2.854849164,1.056070384-5.825596322.894620769-8.914373551-.483560144-3.090909304-1.377392212-5.72420347-3.345813096-7.900437172-5.900209799-2.174890327-2.55731748-3.772507901-5.211836638-4.789931945-7.9622141-.91568164-2.475339716-.984756045-5.302639066-.207223216-8.481898051.685083118-2.793604052,1.570927819-5.739036807,2.65248125-8.83685294.98910372-2.712161199,1.223384313-4.771826731.702053078-6.181128671-.648312065-1.752566103-2.74082798-2.973313835-6.275970342-3.657979042-3.558768434-.637144085-7.005158395-.341478521-10.339724558.892049545-3.714075611,1.37391681-6.810948017,3.302414885-9.293537994,5.784150851-2.584929604,2.519593605-3.497123602,4.810643287-2.733661218,6.874492421,1.04266247,2.818603879,4.557338135,5.34810559,10.546947773,7.589848507,2.467492232.963268072,4.748367828,2.247648304,6.848468342,3.855827444s3.530027224,3.442455552,4.293489607,5.506304686c1.360508896,3.677830327,1.710333432,6.733339262,1.047341532,9.167315507-.658458769,2.55106716-3.135679795,6.632970662-7.428742301,12.24705388l.075715278.204679253c.318025738-.195207248,1.320274488-.604742042,3.004614173-1.227815681,1.341075522-.496092809,2.976543115-.720545821,4.909323556-.672015662,1.93199174.046398084,3.70110537.28151145,5.302288038.704785424,3.699157178,1.016653533,7.224827535,2.095059757,10.578588473,3.239482821,4.358463934,1.31812415,8.084911065,1.406049825,11.17855269.261644951,5.637207759-2.08532494,7.670019438-6.628180742,6.096302963-13.627778707-.226782638-.934118071-.168092059-1.804170542.176626409-2.615210262.343929768-.813171796.946968263-1.37800922,1.806194711-1.695855646.481849075-.178246383,1.019141233-.20006255,1.615351925-.069157978,1.109443678.253723062,1.853531974.994054761,2.230921514,2.223915874,2.137426313,7.25886929,1.546336903,13.556499249-1.776977708,18.889414426Z"/>
    </g>
    <g>
      <path class="cls-10" d="M658.552880539,448.246750165c-2.337011593,5.515846645-5.802144943,10.491595857-10.396188749,14.925115561-4.593255105,4.435651779-9.691824283,7.688764495-15.297050909,9.762258922-3.195981252,1.182262513-6.908351817,1.636915875-11.132058843,1.364514759-4.224495727-.274533192-8.162263007-1.064761211-11.811958465-2.373604834-8.784826044-3.042573575-14.518314588-4.067767553-17.200465632-3.075581935-2.509452924.928300852-2.845723615,4.140657914-1.009600774,9.63493911.322379557.976317362.298244407,1.913573522-.072405448,2.81176848-.371993231.901115734-1.022110629,1.52214999-1.949563494,1.865234842s-1.7569959.269408958-2.487285729-.223948458c-.727369053-.492014041-1.270366001-1.219475786-1.626858766-2.183173935-1.131785661-3.059528417-1.569458396-5.985587085-1.312229502-8.776043929.256440193-2.79258892,1.11234162-5.288231235,2.565572207-7.486138244s3.316921431-4.138024356,5.586808384-5.818774638c2.269886952-1.680750282,4.883819174-3.067023396,7.841007964-4.160951419-.101742404-.275037746-.385989271-2.045935447-.852740601-5.312693102-1.221249286-7.638988127-2.666874059-13.709165273-4.333398869-18.214240913-2.301428961-6.22139646-4.790501833-10.519147122-7.466429915-12.891119912-2.685626518-2.404742624-6.264709694-2.782293213-10.735672126-1.128387616-.961566074.355704065-1.682718212.915757617-2.16132434,1.679371954-.480738203.764403038-.574131617,1.540644184-.281523617,2.331644214.343084852.927452865.860003005,1.715462213,1.546256282,2.358420517.687041977.64509038,1.335550069,1.100833303,1.941814797,1.363753319.604921354.265840792,1.469262963.590841741,2.588760678.976580247,1.120286415.387870581,1.962284542.711441535,2.528126455.969924159,2.803685446,1.347907873,5.058391081,4.324109055,6.76277353,8.931524322,2.454436918,6.635019117,2.714547136,12.147548337.782462729,16.536798961-1.935005184,4.387907249-5.307094648,7.472581424-10.121321243,9.253467851-1.341075522.496092809-2.459393983.323215378-3.356298757-.515711518-.885074262-.806945762-1.243439243-1.828123331-1.074306242-3.061400632.168344301-1.235409376.890007041-2.088935606,2.16072407-2.559001288l2.270660463-.839966362c.825113239-.305227213,1.493648854-.581618977,2.007738923-.829963993s1.087436032-.598596557,1.722958668-1.049411249c.634179261-.447893916,1.048745621-.991488085,1.24369908-1.630782508.192821383-.638505722.150698069-1.335530307-.129290718-2.092417127-.343873553-.929584941-.990553501-1.61626827-1.938141797-2.068023617-.947588295-.451755347-2.268177359-.850363807-3.962001216-1.203010308-3.394945097-.62018322-6.101222195-1.914442724-8.121752071-3.884121886-2.0176091-1.968335787-3.681824022-4.724258465-4.991856066-8.265635956-2.149209705-5.809905878-1.305424508-11.614445877,2.530012216-17.41069922,3.767210307-5.771014917,8.658108026-9.768984867,14.674825233-11.994698551,4.19379261-1.551374492,8.246272536-2.141536986,12.155307701-1.769698781,3.909035165.371838205,7.245385423,2.019587625,10.007707399,4.946169038l.206811329-.076503979c-1.862162135-6.934100845,1.665234506-12.029835915,10.583533298-15.290125986,6.257641744-2.314836875,11.209088614-2.289827953,14.85860476.073449366,3.602783725,2.341783323,6.617708796,6.796465684,9.046907288,13.363258383.686169704,1.85490573,1.466339163,2.797611366,2.337587602,2.826773534.775651519-.013037123,1.197984838-.03110886,1.268343331-.057135987l1.650226477-.610454426c1.003765365-.451300984,1.594523533-.708616522,1.765089577-.771712587,1.168377402-.432208043,2.159117811-.289699391,2.971432525.425393882.778201505.727712486,1.105018453,1.663607033.978873444,2.80341949-.137975522,1.107831323-.77488408,1.869409325-1.909148274,2.288998155-2.302641596.851796874-6.006053781,3.414294898-11.108104481,7.686705372,4.338343695-.315367894,8.57435081.59964657,12.710153423,2.74425469,4.135013912,2.142476045,6.920355618,5.157495283,8.357368492,9.042136938,1.920486471,5.191603968,1.650402837,10.745138036-.813171676,16.659258827ZM635.320612002,435.208158513c-6.628808322-2.279182645-12.794074832-2.36175456-18.501641084-.250402493-.489278648,2.798734405-1.45254672,5.266226637-2.890592917,7.40034462-1.506272615,2.159356409-4.08752617,5.167204435-7.742417291,9.0206233-.337118679.359819286-.438538912.668806119-.301894598.933356728.137198988.259497757.435438824.384284201.900327033.369861155,4.671717943-.790146019,9.751420636-.051498128,15.242028855,2.217287048,2.141188933.926425566,4.274984746,1.780447183,6.39767796,2.558589401,4.770372426,1.907443204,9.014056833,2.174878088,12.726000369.801749979,3.059528417-1.131785661,5.238264961-2.718221612,6.535420931-4.761439929,1.295023895-2.042429615,1.460799971-4.372461475.49464148-6.984254026-1.945724896-5.259830386-6.233663193-9.027876513-12.859550738-11.305715784ZM636.735978733,413.519673844c.930182163-.656768938.977511806-.948170327.146253083-.875781569-.302408248.034304688-.485593505.063287543-.553819922.088525969-1.641351694.529608796-3.01885486.901018495-4.130932096,1.118493249-1.112865937.215342678-2.32200504.301478236-3.62820601.256274596-1.30620097-.04520364-2.488551603-.417386825-3.550761376-1.120025007-1.059288997-.701294807-2.012338936-1.718206701-2.855440338-3.047260232-.235196962-.419576664-.832450144-1.509933472-1.793657595-3.263096798-.99985379-1.857635028-2.015749052-3.280317524-3.04555371-4.268836188-.61871982-.512815076-1.305682773-.75800224-2.059311456-.731297343-.752285308.023784121-1.730067618.257023772-2.934690305.702639729-3.816415238,1.411774449-4.566810068,5.247548583-2.251973193,11.505190327.279200086.754754745.715515755,1.718010675,1.303105453,2.887081038.590510475,1.170413739,1.023905367,2.132326293,1.303894154,2.889213114.16562717.447735866.462672562,1.19831308.890347474,2.249599568.428463613,1.053418563.693960973,1.718712755.795703377,1.993750501.546569661,1.477528357.942290798,3.071454668,1.181321858,4.779092183l21.183720602-15.163563138Z"/>
      <path class="cls-10" d="M740.347159612,380.671946016c-1.010164615,2.661780087-3.062856436,4.562740492-6.156498062,5.707145366-2.166188761.801320022-4.320948205.650693382-6.468542484-.450302518-2.147594279-1.1009959-3.619919354-2.735376932-4.421239376-4.901565692-.571808087-1.545754775-.778614868-3.081101437-.620420343-4.606039987.158194525-1.52493855.554003782-2.754810306,1.184506994-3.690958642.773429776-1.185350434,1.292718579-2.002795501,1.555734334-2.451546499.610949814-1.205232076.598259171-2.058574422-.04043803-2.566423266-.635776425-.506505469-1.504806167-.555879044-2.604957152-.148909427-1.066037776.394350405-1.986409048.999013422-2.759770442,1.811068275-.772572693.814186929-1.363242717,1.648342119-1.772010072,2.502465571-.40663528.853334751-.730456974,1.930537435-.97359716,3.232396753-.24100811,1.301070617-.391602845,2.374788732-.45122953,3.216101492-.058837985.843444836-.114537881,1.937807459-.162046837,3.283642543-.103862313,1.09521211-.066088247,2.409499163.109846749,3.946570633.017152344.151204124.132027611,1.359407119.344625801,3.624608987.020896774.266162963.082901729.800707585.18388279,1.604422567.10019236.801582906.172251352,1.468142972.211912824,2.0012576.186344632,1.768332524.299251945,2.76154237.341642714,2.980972911,2.437720675.77795074,4.407597412,1.457497761,5.910973584,2.035720289,1.502587471.576090452,3.135769511,1.341406788,4.893704566,2.293262258,1.76006713.951066769,3.219598228,1.993917646,4.382857445,3.126975229,1.161127141,1.133846283,2.300509544,2.549629546,3.416015135,4.248138489,1.116848965,1.695588166,2.089341373,3.662721914,2.915899821,5.897137093,6.25676352,16.913755352-.584045649,29.059664049-20.525348284,36.436382718-1.23660382.457446469-2.257020046.287134214-3.060459977-.50880469-.850961053-.819564975-1.19591812-1.80449726-1.036448603-2.959061005.092031801-1.127193244.738898656-1.914269532,1.941389268-2.359096788,3.541377491-1.310032044,6.154027125-2.647354041,7.8371602-4.014098066,3.798427073-3.046055193,4.728955692-7.181152677,2.795850009-12.406869854-.660931278-1.786679312-1.743606248-3.448856351-3.249368285-4.983610339-1.504973336-1.532621912-3.117779847-2.511501403-4.83605343-2.930242246-.152225279,7.405373138-1.822848523,13.484268565-5.008160254,18.24016173-3.183968356,4.752972389-8.198605482,8.39678377-15.040435928,10.927724667-3.850528446,1.424393662-7.88894245,1.783936396-12.116585384,1.08154898-4.225510859-.703176117-8.053270341-2.355777791-11.479014294-4.959382425-3.422823177-2.602261259-5.847497633-5.828261761-7.271891295-9.678790208-2.047467301-5.534868132-2.281316365-10.969853932-.69649434-16.304402726,1.582689949-5.333760093,4.582094721-10.166312239,9.00034639-14.498445138-2.689144517-2.093190614-4.671541703-4.857450114-5.942927408-8.294355903-2.200475258-5.948490789-1.927662327-11.815708942.819227493-17.599522384,2.74688982-5.783813442,7.109110304-9.782544735,13.091714302-11.995639206,5.15749076-1.907867258,9.685684918-2.135915793,13.581661698-.685488982,3.911516769,1.485883395,6.583926853,4.169408195,8.021728428,8.056181926,1.04266247,2.818603879,1.006927811,5.939176834-.112256827,9.36116419-1.118395938,3.424119432-2.931851553,5.912830608-5.444630997,7.467710931,2.037314453.65217652,5.608893578,1.638461275,10.706763748,2.956956215-1.752721202-12.561520523-1.091356895-21.073867902,1.987802398-25.533566687,2.477638936-3.340365191,5.349628276-5.614692607,8.615968022-6.822982247,2.611792551-.966158491,5.180521133-1.046230636,7.707529121-.24313721,2.525664613.806014202,4.660129077,2.166369572,6.403393392,4.081066109,1.745396391,1.913907836,3.0931265,4.161556164,4.046665779,6.739235506,1.170432001,3.164000119,1.250843031,6.074363796.24202179,8.733223106ZM704.700974941,415.696975364c-4.360673511-1.120976305-7.076092848-1.856796135-8.142548534-2.203984041-5.168420141-1.607495274-10.223980089-3.702725247-15.166125171-6.290742772-3.44332023,4.320516652-4.681112399,7.788803329-3.714953908,10.400595879,1.691763236,4.573302058,5.967419681,8.052607712,12.829890111,10.439260337,6.794244013,2.41189105,12.529186862,2.753026138,17.204828546,1.023405264,3.164000119-1.170432001,4.909572749-4.904120298,5.236717892-11.20106489-.864774711-.227887414-3.613518556-.948955956-8.247808937-2.167469777ZM695.881394105,371.883843932c-1.598973091-.620421819-3.222506838-.625799865-4.872733315-.015345439-2.132075552.788700809-3.668537633,2.021201576-4.611518321,3.698291-.997799191,1.738573135-1.237887908,3.310772947-.715767972,4.722206962,1.767478514,4.777981311,5.085492627,7.673516175,9.956174414,8.685815889,1.44692098-2.214963614,2.542204496-4.692509882,3.288771324-7.43129543.746566828-2.738785548.738907752-5.137970814-.024554632-7.201819948-.368323278-.995679283-1.376798062-1.815148519-3.020371499-2.457853034Z"/>
      <path class="cls-10" d="M814.920313657,399.841464177c-3.32331461,5.332915177-8.646417325,9.355032444-15.970096845,12.064219723-2.95718879,1.093928022-6.322290901,1.478291273-10.095306332,1.15308975-3.774358806-.322280746-7.226532581-1.175796309-10.355732625-2.558414613-1.401036546-.616080166-2.579392007-1.10850907-3.537198461-1.47649801s-2.235346738-.814031903-3.836885006-1.336551486c-1.598617491-.521176209-3.063017558-.830228377-4.388147347-.92660183s-2.469543759.033686203-3.431109832.389390268c-1.616113268.597835213-1.550687554,3.467689455.192567666,8.606087274.29635243.905958869.242887944,1.737720599-.161182159,2.493153116s-1.036784416,1.292466338-1.896010864,1.610312764-1.675214162.307023451-2.445831067-.033257626c-.770616906-.340281077-1.315242922-.941100877-1.633089348-1.800327324-2.823548897-7.632830475-1.277871671-14.809554856,4.639163753-21.530961843,2.609152897-2.880010113,3.580602791-5.27296632,2.915138382-7.176736548-.012619213-.034113209-.113668656-.46453261-.301804954-1.294178979-.177649161-.79474446-.393753183-1.378933161-.649100766-1.754698179-.841489048-1.213305991-2.836926382-2.54510401-5.994285628-3.997292107-7.158822861-3.292611494-11.684003575-7.498868291-13.579251619-12.622245841-2.530940897-6.841830445-1.871278588-13.242389657,1.984039778-19.201122962,3.831692294-5.911212182,9.272136666-10.173067137,16.318646364-12.779723312,2.577679342-.953539278,5.26145186-1.653040919,8.047053402-2.09692752,2.787733618-.444675302,5.645055266-.563636932,8.574097021-.357673591,2.929041755.205963341,5.651957547.752374928,8.168747377,1.639234761,2.51678983.886859833,4.807485436,2.296070581,6.870743444,4.23055302,2.064601382,1.931561663,3.617955971,4.30917086,4.660618441,7.127774739.928300852,2.509452924,1.375688738,5.225891941,1.342952357,8.151449127-.031393006,2.922636409-.576522005,5.596601084-1.634043622,8.018973249-2.302301162,5.190332047-3.103268584,8.732139616-2.403690967,10.62329063.291819299.788867954.842078675,1.319736528,1.644936575,1.589918973.802069199.268050369,1.617120805.250133634,2.442234044-.055093579,2.132075552-.788700809,3.447234877-2.036290226,3.948953426-3.746477726.427018404-1.486223828.737707236-3.496591762.934198572-6.031892501.118464671-1.684757596.727378148-2.731687241,1.827529133-3.138656858.345396239-.127769531.771378249-.188396159,1.28299888-.181325209,1.883482843.124938399,2.850322128,1.211888139,2.90635941,3.26353597.074025446,3.685928576-.732757695,7.159596347-2.418217347,10.420214613-1.684670952,3.262750341-4.144580084,5.491289038-7.374674545,6.686170764-2.854849164,1.056070384-5.825596322.894620769-8.914373551-.483560144-3.090909304-1.377392212-5.72420347-3.345813096-7.900437172-5.900209799-2.174890327-2.55731748-3.772507901-5.211836638-4.789931945-7.9622141-.91568164-2.475339716-.984756045-5.302639066-.207223216-8.481898051.685083118-2.793604052,1.570927819-5.739036807,2.65248125-8.83685294.98910372-2.712161199,1.223384313-4.771826731.702053078-6.181128671-.648312065-1.752566103-2.74082798-2.973313835-6.275970342-3.657979042-3.558768434-.637144085-7.005158395-.341478521-10.339724558.892049545-3.714075611,1.37391681-6.810948017,3.302414885-9.293537994,5.784150851-2.584929604,2.519593605-3.497123602,4.810643287-2.733661218,6.874492421,1.04266247,2.818603879,4.557338135,5.34810559,10.546947773,7.589848507,2.467492232.963268072,4.748367828,2.247648304,6.848468342,3.855827444,2.100100514,1.60817914,3.530027224,3.442455552,4.293489607,5.506304686,1.360508896,3.677830327,1.710333432,6.733339262,1.047341532,9.167315507-.658458769,2.55106716-3.135679795,6.632970662-7.428742301,12.24705388l.075715278.204679253c.318025738-.195207248,1.320274488-.604742042,3.004614173-1.227815681,1.341075522-.496092809,2.976543115-.720545821,4.909323556-.672015662,1.93199174.046398084,3.70110537.28151145,5.302288038.704785424,3.699157178,1.016653533,7.224827535,2.095059757,10.578588473,3.239482821,4.358463934,1.31812415,8.084911065,1.406049825,11.17855269.261644951,5.637207759-2.08532494,7.670019438-6.628180742,6.096302963-13.627778707-.226782638-.934118071-.168092059-1.804170542.176626409-2.615210262.343929768-.813171796.946968263-1.37800922,1.806194711-1.695855646.481849075-.178246383,1.019141233-.20006255,1.615351925-.069157978,1.109443678.253723062,1.853531974.994054761,2.230921514,2.223915874,2.137426313,7.25886929,1.546336903,13.556499249-1.776977708,18.889414426Z"/>
    </g>
    <path class="cls-3" d="M559.613577269,141.574218632l-46.701450798,305.651285676c-3.059274428,20.022315074,4.408143647,40.208809648,19.761207688,53.420005109l234.372813078,201.67603263c20.885344618,17.971681046,53.386231104,5.948900324,57.547872346-21.288200872l46.701436529-305.651467467c3.059271868-20.022316343-4.408150048-40.208810672-19.761217497-53.420003503l-234.372728411-201.675874859c-20.885367813-17.971693439-53.386284155-5.948902723-57.547932935,21.288223286Z"/>
    <g>
      <path class="cls-7" d="M570.016931845,357.600771293c-.416434027-1.125735891.142964539-2.345831709,1.268700431-2.762265737l6.49430213-2.402382665c2.121415174-.784757305,3.921824571-.825418719,5.391763781-.147569148,1.149997185.527157573,1.955136091,1.41942131,2.410216458,2.649628904l.01971752.053301889c.755575375,2.042528379.110504758,3.679705589-.946994073,4.844099987,2.421910182.02756348,4.195549348.799093683,5.096245672,3.233923963l.01971752.053301889c1.239837672,3.351622767-.862903971,6.034605084-5.001262617,7.565473355l-6.703245535,2.479675344c-1.125735891.416434027-2.344488335-.145885316-2.760922362-1.271621207l-5.288238926-14.295566574ZM579.657967821,360.166641337c1.780283086-.658565176,2.693069758-1.650659602,2.189089941-3.01305588l-.01971752-.053301889c-.455080367-1.230207593-1.639588909-1.53614903-3.340985199-.906765784l-3.980585055,1.472504411,1.433858071,3.876113353,3.718339762-1.375494211ZM583.461672726,367.153302465c1.780283086-.658565176,2.622182425-1.685032671,2.118991309-3.045296873l-.01971752-.053301889c-.455080367-1.230207593-1.627065436-1.659549551-3.720763627-.885045357l-4.660717156,1.724099969,1.49143323,4.031754868,4.790773765-1.772210718Z"/>
      <path class="cls-7" d="M594.17121577,348.665579825c-.416434027-1.125735891.14296454-2.345831709,1.268700431-2.762265737l6.364245522-2.354271916c2.330358578-.862049985,4.343308402-.891652873,6.028596363-.116525646,1.434101193.659596999,2.472036006,1.853557784,3.121136772,3.608255963l.01971752.053301889c1.074999203,2.906018977.282816896,5.193878903-1.601796556,6.933286334l4.060313767,2.366439717c.57606919.351652655.993688542.674661339,1.226355281,1.303623627.416434027,1.125735891-.256762364,2.20856434-1.224724664,2.566634507-.916792487.339141348-1.657291355.106486776-2.377267288-.313123316l-5.767322154-3.521345371-3.221566159,1.191726923,1.481968821,4.006169962c.416434027,1.125735891-.145096615,2.34662041-1.270832506,2.763054437s-2.344488335-.145885316-2.760922362-1.271621207l-5.346602786-14.453340165ZM604.83553101,352.549599876c1.98922649-.735857855,2.711589787-2.164091662,2.13031729-3.735431343l-.01971752-.053301889c-.649100766-1.754698179-2.147562374-2.18203723-4.136788864-1.446179375l-4.006169962,1.481968821,1.947302298,5.264094537,4.085056757-1.511150751Z"/>
      <path class="cls-7" d="M622.407242196,353.817829109l1.050559977-16.790702883c.067816103-1.186102658.641602763-2.052793656,1.767338654-2.469227683l.234528311-.086757089c1.125735891-.416434027,2.097704006-.121551116,2.921095484.734874604l11.726968805,12.064018933c.246784328.267436432.421892623.49836772.509438412.735028106.396716507,1.072434002-.120976656,2.248016095-1.193410659,2.644732602-.944509469.349394459-1.749239584.021732594-2.451500903-.671052149l-2.297874462-2.424565003-8.063509736,2.982866461-.169863939,3.485288566c-.04063708.938512915-.555930712,1.635712263-1.393836404,1.945671681-1.046849096.387252097-2.169129299-.150158586-2.557170097-1.199139758-.106474609-.287830199-.108477516-.614306739-.082763442-.951036388ZM631.864802577,344.545702942l-4.776846178-5.109355676-.301757786,6.988041004,5.078603964-1.878685328Z"/>
      <path class="cls-7" d="M643.622307137,330.253784938c-.416434027-1.125735891.14296454-2.345831709,1.268700431-2.762265737l.420018884-.155374059c.9679623-.358070167,1.717925578-.099830689,2.529849739.404533585l11.554899788,7.333329265-3.496310687-9.451490921c-.416434027-1.125735891.126844043-2.310782393,1.252579934-2.72721642s2.311571094.128976118,2.728005121,1.254712009l5.394713535,14.583396774c.417222728,1.127867967-.145096615,2.34662041-1.270832506,2.763054437l-.132188684.04889945c-.9679623.358070167-1.717925578.099830689-2.529849739-.404533585l-11.978386527-7.59357165,3.631967227,9.818207916c.416434027,1.125735891-.126844043,2.310782393-1.252579934,2.72721642s-2.309439018-.129764819-2.725873046-1.25550071l-5.394713535-14.583396774Z"/>
      <path class="cls-7" d="M669.597652562,320.763711296c-.416434027-1.125735891.142964539-2.345831709,1.268700431-2.762265737l5.131905853-1.898402848c5.760868141-2.131069587,11.204493197.351426151,13.112360454,5.50891691l.01971752.053301889c1.907867258,5.15749076-.590748977,10.636165132-6.351617117,12.767234719l-5.131905853,1.898402848c-1.125735891.416434027-2.344488335-.145885316-2.760922362-1.271621207l-5.288238926-14.295566574ZM681.432407422,330.793043262c3.274868047-1.211444443,4.702936185-4.270199374,3.501744853-7.517350439l-.018928819-.051169813c-1.201191333-3.247151065-4.29578428-4.693471775-7.570652328-3.482027332l-3.114962381,1.152291882,4.087836294,11.050547584,3.114962381-1.152291882Z"/>
      <path class="cls-7" d="M695.450402882,311.02085677c-.416434027-1.125735891.14296454-2.345831709,1.268700431-2.762265737s2.34662041.145096615,2.763054437,1.270832506l5.404966646,14.611113756c.416434027,1.125735891-.145096615,2.34662041-1.270832506,2.763054437s-2.344488335-.145885316-2.760922362-1.271621207l-5.404966646-14.611113756Z"/>
      <path class="cls-7" d="M709.328611489,305.947603399c-.416434027-1.125735891.142964539-2.345831709,1.268700431-2.762265737l.420018884-.155374059c.9679623-.358070167,1.717925578-.099830689,2.529849739.404533585l11.554899788,7.333329265-3.496310687-9.451490921c-.416434027-1.125735891.126844043-2.310782393,1.252579934-2.72721642s2.311571094.128976118,2.728005121,1.254712009l5.394713535,14.583396774c.417222728,1.127867967-.145096615,2.34662041-1.270832506,2.763054437l-.132188684.04889945c-.9679623.358070167-1.717925578.099830689-2.529849739-.404533585l-11.978386527-7.59357165,3.631967227,9.818207916c.416434027,1.125735891-.126844043,2.310782393-1.252579934,2.72721642s-2.309439018-.129764819-2.725873046-1.25550071l-5.394713535-14.583396774Z"/>
      <path class="cls-7" d="M737.155078762,303.958043902l-.018928819-.051169813c-1.927584778-5.210792648.550775977-10.980105543,6.102700713-13.03388245,2.801547275-1.036352863,4.814497099-1.065955751,6.91620692-.53455379.500908586.14192055,1.1384007.502361367,1.438107008,1.312550077.416434027,1.125735891-.126844043,2.310782393-1.252579934,2.72721642-.603377381.223202329-1.020458774.137530278-1.385581653.035061483-1.4262309-.395886758-2.716016559-.422924445-4.470714738.226176321-2.933735959,1.085252314-4.305034353,4.539906169-3.152742471,7.65486855l.01971752.053301889c1.239837672,3.351622767,4.454772077,4.959452379,7.701923143,3.758261047,1.492452886-.552090566,2.640305829-1.393605449,3.39025694-2.504827126l-.968524594-2.618188777-2.724792555,1.007959634c-.9679623.358070167-2.035475667-.10991813-2.394334535-1.080012506-.358070167-.9679623.138423813-2.043596702,1.106386114-2.40166687l4.609547343-1.70517115c1.125735891-.416434027,2.343699634.14375324,2.760133661,1.269489132l1.64680729,4.451773752c.426687138,1.153452873.274922269,2.191246351-.463970316,3.089927601-1.153311538,1.468883054-2.987543878,3.18722959-5.73792134,4.204653634-5.707566252,2.111352066-11.106565128-.414314022-13.121695696-5.861767057Z"/>
    </g>
    <g>
      <path class="cls-7" d="M629.863140461,518.818062282c-.416434027-1.125735891.142964539-2.345831709,1.268700431-2.762265737s2.34662041.145096615,2.763054437,1.270832506l5.404966646,14.611113756c.416434027,1.125735891-.145096615,2.34662041-1.270832506,2.763054437s-2.344488335-.145885316-2.760922362-1.271621207l-5.404966646-14.611113756Z"/>
      <path class="cls-7" d="M647.265938934,512.55975479c-.416434027-1.125735891.14296454-2.345831709,1.268700431-2.762265737l5.131905853-1.898402848c5.760868141-2.131069587,11.204493197.351426151,13.112360454,5.50891691l.01971752.053301889c1.907867258,5.15749076-.590748977,10.636165132-6.351617117,12.767234719l-5.131905853,1.898402848c-1.125735891.416434027-2.344488335-.145885316-2.760922362-1.271621207l-5.288238926-14.295566574ZM659.100693793,522.589086756c3.274868047-1.211444443,4.702936185-4.270199374,3.501744853-7.517350439l-.018928819-.051169813c-1.201191332-3.247151065-4.29578428-4.693471775-7.570652328-3.482027332l-3.114962381,1.152291882,4.087836294,11.050547584,3.114962381-1.152291882Z"/>
      <path class="cls-7" d="M684.526667356,517.320952783c-1.125735891.416434027-2.344488335-.145885316-2.760922362-1.271621207l-5.288238926-14.295566574c-.416434027-1.125735891.14296454-2.345831709,1.268700431-2.762265737l10.159340004-3.758159356c1.021264189-.377787688,2.099030666.117917592,2.476818354,1.139181782.376998987,1.019132114-.128170703,2.071313684-1.149434892,2.449101372l-8.167981439,3.0215128,1.375494211,3.718339762,6.991075734-2.586149954c1.021264189-.377787688,2.09610989.116574218,2.473897578,1.137838407.377787688,1.021264189-.126038627,2.070524983-1.147302817,2.448312671l-6.991075734,2.586149954,1.423604961,3.848396371,8.300170123-3.07041225c1.021264189-.377787688,2.096898591.118706293,2.474686279,1.139970482s-.126038627,2.070524983-1.147302817,2.448312671l-10.291528688,3.807058806Z"/>
      <path class="cls-7" d="M702.716690902,491.928555826c-.416434027-1.125735891.142964539-2.345831709,1.268700431-2.762265737l.420018884-.155374059c.9679623-.358070167,1.717925578-.099830689,2.529849739.404533585l11.554899788,7.333329265-3.496310687-9.451490921c-.416434027-1.125735891.126844043-2.310782393,1.252579934-2.72721642,1.125735891-.416434027,2.311571094.128976118,2.728005121,1.254712009l5.394713535,14.583396774c.417222728,1.127867967-.145096615,2.34662041-1.270832506,2.763054437l-.132188684.04889945c-.9679623.358070167-1.717925578.099830689-2.529849739-.404533585l-11.978386527-7.59357165,3.631967227,9.818207916c.416434027,1.125735891-.126844043,2.310782393-1.252579934,2.72721642s-2.309439018-.129764819-2.725873046-1.25550071l-5.394713535-14.583396774Z"/>
      <path class="cls-7" d="M737.071514205,481.272951032l-3.873981277,1.43306937c-1.021264189.377787688-2.169129299-.150158586-2.546916987-1.171422775s.150158586-2.169129299,1.171422775-2.546916987l11.781849499-4.358360672c1.021264189-.377787688,2.169129299.150158586,2.546916987,1.171422775.377787688,1.021264189-.150158586,2.169129299-1.171422775,2.546916987l-3.873981277,1.43306937,4.71721954,12.751943875c.416434027,1.125735891-.145096615,2.34662041-1.270832506,2.763054437s-2.34662041-.145096615-2.763054437-1.270832506l-4.71721954-12.751943875Z"/>
      <path class="cls-7" d="M758.000881118,471.417143646c-.416434027-1.125735891.142964539-2.345831709,1.268700431-2.762265737s2.34662041.145096615,2.763054437,1.270832506l5.404966646,14.611113756c.416434027,1.125735891-.145096615,2.34662041-1.270832506,2.763054437-1.125735891.416434027-2.344488335-.145885316-2.760922362-1.271621207l-5.404966646-14.611113756Z"/>
      <path class="cls-7" d="M780.299346015,465.282042124l-3.873981277,1.43306937c-1.021264189.377787688-2.169129299-.150158586-2.546916987-1.171422775s.150158586-2.169129299,1.171422775-2.546916987l11.781849499-4.358360672c1.021264189-.377787688,2.169129299.150158586,2.546916987,1.171422775s-.150158586,2.169129299-1.171422775,2.546916987l-3.873981277,1.43306937,4.71721954,12.751943875c.416434027,1.125735891-.145096615,2.34662041-1.270832506,2.763054437s-2.34662041-.145096615-2.763054437-1.270832506l-4.71721954-12.751943875Z"/>
      <path class="cls-7" d="M809.315642139,463.121384696l-8.889911707-5.849280084c-.435871925-.287170667-.808865097-.653349702-1.032067426-1.256727084-.396716507-1.072434003.174278545-2.267733615,1.300014436-2.684167642.916792487-.339141348,1.677008876-.053184887,2.445095557.496481814l6.824974487,4.768608045,2.137742292-8.144706444c.225460525-.917201278.654535027-1.611592304,1.490308644-1.920763022,1.232339669-.455869068,2.275733077.110723546,2.692167104,1.236459437.203484809.550075492.141127301,1.108809979-.001581949,1.60758649l-2.9641685,10.176188463,1.956766708,5.289679444c.416434027,1.125735891-.142964539,2.345831709-1.268700431,2.762265737s-2.34662041-.145096615-2.763054437-1.270832506l-1.927584778-5.210792648Z"/>
    </g>
    <line class="cls-4" x1="571.581279418" y1="314.814047586" x2="719.725734416" y2="260.012213077"/>
    <line class="cls-4" x1="686.874345885" y1="237.171261914" x2="581.659387446" y2="276.09254817"/>
    <line class="cls-4" x1="648.753101732" y1="216.279744199" x2="597.007351097" y2="235.421615306"/>
    <line class="cls-4" x1="815.770667687" y1="519.648125308" x2="667.626212689" y2="574.449959817"/>
    <line class="cls-4" x1="700.47760122" y1="597.29091098" x2="805.692559659" y2="558.369624724"/>
    <line class="cls-4" x1="738.598845373" y1="618.182428695" x2="790.344596008" y2="599.040557588"/>
  </g>
  <g>
    <path class="cls-9" d="M571.209364898,60.68283456c30.745418358,4.75415572,52.094182836,32.324076018,47.589417454,61.456671675-3.184271253,20.592878656-18.453203047,36.525900441-37.986956837,42.426187805-1.308857169,4.323142981-1.292566796,9.085322985.395647481,13.648231272,1.364267634,3.688958447,3.647624759,6.762049343,6.479173266,9.09513143,28.00528992-8.479533216,49.976124068-31.630969115,54.600569103-61.537540466,6.507646895-42.085353974-23.749097371-81.820299174-67.445840426-88.577114727-26.83306889-4.149190181-52.575987735,5.101826719-69.96748764,22.593986925,10.14602963,2.005944607,20.383764147,4.159281309,30.833641081,6.533129062,10.441787688-5.358090766,22.792076822-7.603989677,35.501836518-5.638682975Z"/>
    <path class="cls-9" d="M518.744580291,145.867465224c-8.731058587-10.705732595-13.299093387-24.421153937-11.760002817-38.651139801l-23.336362296-4.829053026c-3.936907176,28.274893268,8.664049751,55.350312638,30.696426804,71.934865341l4.39993831-28.454672515Z"/>
  </g>
</svg>