<?xml version="1.0" encoding="UTF-8"?>
<svg id="Layer_4" data-name="Layer 4" xmlns="http://www.w3.org/2000/svg" xmlns:xlink="http://www.w3.org/1999/xlink" viewBox="0 0 255.424083889 264.901498194">
  <defs>
    <style>
      .cls-1 {
        fill: none;
      }

      .cls-2 {
        clip-path: url(#clippath-1);
      }

      .cls-3 {
        clip-path: url(#clippath-2);
      }

      .cls-4 {
        opacity: .5;
      }
    </style>
    <clipPath id="clippath">
      <rect class="cls-1" x="-1548.668012979" y="-1032.058017557" width="863.414759198" height="1136.941911502" rx="70.929393093" ry="70.929393093"/>
    </clipPath>
    <clipPath id="clippath-1">
      <rect class="cls-1" x="-18.735905015" y="-28.439671101" width="297.253042903" height="297.253042903"/>
    </clipPath>
    <clipPath id="clippath-2">
      <rect class="cls-1" x="-18.735905015" y="-28.439671101" width="297.253042903" height="297.253042903"/>
    </clipPath>
  </defs>
  <g class="cls-4">
    <g class="cls-2">
      <g class="cls-3">
        <path d="M120.440350018,62.761713554c4.13478638-6.771423954,13.95305856-6.821951892,18.156220941-.092143182l31.000522384,49.626394605c1.168197746,1.884580936,3.228163692,3.034941957,5.448648821,3.034941957h53.386643784c5.074111619,0,8.135814333-5.621051594,5.383243717-9.886625503l-32.602697961-50.491402049c-1.180104015-1.828099864-3.207367409-2.930915184-5.383266396-2.930915184H63.953353505c-2.175893317,0-4.203156711,1.102815321-5.383249387,2.930915184l-32.605691537,50.491402049c-2.752559277,4.265573909.309143437,9.886625503,5.383255056,9.886625503h53.389614681c2.217514231,0,4.277480177-1.150361021,5.445677923-3.034941957l30.257389777-49.534251424Z"/>
        <path d="M139.340882854,177.611975807c-4.13478638,6.771423954-13.95305856,6.821957561-18.156220941.092148852l-31.000522384-49.626388936c-1.168197746-1.884592275-3.228163692-3.034964635-5.448648821-3.034964635H31.348846924c-5.077071178,0-8.135814333,5.621062933-5.383243717,9.886636842l32.602709301,50.491407719c1.180098345,1.828105533,3.207361739,2.930909515,5.383255056,2.930909515h131.876306134c2.175898987,0,4.203162381-1.102803981,5.383243717-2.930909515l32.605714216-50.491407719c2.752547937-4.265573909-.309154776-9.886636842-5.386237293-9.886636842h-53.386643784c-2.217514231,0-4.277480177,1.15037236-5.445677923,3.034964635l-30.257389777,49.534240084Z"/>
      </g>
    </g>
  </g>
</svg>