<?xml version="1.0" encoding="UTF-8"?>
<svg xmlns="http://www.w3.org/2000/svg" xmlns:xlink="http://www.w3.org/1999/xlink" viewBox="0 0 248.047730294 257.251447781">
  <defs>
    <style>
      .cls-1 {
        fill: none;
      }

      .cls-2 {
        clip-path: url(#clippath-1);
      }

      .cls-3 {
        clip-path: url(#clippath-2);
      }

      .cls-4 {
        fill: #fff;
      }

      .cls-5 {
        opacity: .5;
      }

      .cls-6 {
        opacity: .1;
      }

      .cls-7 {
        clip-path: url(#clippath);
      }
    </style>
    <clipPath id="clippath">
      <rect class="cls-1" x="-1567.532094095" y="-529.223542973" width="863.414759198" height="1136.941911502" rx="70.929393093" ry="70.929393093"/>
    </clipPath>
    <clipPath id="clippath-1">
      <rect class="cls-1" x="-23.625398515" y="-11.154086539" width="297.253042903" height="297.253042903"/>
    </clipPath>
    <clipPath id="clippath-2">
      <rect class="cls-1" x="-23.625398515" y="-11.154086539" width="297.253042903" height="297.253042903"/>
    </clipPath>
  </defs>
  <g id="Layer_1" data-name="Layer 1">
    <g class="cls-7">
      <g class="cls-6">
        <rect class="cls-4" x="-950.790709691" y="-1283.651609304" width="556.592365197" height="1592.970108255" transform="translate(147.509688058 -618.213220862) rotate(-45)"/>
      </g>
    </g>
  </g>
  <g id="Layer_4" data-name="Layer 4">
    <g class="cls-5">
      <g class="cls-2">
        <g class="cls-3">
          <path d="M125.000533293,232.929896809c.876891034,0,1.744880714-.041615245,2.615829953-.065393764l32.39166218-6.554429369c.591526117-.231860412,1.18603447-.454796793,1.771630131-.698546465l-51.169140892,5.549716035,66.397417545-13.572573894c1.141436989-.737190812,2.268042169-1.501131042,3.376799285-2.285878894l-58.707487313,6.462280518,68.160112305-14.077898624c1.352506788-1.239550314,2.657456536-2.526657668,3.935645528-3.843485337l-62.521235326,6.982476745,69.022148851-14.39894266c1.343594095-1.700283233,2.64257937-3.439216482,3.870240424-5.228677668l-64.994371481,7.362955741,69.518572228-14.648628457c1.174139541-2.0896976,2.270990388-4.223958664,3.287604322-6.405799446l-66.766001612,7.672104847,69.783118183-14.850768555c.8917682-2.413695525,1.673545154-4.877918987,2.37209162-7.377827238l-68.160123645,7.93963304,69.875261365-15.017218194c.535056384-2.678252819.948237933-5.398120883,1.254421811-8.153662397l-69.358053045,8.192306744,69.875261365-15.162882889c.047579718-1.245497779.095114079-2.488013321.095114079-3.745383351,0-1.447620868-.047534361-2.883358145-.109968567-4.313153627l-70.25576304,8.409295659,69.696939475-15.269891898c-.306183878-2.639608472-.704510939-5.249485291-1.218748362-7.820717762l-70.544098855,8.557908574,68.927023433-15.246102039c-.707436479-2.544494393-1.495155229-5.056286234-2.398807019-7.511585664l-70.24387945,8.635197268,67.56562663-15.088576432c-1.07904814-2.375039838-2.247245886-4.69955174-3.507586813-6.967593908l-69.426429046,8.64410996,65.681034356-14.803211515c-1.403034725-2.131290166-2.898212633-4.19422701-4.464737439-6.200694121l-68.249307268,8.60845919,63.359482013-14.413797147c-1.652726193-1.804332683-3.385689299-3.53434757-5.169225699-5.204899148l-66.881934653,8.54006051,60.6247708-13.91738511c-1.771630131-1.39709293-3.578933712-2.746606142-5.445677923-4.015882441l-65.541334134,8.477648982,57.580893472-13.343684379c-1.70325413-.930389869-3.445175286-1.79836821-5.21382318-2.627702204l-64.402845364,8.43306284,53.918729271-12.603522669c-1.251428235-.416175124-2.514751399-.802595916-3.786998596-1.168220424l-63.84401046,8.462794494,47.649659149-11.239132291-46.716287043,6.266099224c-34.876698934,14.360298313-59.435742753,48.666273083-59.435742753,88.721116078,0,52.979404031,42.947125172,95.926523533,95.926529203,95.926523533"/>
        </g>
      </g>
    </g>
  </g>
</svg>