<?xml version="1.0" encoding="UTF-8"?>
<svg xmlns="http://www.w3.org/2000/svg" xmlns:xlink="http://www.w3.org/1999/xlink" viewBox="0 0 258.437911277 268.02715251">
  <defs>
    <style>
      .cls-1 {
        fill: none;
      }

      .cls-2 {
        clip-path: url(#clippath-1);
      }

      .cls-3 {
        clip-path: url(#clippath-2);
      }

      .cls-4 {
        fill: #fff;
      }

      .cls-5 {
        opacity: .5;
      }

      .cls-6 {
        opacity: .1;
      }

      .cls-7 {
        clip-path: url(#clippath);
      }
    </style>
    <clipPath id="clippath">
      <rect class="cls-1" x="-1546.781604868" y="-60.207867823" width="863.414759198" height="1136.941911502" rx="70.929393093" ry="70.929393093"/>
    </clipPath>
    <clipPath id="clippath-1">
      <rect class="cls-1" x="-20.713909577" y="-19.784235118" width="297.253042903" height="297.253042903"/>
    </clipPath>
    <clipPath id="clippath-2">
      <rect class="cls-1" x="-20.713909577" y="-19.784235118" width="297.253042903" height="297.253042903"/>
    </clipPath>
  </defs>
  <g id="Layer_1" data-name="Layer 1">
    <g class="cls-7">
      <g class="cls-6">
        <rect class="cls-4" x="-930.040220465" y="-814.635934155" width="556.592365197" height="1592.970108255" transform="translate(-178.056798741 -466.168898448) rotate(-45)"/>
      </g>
    </g>
  </g>
  <g id="Layer_4" data-name="Layer 4">
    <g class="cls-5">
      <g class="cls-2">
        <g class="cls-3">
          <path d="M127.91349634,23.58229688c-58.038655493,0-105.260272936,47.218652215-105.260272936,105.260284275,0,58.038655493,47.221617443,105.260272936,105.260272936,105.260272936,58.038661162,0,105.257290699-47.221617443,105.257290699-105.260272936,0-58.04163206-47.218629537-105.260284275-105.257290699-105.260284275M185.640054508,134.419046607h36.092459389c-.977969587,16.878031949-6.379061368,32.968333809-15.733601384,46.888701156-7.633483179-5.011688753-15.831709039-9.253495481-24.434203755-12.63623656,2.380981634-10.938901547,3.751313807-22.430707542,4.07534575-34.252464596M221.732513897,123.266115703h-36.092459389c-.324031943-11.800949432-1.694364116-23.295714985-4.07534575-34.252475935,8.599523818-3.38274108,16.794778781-7.624525129,24.434203755-12.639196118,9.357510913,13.914414213,14.755631797,30.001756514,15.733601384,46.891672054M133.486990895,123.266115703v-24.526346937c12.960234485-.4458841,25.525124146-2.482060187,37.44199528-6.066935694,2.048059677,9.797453218,3.240047282,20.055667703,3.549202058,30.593282631h-40.991197338ZM168.280465009,81.855795022c-10.995393958,3.35895122-22.671486316,5.279216945-34.793474115,5.725089706v-52.129262415c9.913386259,2.419648659,19.244159095,11.307508292,26.586312883,25.447824113,3.228163692,6.203687697,5.983705205,13.242628504,8.207161232,20.956348596M178.841869797,78.068785087c-2.386946107-8.120937166-5.359476536-15.623610138-8.852208862-22.35044795-3.034941957-5.841011407-6.408770344-10.947825579-10.091730828-15.278804591,15.15098796,5.466474206,28.738422011,14.782369875,39.302797695,27.041109676-6.390944958,4.131815482-13.215867747,7.678023964-20.358858006,10.588142865M160.073303778,196.711398088c-7.357008276,14.167076578-16.690752009,23.081696967-26.586312883,25.513229217v-52.120349722c12.089285246.442901863,23.762418047,2.363156248,34.790503217,5.725089706-2.220485129,7.663186485-4.976026643,14.675383545-8.204190334,20.8820308M133.486990895,158.942422647v-24.523376039h40.991197338c-.309154776,10.555462992-1.498148805,20.816625696-3.549202058,30.590311734-11.916871134-3.584875507-24.481760795-5.621051594-37.44199528-6.066935694M159.713632404,217.41507298c3.748354249-4.390430982,7.184605503-9.577493405,10.276028531-15.522554263,3.48679053-6.71792512,6.459320959-14.220586752,8.852208862-22.350459289,7.134054887,2.904160097,13.982767535,6.477146345,20.4361467,10.659495434-10.623838993,12.365726131-24.306387124,21.741085109-39.564384093,27.213518119M95.747747108,60.896475529c7.345124686-14.134374026,16.693734246-23.063848903,26.586312883-25.49835205v52.182761249c-12.119005561-.445872761-23.792138362-2.366138485-34.790491878-5.725089706,2.226415585-7.710749194,4.978986201-14.74971268,8.204178995-20.959319494M122.334059991,98.739768766v24.526346937h-40.991197338c.309143437-10.537614928,1.501131042-20.795829413,3.552172956-30.593282631,11.916882473,3.584875507,24.481760795,5.621051594,37.439024382,6.066935694M85.834360848,55.718337137c-3.501645018,6.7416923-6.474175447,14.244365272-8.852197523,22.35044795-7.140019361-2.907125325-13.961976922-6.453356486-20.355887108-10.585194646,10.58220674-12.26168802,24.172617358-21.580554586,39.305768593-27.044057895-3.691884516,4.336920807-7.068672462,9.443734979-10.097683962,15.278804591M122.334059991,134.419046607v24.523376039c-12.957263587.4458841-25.522141909,2.482060187-37.439024382,6.066935694-2.054012811-9.773686038-3.243029519-20.034848742-3.552172956-30.590311734h40.991197338ZM34.017207099,123.266115703c.98688228-16.860195224,6.408776013-32.950497084,15.801971715-46.894642951,7.636431398,5.017641887,15.837645165,9.256455039,24.437174653,12.642167016-2.380998643,10.950807816-3.748359919,22.445584708-4.072369182,34.252475935h-36.166777186ZM74.256353467,168.671511203c-8.602506055,3.38274108-16.800743255,7.624547808-24.437174653,12.639207458-9.393195702-13.947116764-14.815089436-30.040400861-15.801971715-46.891672054h36.166777186c.324009264,11.824727952,1.69137054,23.319504844,4.072369182,34.252464596M87.546539011,175.829367288c11.022143375-3.35896256,22.698235734-5.282187842,34.78752098-5.725089706v52.120349722c-9.895549535-2.437479714-19.229304607-11.349123537-26.586312883-25.513229217-3.231134589-6.218536515-5.986676103-13.230733575-8.201208097-20.8820308M76.982163326,179.542059427c2.38396387,8.115006711,5.3564943,15.62065058,8.852197523,22.350459289,3.085481233,5.942084291,6.521732487,11.129152384,10.270086736,15.516606798-15.240160244-5.47243301-28.916772249-14.84482109-39.558430958-27.207570654,6.456338723-4.185325656,13.305045701-7.758306234,20.4361467-10.659495434"/>
        </g>
      </g>
    </g>
  </g>
</svg>