<?xml version="1.0" encoding="UTF-8"?>
<svg id="Layer_1" data-name="Layer 1" xmlns="http://www.w3.org/2000/svg" viewBox="0 0 271.642768057 279.188400503">
  <defs>
    <style>
      .cls-1 {
        fill: #c3c2c2;
      }

      .cls-2 {
        fill: #1f1f1f;
      }
    </style>
  </defs>
  <path class="cls-1" d="M231.673991469,158.103655891c13.250488281-37.386657715,6.251953125-76.925598145-22.139648438-105.270751953-20.041015625-20.008178711-46.493164062-30.139038086-72.986328125-30.147033691-26.494140625.007995605-52.945800781,10.13885498-72.986816406,30.147033691-28.391601562,28.345153809-35.390136719,67.884094238-22.139648438,105.270751953,1.797851562,5.286804199-4.329101562,11.800231934-5.392578125,16.675476074-2.8125,12.898193359,1.90625,25.518493652,10.799804688,33.932922363,8.775878906,8.303466797,21.842285156,12.898681641,34.258789062,9.422485352,9.787109375-2.740112305,12.149902344,4.376647949,14.363769531,12.282470703,1.955566406,6.981628418,6.73046875,12.865234375,13.212890625,16.112670898,2.557252135,1.281162872,5.376723518,2.377338147,8.314344372,3.288417786,12.721163354,3.945367187,26.417374202,3.945373289,39.138525163-.000033856,2.937566638-.91107294,5.75699985-2.007236928,8.314220309-3.288383931,6.482421875-3.247436523,11.257324219-9.13104248,13.212890625-16.112670898,2.214355469-7.905822754,4.576660156-15.022583008,14.363769531-12.282470703,12.416503906,3.476196289,25.482421875-1.119018555,34.258789062-9.422485352,8.893554688-8.414428711,13.612304688-21.034729004,10.799804688-33.932922363-1.063476562-4.875244141-7.190429688-11.388671875-5.392578125-16.675476074Z"/>
  <path class="cls-2" d="M109.309607793,184.133430947c-13.113104893,7.512140095-29.539576056,3.712649429-38.068238643-7.876700166-3.613325026-4.910041463-5.453808984-13.393100028-.506906978-17.77296868,12.426734118-11.002333007,31.686308869-8.654860385,41.483932087,4.168208236,5.192244889,6.79557797,5.658095666,16.573727524-2.908786466,21.481460611Z"/>
  <path class="cls-2" d="M204.45197731,176.384254217c-8.67956403,11.673375862-24.247609135,14.605595739-36.705650743,8.546717489-6.775157953-3.295048969-9.849257097-10.775949908-6.555222455-17.721951878,6.566721127-13.846987916,22.285507793-18.654967926,36.314844447-13.534585622,4.498617091,1.64189084,8.176539022,4.337203377,9.329939442,7.236988846,2.059120808,5.17687396,1.249272913,10.586466176-2.383910691,15.472831164Z"/>
  <path class="cls-2" d="M147.779347814,215.468684053c-3.572215334,3.876447383-15.151331771,3.442838293-19.121884522.764430861-5.299929454-3.575162283,2.212191951-21.881045532,8.845327072-22.231987651,7.425170796-.392846689,13.975619717,17.453459402,10.27655745,21.46755679Z"/>
</svg>