<?xml version="1.0" encoding="UTF-8"?>
<svg id="Layer_1" data-name="Layer 1" xmlns="http://www.w3.org/2000/svg" xmlns:xlink="http://www.w3.org/1999/xlink" viewBox="0 0 187.725816546 1911.390132105">
  <defs>
    <style>
      .cls-1, .cls-2, .cls-3 {
        fill: none;
      }

      .cls-4 {
        fill: #f1ede4;
      }

      .cls-5 {
        fill: #1a1917;
      }

      .cls-2 {
        opacity: .35;
      }

      .cls-2, .cls-3 {
        stroke: #d8d3ca;
        stroke-miterlimit: 10;
        stroke-width: 3px;
      }

      .cls-6 {
        clip-path: url(#clippath);
      }
    </style>
    <clipPath id="clippath">
      <path class="cls-1" d="M150.015937722,76.328159023c0-29.914158563-24.249942862-54.164411725-54.164101425-54.164411725h0c-29.914158563,0-54.164101425,24.250253162-54.164101425,54.164411725l-.183454864,1568.560033215c-.004488163,38.374310433,4.821423294,76.596579469,14.363935301,113.765493711l30.31405324,118.075873969c2.592866571,9.968076321,16.746268924,9.968076321,19.339756095,0l30.313922155-118.076183327c9.542393453-37.168710567,14.368240559-75.390756473,14.363745101-113.764840147l-.183754178-1568.560377422Z"/>
    </clipPath>
  </defs>
  <path class="cls-4" d="M150.015937722,76.328159023c0-29.914158563-24.249942862-54.164411725-54.164101425-54.164411725h0c-29.914158563,0-54.164101425,24.250253162-54.164101425,54.164411725l-.183454864,1568.560033215c-.004488163,38.374310433,4.821423294,76.596579469,14.363935301,113.765493711l30.31405324,118.075873969c2.592866571,9.968076321,16.746268924,9.968076321,19.339756095,0l30.313922155-118.076183327c9.542393453-37.168710567,14.368240559-75.390756473,14.363745101-113.764840147l-.183754178-1568.560377422Z"/>
  <rect class="cls-2" x="71.830430568" y="44.619686646" width="48.043110777" height="1672.773765291" rx="18.899878142" ry="18.899878142"/>
  <g class="cls-6">
    <line class="cls-3" x1="38.767930137" y1="1779.718252458" x2="151.172615397" y2="1779.718252458"/>
  </g>
  <g>
    <path class="cls-5" d="M110.683075366,380.183110589h-26.866210938v-3.3515625h26.866210938v3.3515625Z"/>
    <path class="cls-5" d="M110.683075366,371.953618402h-26.866210938v-3.239257812h26.866210938v3.239257812Z"/>
    <path class="cls-5" d="M110.683075366,364.171391839h-26.866210938v-3.239257812h26.866210938v3.239257812Z"/>
    <path class="cls-5" d="M111.055145678,349.947759027c0,1.415039062-.291015625,2.622070312-.875,3.62109375-.583007812.999023438-1.411132812,1.762695312-2.485351562,2.290039062-1.073242188.52734375-2.342773438.791015625-3.807617188.791015625h-12.56640625v-3.239257812h11.989257812c1.577148438,0,2.784179688-.369140625,3.62109375-1.108398438.837890625-.73828125,1.256835938-1.852539062,1.256835938-3.341796875,0-.76953125-.129882812-1.4609375-.390625-2.076171875-.260742188-.614257812-.629882812-1.14453125-1.107421875-1.591796875-.478515625-.446289062-1.055664062-.788085938-1.731445312-1.0234375-.676757812-.235351562-1.424804688-.353515625-2.244140625-.353515625h-11.393554688v-3.240234375h19.362304688v3.240234375h-2.755859375v.07421875c.595703125.34765625,1.129882812.797851562,1.6015625,1.349609375.471679688.552734375.84375,1.213867188,1.1171875,1.983398438.272460938.76953125.409179688,1.64453125.409179688,2.625Z"/>
    <path class="cls-5" d="M111.055145678,329.598149652c0,1.514648438-.2421875,2.823242188-.725585938,3.927734375-.484375,1.10546875-1.161132812,1.977539062-2.029296875,2.616210938-.869140625.639648438-1.880859375,1.02734375-3.03515625,1.1640625l-.166992188.018554688v-3.240234375l.185546875-.037109375c.96875-.198242188,1.72265625-.6640625,2.262695312-1.396484375.5390625-.731445312.809570312-1.755859375.809570312-3.071289062,0-.881835938-.114257812-1.631835938-.344726562-2.252929688-.229492188-.62109375-.55859375-1.098632812-.986328125-1.43359375-.428710938-.334960938-.93359375-.502929688-1.517578125-.502929688h-.018554688c-.6953125,0-1.25390625.2109375-1.67578125.6328125-.421875.422851562-.76953125,1.185546875-1.04296875,2.290039062l-.744140625,3.072265625c-.297851562,1.216796875-.685546875,2.224609375-1.1640625,3.025390625-.477539062.80078125-1.063476562,1.399414062-1.758789062,1.796875s-1.508789062.595703125-2.439453125.595703125h-.018554688c-1.1171875,0-2.103515625-.30078125-2.959960938-.903320312-.856445312-.6015625-1.52734375-1.439453125-2.010742188-2.513671875-.484375-1.073242188-.7265625-2.3046875-.7265625-3.6953125,0-1.415039062.251953125-2.646484375.75390625-3.6953125.502929688-1.048828125,1.185546875-1.874023438,2.048828125-2.4765625.862304688-.6015625,1.833007812-.940429688,2.913085938-1.014648438l.2421875-.018554688v3.090820312l-.129882812.018554688c-.943359375.124023438-1.701171875.537109375-2.271484375,1.23828125-.571289062.701171875-.856445312,1.653320312-.856445312,2.857421875,0,.782226562.118164062,1.458984375.353515625,2.029296875.235351562.571289062.567382812,1.008789062.99609375,1.3125.427734375.3046875.927734375.456054688,1.499023438.456054688h.018554688c.434570312,0,.828125-.102539062,1.181640625-.306640625.354492188-.205078125.661132812-.53125.921875-.977539062.260742188-.447265625.477539062-1.024414062.651367188-1.731445312l.745117188-3.072265625c.471679688-1.9609375,1.120117188-3.338867188,1.9453125-4.1328125.826171875-.794921875,1.926757812-1.19140625,3.3046875-1.19140625h.018554688c1.129882812,0,2.12890625.325195312,2.998046875.9765625.868164062.65234375,1.547851562,1.545898438,2.038085938,2.681640625s.735351562,2.423828125.735351562,3.86328125Z"/>
    <path class="cls-5" d="M111.055145678,312.432134027c0,1.774414062-.421875,3.102539062-1.265625,3.984375-.84375.880859375-2.190429688,1.321289062-4.040039062,1.321289062h-11.748046875v2.830078125h-2.680664062v-2.830078125h-5.232421875v-3.350585938h5.232421875v-3.686523438h2.680664062v3.686523438h11.729492188c1.030273438,0,1.728515625-.223632812,2.094726562-.670898438.366210938-.446289062.548828125-1.104492188.548828125-1.973632812,0-.198242188-.009765625-.387695312-.028320312-.567382812s-.033203125-.337890625-.045898438-.474609375h2.625c.024414062.198242188.052734375.456054688.083984375.772460938.030273438.31640625.045898438.635742188.045898438.958984375Z"/>
    <path class="cls-5" d="M110.683075366,307.237798089h-19.362304688v-3.240234375h3.276367188v-.07421875c-1.1171875-.322265625-2.00390625-.880859375-2.662109375-1.67578125-.658203125-.793945312-.987304688-1.737304688-.987304688-2.830078125,0-.28515625.015625-.541992188.046875-.772460938.03125-.229492188.05859375-.40625.083984375-.530273438h3.146484375c-.049804688.124023438-.09375.344726562-.130859375.661132812s-.055664062.672851562-.055664062,1.0703125c0,.83203125.186523438,1.560546875.55859375,2.1875s.909179688,1.111328125,1.610351562,1.452148438c.701171875.341796875,1.541992188.51171875,2.522460938.51171875h11.953125v3.240234375Z"/>
    <path class="cls-5" d="M111.055145678,290.202641839c0,1.278320312-.2421875,2.401367188-.725585938,3.370117188-.484375.967773438-1.166992188,1.721679688-2.047851562,2.26171875-.881835938.540039062-1.905273438.809570312-3.072265625.809570312h-.037109375c-1.104492188,0-2.060546875-.275390625-2.8671875-.828125-.806640625-.551757812-1.446289062-1.352539062-1.91796875-2.401367188s-.750976562-2.311523438-.837890625-3.7890625l-.409179688-7.16796875h2.513671875l.409179688,6.795898438c.07421875,1.291015625.384765625,2.29296875.930664062,3.006835938.546875.713867188,1.272460938,1.0703125,2.178710938,1.0703125h.037109375c.930664062,0,1.669921875-.350585938,2.215820312-1.051757812s.819335938-1.635742188.819335938-2.802734375c0-1.017578125-.21484375-1.932617188-.642578125-2.74609375-.428710938-.8125-1.014648438-1.458007812-1.759765625-1.935546875-.744140625-.478515625-1.58203125-.716796875-2.513671875-.716796875h-5.715820312c-1.178710938,0-2.106445312.369140625-2.783203125,1.107421875-.67578125.73828125-1.014648438,1.784179688-1.014648438,3.13671875,0,1.2421875.270507812,2.244140625.810546875,3.006835938.5390625.763671875,1.244140625,1.23828125,2.112304688,1.424804688l.16796875.037109375v3.127929688l-.205078125-.018554688c-1.067382812-.099609375-2.03515625-.462890625-2.904296875-1.088867188-.868164062-.626953125-1.560546875-1.493164062-2.076171875-2.59765625-.514648438-1.104492188-.772460938-2.4140625-.772460938-3.928710938,0-1.526367188.260742188-2.844726562.782226562-3.956054688.521484375-1.110351562,1.256835938-1.970703125,2.206054688-2.578125.94921875-.608398438,2.0703125-.913085938,3.360351562-.913085938h13.38671875v3.240234375h-3.146484375v.07421875c.708007812.372070312,1.325195312.869140625,1.852539062,1.489257812.52734375.62109375.9375,1.319335938,1.228515625,2.094726562.291992188.775390625.4375,1.59765625.4375,2.466796875Z"/>
    <path class="cls-5" d="M111.055145678,270.430180902c0,1.774414062-.421875,3.102539062-1.265625,3.984375-.84375.880859375-2.190429688,1.321289062-4.040039062,1.321289062h-11.748046875v2.830078125h-2.680664062v-2.830078125h-5.232421875v-3.350585938h5.232421875v-3.686523438h2.680664062v3.686523438h11.729492188c1.030273438,0,1.728515625-.223632812,2.094726562-.670898438.366210938-.446289062.548828125-1.104492188.548828125-1.973632812,0-.198242188-.009765625-.387695312-.028320312-.567382812s-.033203125-.337890625-.045898438-.474609375h2.625c.024414062.198242188.052734375.456054688.083984375.772460938.030273438.31640625.045898438.635742188.045898438.958984375Z"/>
    <path class="cls-5" d="M88.043426928,263.410649652c0,.55859375-.198242188,1.037109375-.595703125,1.43359375-.397460938.397460938-.875.595703125-1.43359375.595703125-.5703125,0-1.051757812-.198242188-1.442382812-.595703125-.391601562-.396484375-.586914062-.875-.586914062-1.43359375,0-.5703125.1953125-1.051757812.586914062-1.442382812.390625-.391601562.872070312-.586914062,1.442382812-.586914062.55859375,0,1.036132812.1953125,1.43359375.586914062.397460938.390625.595703125.872070312.595703125,1.442382812ZM110.683075366,265.030766839h-19.362304688v-3.239257812h19.362304688v3.239257812Z"/>
    <path class="cls-5" d="M111.055145678,249.354985589c0,1.787109375-.409179688,3.354492188-1.228515625,4.701171875s-1.982421875,2.395507812-3.491210938,3.146484375c-1.5078125.750976562-3.286132812,1.125976562-5.333984375,1.125976562h-.037109375c-2.059570312,0-3.837890625-.375-5.333984375-1.125976562-1.495117188-.750976562-2.649414062-1.799804688-3.462890625-3.146484375-.8125-1.346679688-1.219726562-2.907226562-1.219726562-4.682617188,0-1.787109375.407226562-3.354492188,1.219726562-4.701171875.813476562-1.346679688,1.967773438-2.395507812,3.462890625-3.146484375,1.49609375-.750976562,3.274414062-1.125976562,5.333984375-1.125976562h.037109375c2.060546875,0,3.841796875.375,5.34375,1.125976562s2.662109375,1.796875,3.481445312,3.13671875c.819335938,1.340820312,1.228515625,2.905273438,1.228515625,4.692382812ZM108.187958178,249.336430902c0-1.142578125-.282226562-2.131835938-.846679688-2.969726562s-1.383789062-1.489257812-2.458007812-1.955078125c-1.073242188-.465820312-2.3671875-.698242188-3.881835938-.698242188h-.037109375c-1.513671875,0-2.8046875.232421875-3.872070312.698242188s-1.880859375,1.123046875-2.439453125,1.973632812-.837890625,1.846679688-.837890625,2.98828125c0,1.1171875.283203125,2.100585938.84765625,2.951171875.564453125.849609375,1.377929688,1.510742188,2.438476562,1.982421875,1.061523438.471679688,2.349609375.70703125,3.86328125.70703125h.037109375c1.514648438,0,2.80859375-.235351562,3.881835938-.70703125,1.07421875-.471679688,1.893554688-1.1328125,2.458007812-1.982421875.564453125-.850585938.846679688-1.846679688.846679688-2.98828125Z"/>
    <path class="cls-5" d="M110.683075366,237.141118402h-19.362304688v-3.240234375h2.754882812v-.07421875c-.905273438-.521484375-1.653320312-1.278320312-2.243164062-2.271484375-.58984375-.9921875-.884765625-2.221679688-.884765625-3.686523438,0-2.122070312.642578125-3.76953125,1.926757812-4.942382812,1.28515625-1.172851562,3.032226562-1.759765625,5.241210938-1.759765625h12.567382812v3.239257812h-11.990234375c-1.576171875,0-2.783203125.370117188-3.62109375,1.108398438s-1.256835938,1.852539062-1.256835938,3.341796875c0,1.017578125.2265625,1.905273438.6796875,2.662109375s1.088867188,1.34375,1.908203125,1.759765625,1.78125.623046875,2.885742188.623046875h11.39453125v3.240234375Z"/>
  </g>
</svg>