<?xml version="1.0" encoding="UTF-8"?>
<svg id="Layer_1" data-name="Layer 1" xmlns="http://www.w3.org/2000/svg" xmlns:xlink="http://www.w3.org/1999/xlink" viewBox="0 0 145.06085824 1954.055090411">
  <defs>
    <style>
      .cls-1, .cls-2 {
        fill: none;
      }

      .cls-3 {
        fill: #b59f6f;
      }

      .cls-4 {
        fill: #191817;
      }

      .cls-5 {
        fill: #1a1917;
      }

      .cls-6 {
        fill: #d1af9b;
      }

      .cls-7 {
        fill: #ab6a6c;
      }

      .cls-8 {
        fill: #cebb8a;
      }

      .cls-9 {
        clip-path: url(#clippath);
      }

      .cls-2 {
        opacity: .4;
        stroke: #4c4944;
        stroke-linecap: round;
        stroke-miterlimit: 10;
        stroke-width: 3px;
      }
    </style>
    <clipPath id="clippath">
      <path class="cls-1" d="M112.852570119,1799.265924176l-33.638663655,132.063062933c-1.041427599,4.088572601-6.870151653,4.028594902-7.827224637-.080542314l-36.522154359-156.805746402,47.351772542-7.684278877,33.096151009-7.459604305.061026547,19.600428975c.021383745,6.86800394-.825634795,13.711157019-2.520907446,20.366679991Z"/>
    </clipPath>
  </defs>
  <g>
    <path class="cls-7" d="M28.518311001,16.632510415h93.163882419c5.085382656,0,9.214068164,4.128685508,9.214068164,9.214068164v76.813998034c0,8.773549417-7.12300898,15.896558396-15.896558396,15.896558396H35.200801233c-8.773549417,0-15.896558396-7.12300898-15.896558396-15.896558396V25.846578579c0-5.085382656,4.128685508-9.214068164,9.214068164-9.214068164Z" transform="translate(150.200504421 135.189645424) rotate(180)"/>
    <path class="cls-3" d="M130.896221192,61.530806946H19.304283229v88.701136529c0,8.595991468,2.713129944,16.972684084,7.752764706,23.93638646l.000160222.000221392c5.039634762,6.963702377,7.752764706,15.340394992,7.752764706,23.93638646v74.872338319h80.580248397v-74.872123938c0-8.596124044,2.713213537-16.972938947,7.752992214-23.936700824l.000015506-.000021426c5.039778676-6.963761877,7.752992214-15.34057678,7.752992214-23.936700824V61.530806946Z"/>
    <path class="cls-6" d="M112.852570119,1799.265924176l-33.638663655,132.063062933c-1.041427599,4.088572601-6.870151653,4.028594902-7.827224637-.080542314l-36.522154359-156.805746402,47.351772542-7.684278877,33.096151009-7.459604305.061026547,19.600428975c.021383745,6.86800394-.825634795,13.711157019-2.520907446,20.366679991Z"/>
    <rect class="cls-5" x="34.943302924" y="272.977146598" width="80.508502072" height="1498.959089256"/>
    <path class="cls-4" d="M34.943302924,1771.936235855c0,12.258090119,9.937046324,22.195136444,22.194826144,22.195136444,12.258090119,0,22.194826144-9.937046324,22.194826144-22.195136444h-44.389652287Z"/>
    <path class="cls-5" d="M115.405681877,1771.936534227h-36.07237182c0,12.258090119,9.937046324,22.195136444,22.194515844,22.195136444,3.276610165,0,6.384341911-.713873206,9.181498707-1.991349097,2.865267044-1.30858219,4.696357269-4.179685901,4.696357269-7.329629168v-12.874158179Z"/>
    <line class="cls-2" x1="76.928304396" y1="285.026776866" x2="76.928304396" y2="1745.791259886"/>
    <g class="cls-9">
      <rect class="cls-4" x="60.77406528" y="1906.471775072" width="30.406123392" height="39.564594294"/>
    </g>
    <rect class="cls-8" x="18.300050303" y="235.152947292" width="111.979164133" height="23.912323915" rx="9.406968129" ry="9.406968129"/>
    <rect class="cls-8" x="18.300050303" y="196.710545614" width="111.979164133" height="23.912323962" rx="9.406968178" ry="9.406968178"/>
  </g>
  <g>
    <path class="cls-8" d="M63.076639715,724.778304702h11.7734375v4.362304688h-2.623046875c1.73828125,2.07421875,2.927734375,5.124023438,2.927734375,9.333984375,0,8.90625-4.178710938,13.51171875-10.98046875,13.51171875-7.045898438,0-11.01171875-4.60546875-11.01171875-13.51171875,0-9.638671875,3.416992188-13.482421875,8.418945312-13.696289062v5.125c-1.616210938.212890625-4.178710938,1.09765625-4.178710938,8.571289062,0,7.625,4.240234375,8.631835938,6.771484375,8.631835938,2.592773438,0,6.741210938-1.219726562,6.741210938-8.631835938,0-5.826171875-2.684570312-7.930664062-4.056640625-8.266601562v8.205078125h-3.782226562v-13.634765625Z"/>
    <path class="cls-8" d="M74.850077215,697.50779689v5.734375l-5.520507812,3.385742188v10.67578125h5.520507812v4.758789062h-21.381835938v-16.166015625c0-3.721679688,1.920898438-8.510742188,7.930664062-8.510742188,3.750976562,0,5.947265625,1.952148438,7.045898438,4.30078125l6.405273438-4.178710938ZM57.73874909,717.303695327h7.3203125v-10.065429688c0-2.196289062-.030273438-5.09375-3.66015625-5.09375-3.5390625,0-3.66015625,2.897460938-3.66015625,5.09375v10.065429688Z"/>
    <path class="cls-8" d="M74.850077215,691.345687515v5.612304688l-21.381835938-11.499023438v-6.741210938l21.381835938-11.5v5.61328125l-4.514648438,2.409179688v13.6953125l4.514648438,2.41015625ZM57.951639715,682.31639064l8.174804688,4.362304688v-9.181640625l-8.174804688,4.392578125v.426757812Z"/>
    <path class="cls-8" d="M74.850077215,664.471664077h-21.381835938v-16.166015625c0-3.721679688,1.920898438-8.510742188,7.930664062-8.510742188,5.88671875,0,7.930664062,4.606445312,7.930664062,8.510742188v11.407226562h5.520507812v4.758789062ZM57.73874909,659.712875015h7.3203125v-9.8828125c0-2.37890625-.030273438-5.276367188-3.66015625-5.276367188-3.5390625,0-3.66015625,2.897460938-3.66015625,5.276367188v9.8828125Z"/>
    <path class="cls-8" d="M53.468241277,637.049789077v-4.758789062h8.509765625v-17.782226562h-8.509765625v-4.758789062h21.381835938v4.758789062h-8.509765625v17.782226562h8.509765625v4.758789062h-21.381835938Z"/>
    <path class="cls-8" d="M74.850077215,606.48435939h-21.381835938v-4.758789062h21.381835938v4.758789062Z"/>
    <path class="cls-8" d="M64.174295965,599.041000015c-7.045898438,0-11.01171875-4.361328125-11.01171875-13.481445312s3.66015625-13.268554688,9.364257812-13.6953125v5.032226562c-2.805664062.396484375-5.124023438,2.8984375-5.124023438,8.418945312,0,5.978515625,2.134765625,8.845703125,6.771484375,8.845703125,4.666992188,0,6.741210938-3.081054688,6.741210938-8.845703125,0-5.490234375-2.135742188-8.022460938-4.94140625-8.418945312v-5.063476562c5.3984375.458007812,9.180664062,4.606445312,9.180664062,13.7265625s-4.178710938,13.481445312-10.98046875,13.481445312Z"/>
    <path class="cls-8" d="M74.850077215,554.14060939h-21.381835938v-15.0078125c0-5.947265625,2.71484375-11.194335938,10.706054688-11.194335938,7.625976562,0,10.67578125,5.491210938,10.67578125,11.1640625v15.038085938ZM57.585428777,549.19920314h13.177734375v-8.6015625c0-5.002929688-1.76953125-7.778320312-6.588867188-7.778320312-4.849609375,0-6.588867188,2.623046875-6.588867188,7.778320312v8.6015625Z"/>
    <path class="cls-8" d="M53.468241277,525.497054702v-22.846679688h4.1484375v18.087890625h4.513671875v-17.01953125h4.056640625v17.01953125h4.514648438v-18.087890625h4.1484375v22.846679688h-21.381835938Z"/>
    <path class="cls-8" d="M68.53562409,478.217757827c-1.890625,0-2.165039062,1.463867188-2.53125,8.571289062-.426757812,9.2421875-1.890625,12.932617188-6.6796875,12.932617188-4.697265625,0-6.130859375-4.7890625-6.130859375-12.719726562,0-8.052734375,2.012695312-12.932617188,7.380859375-12.932617188v5.24609375c-2.561523438,0-3.202148438,2.41015625-3.202148438,8.296875,0,5.520507812.579101562,7.045898438,2.2265625,7.045898438,1.708007812,0,2.07421875-1.525390625,2.440429688-7.869140625.45703125-8.418945312.915039062-13.634765625,6.313476562-13.634765625,5.673828125,0,6.801757812,5.459960938,6.801757812,13.23828125,0,8.75390625-1.494140625,14.030273438-7.77734375,14.030273438v-5.276367188c2.500976562,0,3.568359375-1.921875,3.568359375-9.059570312,0-5.825195312-.670898438-7.869140625-2.41015625-7.869140625Z"/>
    <path class="cls-8" d="M74.850077215,470.438460952h-21.381835938v-4.758789062h21.381835938v4.758789062Z"/>
    <path class="cls-8" d="M63.076639715,435.787093765h11.7734375v4.362304688h-2.623046875c1.73828125,2.07421875,2.927734375,5.124023438,2.927734375,9.333984375,0,8.90625-4.178710938,13.51171875-10.98046875,13.51171875-7.045898438,0-11.01171875-4.60546875-11.01171875-13.51171875,0-9.639648438,3.416992188-13.482421875,8.418945312-13.696289062v5.125c-1.616210938.212890625-4.178710938,1.09765625-4.178710938,8.571289062,0,7.625,4.240234375,8.631835938,6.771484375,8.631835938,2.592773438,0,6.741210938-1.219726562,6.741210938-8.631835938,0-5.826171875-2.684570312-7.930664062-4.056640625-8.266601562v8.205078125h-3.782226562v-13.634765625Z"/>
    <path class="cls-8" d="M74.850077215,433.071273452h-21.381835938v-6.619140625l16.135742188-16.043945312h-16.135742188v-4.758789062h21.381835938v6.557617188l-16.227539062,16.10546875h16.227539062v4.758789062Z"/>
  </g>
</svg>