<?xml version="1.0" encoding="UTF-8"?>
<svg id="Layer_1" data-name="Layer 1" xmlns="http://www.w3.org/2000/svg" viewBox="0 0 1250.688577929 382.940846636">
  <defs>
    <style>
      .cls-1 {
        fill: #8c3111;
      }

      .cls-2, .cls-3 {
        fill: #5a1e0e;
      }

      .cls-4, .cls-5 {
        fill: #1a1917;
      }

      .cls-6 {
        fill: #ccc5b0;
      }

      .cls-5 {
        opacity: .7;
      }

      .cls-7 {
        opacity: .5;
      }

      .cls-8 {
        stroke: #ccc4b0;
        stroke-linecap: round;
        stroke-linejoin: round;
        stroke-width: 3px;
      }

      .cls-8, .cls-9 {
        fill: none;
      }

      .cls-9, .cls-3 {
        stroke: #5b1b07;
        stroke-miterlimit: 10;
        stroke-width: 4px;
      }

      .cls-10 {
        fill: #d1cfcd;
      }

      .cls-11 {
        fill: #ccc4b0;
      }

      .cls-12 {
        fill: #b2b2b2;
      }
    </style>
  </defs>
  <g>
    <path class="cls-10" d="M65.0635368,211.919679142c-14.314453125,0-25.9609375-11.646484375-25.9609375-25.961914062,0-14.314453125,11.646484375-25.9609375,25.9609375-25.9609375h38.25v51.922851562h-38.25Z"/>
    <path class="cls-12" d="M98.313292659,164.996339299v41.923339844h-33.249511719c-11.576660156,0-20.961425781-9.384765625-20.961425781-20.961425781,0-11.577148438,9.384765625-20.961914062,20.961425781-20.961914062h33.249511719M108.313292659,154.996339299h-43.249511719c-17.072265625,0-30.961425781,13.889648438-30.961425781,30.961914062s13.889160156,30.961425781,30.961425781,30.961425781h43.249511719v-61.923339844h0Z"/>
  </g>
  <g>
    <path class="cls-1" d="M257.277969426,359.580811955c-94.008789062,0-170.490234375-76.481445312-170.490234375-170.490234375S163.269180364,18.600343205,257.277969426,18.600343205h799.319335938c94.008789062,0,170.490234375,76.481445312,170.490234375,170.490234375s-76.481445312,170.490234375-170.490234375,170.490234375H257.277969426Z"/>
    <path class="cls-2" d="M1056.596817082,20.600099064c93.0546875,0,168.490234375,75.435546875,168.490234375,168.490478516,0,93.0546875-75.435546875,168.490722656-168.490234375,168.490722656H257.277969426c-93.0546875,0-168.490478516-75.436035156-168.490478516-168.490722656,0-93.054931641,75.435791016-168.490478516,168.490478516-168.490478516h799.318847656M1056.596817082,16.600099064H257.277969426c-23.284423828,0-45.874267578,4.561279297-67.142333984,13.556884766-20.540527344,8.687744141-38.987060547,21.124267578-54.826904297,36.964355469-15.83984375,15.83984375-28.276611328,34.286376953-36.964599609,54.826660156-8.995361328,21.268066406-13.556640625,43.858398438-13.556640625,67.142578125s4.561279297,45.874023438,13.556640625,67.142089844c8.687988281,20.541015625,21.124755859,38.987304688,36.964599609,54.827148438s34.286376953,28.276855469,54.826904297,36.96484375c21.268066406,8.995605469,43.857910156,13.556640625,67.142333984,13.556640625h799.318847656c23.284179688,0,45.874023438-4.561035156,67.142089844-13.556640625,20.540527344-8.687988281,38.986816406-21.125,54.826660156-36.96484375,15.840332031-15.83984375,28.276855469-34.286132812,36.96484375-54.827148438,8.995605469-21.268066406,13.556640625-43.857910156,13.556640625-67.142089844s-4.561035156-45.874511719-13.556640625-67.142089844c-8.687988281-20.540771484-21.124511719-38.987304688-36.96484375-54.827148438-15.83984375-15.840087891-34.286132812-28.276611328-54.826660156-36.964355469-21.268066406-8.995605469-43.857910156-13.556884766-67.142089844-13.556884766h0Z"/>
  </g>
  <g>
    <path class="cls-10" d="M233.481169722,239.060304142c-28.798828125,0-52.228515625-23.4296875-52.228515625-52.229492188s23.4296875-52.229492188,52.228515625-52.229492188c28.799804688,0,52.229492188,23.4296875,52.229492188,52.229492188s-23.4296875,52.229492188-52.229492188,52.229492188Z"/>
    <path class="cls-12" d="M233.481658003,149.601808049c20.528076172,0,37.229003906,16.700683594,37.229003906,37.229003906s-16.700927734,37.229003906-37.229003906,37.229003906c-20.528320312,0-37.229248047-16.700683594-37.229248047-37.229003906s16.700927734-37.229003906,37.229248047-37.229003906M233.481658003,119.601808049c-37.129638672,0-67.229248047,30.099609375-67.229248047,67.229003906,0,37.129882812,30.099609375,67.229003906,67.229248047,67.229003906s67.229003906-30.099121094,67.229003906-67.229003906c0-37.129394531-30.099365234-67.229003906-67.229003906-67.229003906h0Z"/>
  </g>
  <g>
    <circle class="cls-9" cx="233.481572778" cy="292.273979301" r="12.134360503"/>
    <circle class="cls-9" cx="233.481572778" cy="81.387788695" r="12.134360503"/>
  </g>
  <circle class="cls-9" cx="128.038477475" cy="186.830883998" r="12.134360503"/>
  <circle class="cls-9" cx="158.92204506" cy="112.27135628" r="12.134360503"/>
  <circle class="cls-3" cx="158.92204506" cy="261.390411716" r="12.134360503"/>
  <path class="cls-9" d="M862.497800425,18.974396227c94.032373626-.000000005,170.260673784,76.228300153,170.260673779,170.260673779v.000340717c-.000000004,94.032373704-76.228300229,170.260673919-170.260673932,170.260673913"/>
  <path class="cls-5" d="M958.96051311,191.637751766v-.000488281c0-37.169252734-11.911184043-71.555850002-32.123998802-99.552642281-9.48765928-13.141367457-24.69085518-20.950531547-40.899223921-20.950531547h-475.512664523c-16.208341799,0-31.411510001,7.80914252-40.899179149,20.950469622-20.212905953,27.996803499-32.124259776,62.383424068-32.124259776,99.552704206v.000488281c0,32.168019449,8.923354909,62.249930971,24.427404201,87.910632011,9.040546643,14.962979043,25.406017294,23.944836739,42.888071677,23.944836739h486.928271632c17.482075216,0,33.847564604-8.981877847,42.888101928-23.944886861,15.50399564-25.66069009,24.427476735-55.742583384,24.427476735-87.910581889Z"/>
  <g>
    <path class="cls-10" d="M500.346328801,93.944093205h8.583984375c1.584960938,0,2.958007812.271484375,4.118164062.8125s2.106445312,1.280273438,2.841796875,2.217773438c.734375.938476562,1.280273438,2.03515625,1.638671875,3.291992188.357421875,1.256835938.536132812,2.600585938.536132812,4.03125s-.178710938,2.774414062-.536132812,4.030273438c-.358398438,1.256835938-.904296875,2.354492188-1.638671875,3.291992188-.735351562.9375-1.681640625,1.676757812-2.841796875,2.21875-1.16015625.541015625-2.533203125.811523438-4.118164062.811523438h-8.583984375v-20.706054688ZM503.971328801,111.69214008h3.567382812c1.41015625,0,2.56640625-.188476562,3.46484375-.565429688.899414062-.376953125,1.604492188-.899414062,2.1171875-1.56640625.51171875-.666992188.860351562-1.44921875,1.043945312-2.348632812s.275390625-1.870117188.275390625-2.9140625c0-1.044921875-.091796875-2.015625-.275390625-2.915039062-.18359375-.8984375-.532226562-1.681640625-1.043945312-2.348632812-.512695312-.666992188-1.217773438-1.189453125-2.1171875-1.56640625-.8984375-.376953125-2.0546875-.565429688-3.46484375-.565429688h-3.567382812v14.790039062Z"/>
    <path class="cls-10" d="M521.283828801,93.944093205h3.625v20.706054688h-3.625v-20.706054688Z"/>
    <path class="cls-10" d="M547.413711614,114.650147892h-2.3203125l-.55078125-2.435546875c-.967773438,1.1015625-1.93359375,1.865234375-2.900390625,2.291015625-.966796875.424804688-2.078125.637695312-3.334960938.637695312-1.546875,0-2.93359375-.28515625-4.161132812-.85546875-1.228515625-.5703125-2.267578125-1.348632812-3.118164062-2.334960938-.850585938-.985351562-1.502929688-2.135742188-1.95703125-3.451171875-.455078125-1.314453125-.681640625-2.715820312-.681640625-4.204101562,0-1.469726562.2265625-2.861328125.681640625-4.176757812.454101562-1.314453125,1.106445312-2.46484375,1.95703125-3.451171875.850585938-.985351562,1.889648438-1.768554688,3.118164062-2.348632812,1.227539062-.580078125,2.614257812-.870117188,4.161132812-.870117188,1.12109375,0,2.189453125.150390625,3.204101562.450195312,1.015625.299804688,1.918945312.744140625,2.711914062,1.333984375.791992188.58984375,1.450195312,1.329101562,1.971679688,2.217773438.522460938.889648438.850585938,1.9140625.986328125,3.07421875h-3.538085938c-.096679688-.676757812-.3046875-1.270507812-.623046875-1.783203125-.319335938-.512695312-.720703125-.942382812-1.204101562-1.291015625-.483398438-.34765625-1.024414062-.608398438-1.624023438-.783203125-.599609375-.173828125-1.227539062-.260742188-1.884765625-.260742188-1.1015625,0-2.0546875.22265625-2.856445312.666992188-.802734375.4453125-1.455078125,1.040039062-1.958007812,1.784179688s-.875,1.58984375-1.116210938,2.537109375c-.2421875.947265625-.362304688,1.9140625-.362304688,2.900390625,0,.985351562.120117188,1.952148438.362304688,2.899414062.241210938.947265625.61328125,1.793945312,1.116210938,2.538085938s1.155273438,1.338867188,1.958007812,1.783203125c.801757812.444335938,1.754882812.666992188,2.856445312.666992188.927734375.01953125,1.749023438-.1015625,2.46484375-.362304688.71484375-.26171875,1.319335938-.638671875,1.8125-1.131835938.493164062-.4921875.865234375-1.096679688,1.116210938-1.8125.250976562-.71484375.38671875-1.5078125.40625-2.377929688h-5.509765625v-2.754882812h8.81640625v10.904296875Z"/>
    <path class="cls-10" d="M551.356094426,93.944093205h3.625v20.706054688h-3.625v-20.706054688Z"/>
    <path class="cls-10" d="M557.446914739,93.944093205h16.76171875v3.131835938h-6.583007812v17.57421875h-3.625v-17.57421875h-6.553710938v-3.131835938Z"/>
    <path class="cls-10" d="M579.485977239,93.944093205h3.856445312l7.975585938,20.706054688h-3.885742188l-1.943359375-5.481445312h-8.264648438l-1.943359375,5.481445312h-3.741210938l7.946289062-20.706054688ZM578.209610051,106.413819767h6.322265625l-3.103515625-8.90234375h-.086914062l-3.131835938,8.90234375Z"/>
    <path class="cls-10" d="M593.289688176,93.944093205h3.625v17.57421875h10.52734375v3.131835938h-14.15234375v-20.706054688Z"/>
    <path class="cls-10" d="M617.940078801,93.944093205h5.103515625l5.712890625,16.2109375h.05859375l5.567382812-16.2109375h5.045898438v20.706054688h-3.451171875v-15.978515625h-.057617188l-5.7421875,15.978515625h-2.986328125l-5.7421875-15.978515625h-.05859375v15.978515625h-3.450195312v-20.706054688Z"/>
    <path class="cls-10" d="M643.778945989,93.944093205h9.134765625c1.46875,0,2.66796875.212890625,3.595703125.637695312.928710938.42578125,1.643554688.95703125,2.146484375,1.595703125.502929688.637695312.845703125,1.333984375,1.029296875,2.087890625s.275390625,1.450195312.275390625,2.087890625-.091796875,1.329101562-.275390625,2.073242188-.526367188,1.435546875-1.029296875,2.073242188c-.502929688.638671875-1.217773438,1.165039062-2.146484375,1.581054688-.927734375.416015625-2.126953125.623046875-3.595703125.623046875h-5.509765625v7.946289062h-3.625v-20.706054688ZM647.403945989,103.745851017h5.306640625c.40625,0,.821289062-.057617188,1.247070312-.173828125.424804688-.116210938.81640625-.3046875,1.174804688-.565429688.357421875-.260742188.647460938-.609375.870117188-1.043945312.221679688-.434570312.333007812-.981445312.333007812-1.638671875,0-.676757812-.096679688-1.237304688-.290039062-1.681640625s-.454101562-.797851562-.782226562-1.05859375c-.329101562-.260742188-.706054688-.439453125-1.131835938-.536132812-.424804688-.096679688-.879882812-.145507812-1.362304688-.145507812h-5.365234375v6.84375Z"/>
    <path class="cls-10" d="M667.529922551,102.760499455c.541015625.01953125,1.08203125-.01953125,1.624023438-.116210938.541015625-.096679688,1.024414062-.265625,1.44921875-.5078125.42578125-.241210938.768554688-.575195312,1.030273438-1,.260742188-.42578125.391601562-.947265625.391601562-1.56640625,0-.870117188-.294921875-1.56640625-.884765625-2.087890625-.58984375-.522460938-1.348632812-.783203125-2.276367188-.783203125-.580078125,0-1.083007812.116210938-1.5078125.348632812-.42578125.231445312-.779296875.545898438-1.05859375.942382812-.28125.396484375-.489257812.840820312-.624023438,1.333984375-.135742188.4921875-.193359375,1-.173828125,1.522460938h-3.305664062c.038085938-.986328125.221679688-1.899414062.55078125-2.741210938.328125-.840820312.778320312-1.5703125,1.348632812-2.189453125.569335938-.618164062,1.260742188-1.1015625,2.073242188-1.44921875.811523438-.348632812,1.73046875-.522460938,2.754882812-.522460938.79296875,0,1.5703125.116210938,2.334960938.34765625.762695312.232421875,1.44921875.571289062,2.05859375,1.015625s1.096679688,1.009765625,1.46484375,1.696289062c.3671875.686523438.55078125,1.474609375.55078125,2.36328125,0,1.025390625-.232421875,1.918945312-.696289062,2.682617188s-1.188476562,1.319335938-2.174804688,1.66796875v.057617188c1.16015625.232421875,2.063476562.807617188,2.711914062,1.725585938.647460938.91796875.970703125,2.03515625.970703125,3.349609375,0,.966796875-.193359375,1.83203125-.580078125,2.595703125s-.908203125,1.411132812-1.565429688,1.942382812c-.657226562.532226562-1.420898438.942382812-2.291015625,1.232421875s-1.788085938.435546875-2.754882812.435546875c-1.1796875,0-2.208984375-.169921875-3.088867188-.5078125s-1.614257812-.81640625-2.204101562-1.435546875c-.58984375-.618164062-1.0390625-1.36328125-1.348632812-2.232421875-.309570312-.870117188-.473632812-1.836914062-.4921875-2.900390625h3.305664062c-.0390625,1.237304688.265625,2.266601562.913085938,3.088867188.647460938.821289062,1.619140625,1.232421875,2.915039062,1.232421875,1.1015625,0,2.024414062-.314453125,2.76953125-.942382812.744140625-.62890625,1.116210938-1.5234375,1.116210938-2.682617188,0-.79296875-.155273438-1.420898438-.463867188-1.885742188-.309570312-.463867188-.715820312-.81640625-1.217773438-1.05859375-.502929688-.241210938-1.068359375-.390625-1.697265625-.44921875-.627929688-.057617188-1.271484375-.077148438-1.927734375-.057617188v-2.46484375Z"/>
    <path class="cls-10" d="M687.307266301,93.944093205h9.134765625c1.46875,0,2.66796875.212890625,3.595703125.637695312.928710938.42578125,1.643554688.95703125,2.146484375,1.595703125.502929688.637695312.845703125,1.333984375,1.029296875,2.087890625s.275390625,1.450195312.275390625,2.087890625-.091796875,1.329101562-.275390625,2.073242188-.526367188,1.435546875-1.029296875,2.073242188c-.502929688.638671875-1.217773438,1.165039062-2.146484375,1.581054688-.927734375.416015625-2.126953125.623046875-3.595703125.623046875h-5.509765625v7.946289062h-3.625v-20.706054688ZM690.932266301,103.745851017h5.306640625c.40625,0,.821289062-.057617188,1.247070312-.173828125.424804688-.116210938.81640625-.3046875,1.174804688-.565429688.357421875-.260742188.647460938-.609375.870117188-1.043945312.221679688-.434570312.333007812-.981445312.333007812-1.638671875,0-.676757812-.096679688-1.237304688-.290039062-1.681640625s-.454101562-.797851562-.782226562-1.05859375c-.329101562-.260742188-.706054688-.439453125-1.131835938-.536132812-.424804688-.096679688-.879882812-.145507812-1.362304688-.145507812h-5.365234375v6.84375Z"/>
    <path class="cls-10" d="M706.650039739,93.944093205h3.625v17.57421875h10.52734375v3.131835938h-14.15234375v-20.706054688Z"/>
    <path class="cls-10" d="M728.834610051,93.944093205h3.856445312l7.975585938,20.706054688h-3.885742188l-1.943359375-5.481445312h-8.264648438l-1.943359375,5.481445312h-3.741210938l7.946289062-20.706054688ZM727.558242864,106.413819767h6.322265625l-3.103515625-8.90234375h-.086914062l-3.131835938,8.90234375Z"/>
    <path class="cls-10" d="M745.886367864,106.530030705l-7.771484375-12.5859375h4.205078125l5.48046875,9.280273438,5.39453125-9.280273438h4.059570312l-7.743164062,12.5859375v8.120117188h-3.625v-8.120117188Z"/>
    <path class="cls-10" d="M759.284805364,93.944093205h14.90625v3.131835938h-11.28125v5.422851562h10.439453125v2.958007812h-10.439453125v6.061523438h11.484375v3.131835938h-15.109375v-20.706054688Z"/>
    <path class="cls-10" d="M777.554336614,93.944093205h9.888671875c2.28125,0,3.9921875.493164062,5.1328125,1.479492188,1.140625.985351562,1.7109375,2.358398438,1.7109375,4.1171875,0,.986328125-.14453125,1.803710938-.434570312,2.451171875s-.62890625,1.169921875-1.014648438,1.565429688c-.387695312.396484375-.768554688.681640625-1.145507812.85546875s-.65234375.290039062-.827148438.348632812v.057617188c.309570312.0390625.642578125.135742188,1.000976562.290039062.357421875.155273438.690429688.401367188,1,.739257812.309570312.338867188.565429688.778320312.768554688,1.319335938.203125.541992188.3046875,1.21875.3046875,2.030273438,0,1.217773438.091796875,2.325195312.275390625,3.3203125.18359375.99609375.46875,1.70703125.85546875,2.131835938h-3.885742188c-.270507812-.444335938-.430664062-.9375-.478515625-1.478515625-.048828125-.541992188-.072265625-1.063476562-.072265625-1.56640625,0-.947265625-.05859375-1.763671875-.173828125-2.450195312-.116210938-.686523438-.329101562-1.256835938-.638671875-1.7109375s-.729492188-.788085938-1.260742188-1.000976562c-.532226562-.212890625-1.213867188-.319335938-2.044921875-.319335938h-5.3359375v8.526367188h-3.625v-20.706054688ZM781.179336614,103.368897892h5.9453125c1.159179688,0,2.0390625-.275390625,2.638671875-.826171875.598632812-.55078125.8984375-1.377929688.8984375-2.479492188,0-.657226562-.096679688-1.193359375-.2890625-1.609375-.194335938-.416015625-.459960938-.739257812-.797851562-.971679688-.338867188-.232421875-.725585938-.38671875-1.16015625-.463867188s-.884765625-.116210938-1.348632812-.116210938h-5.88671875v6.466796875Z"/>
  </g>
  <rect class="cls-4" x="402.235427487" y="137.792369741" width="491.890845075" height="105.209986308" rx="14.817255091" ry="14.817255091"/>
  <g>
    <path class="cls-6" d="M442.237930364,155.091554142c1.040039062,0,3.484375.104492188,5.408203125,2.080078125,1.299804688,1.299804688,2.18359375,3.379882812,2.18359375,5.200195312v8.1640625c0,2.236328125-.98828125,3.900390625-1.872070312,4.8359375-1.196289062,1.248046875-3.120117188,2.2890625-5.303710938,2.2890625h-11.388671875v11.6484375c0,.779296875-.364257812,1.3515625-.83203125,1.715820312-.3125.208007812-.780273438.467773438-1.5078125.467773438-.728515625,0-1.196289062-.259765625-1.5078125-.467773438-.46875-.364257812-.83203125-.936523438-.83203125-1.715820312v-34.217773438h15.65234375ZM431.265274114,172.980226017h10.608398438c.83203125,0,1.8203125-.051757812,2.600585938-.883789062.623046875-.67578125.67578125-1.352539062.67578125-2.080078125v-7.280273438c0-.728515625-.104492188-1.508789062-.780273438-2.184570312s-1.456054688-.779296875-2.080078125-.779296875h-11.024414062v13.208007812Z"/>
    <path class="cls-6" d="M474.165664739,164.971436955c2.131835938,0,3.536132812.936523438,4.471679688,1.6640625l2.028320312,1.612304688c.935546875.728515625,1.5078125,1.612304688,1.923828125,2.600585938.364257812.883789062.624023438,1.767578125.624023438,2.807617188v9.204101562c0,.98828125-.311523438,2.1328125-.727539062,3.016601562-.416015625.83203125-1.091796875,1.6640625-1.8203125,2.288085938l-2.028320312,1.715820312c-1.196289062.98828125-2.963867188,1.612304688-4.471679688,1.612304688h-5.251953125c-1.404296875,0-3.12109375-.51953125-4.420898438-1.612304688l-2.028320312-1.715820312c-.623046875-.51953125-1.455078125-1.5078125-1.87109375-2.33984375-.364257812-.728515625-.676757812-2.028320312-.676757812-2.96484375v-9.204101562c0-1.403320312.520507812-2.599609375.676757812-2.963867188.36328125-.83203125,1.0390625-1.767578125,1.87109375-2.444335938l2.028320312-1.612304688c1.040039062-.83203125,2.288085938-1.6640625,4.420898438-1.6640625h5.251953125ZM468.913711614,169.652101017c-.520507812,0-1.196289062.364257812-1.45703125.572265625l-2.02734375,1.6640625c-.364257812.311523438-.83203125,1.091796875-.83203125,1.767578125v9.256835938c0,.935546875.51953125,1.456054688.83203125,1.715820312l2.02734375,1.715820312c.260742188.259765625.884765625.46875,1.45703125.46875h5.303710938c.364257812,0,.98828125-.104492188,1.456054688-.46875l2.028320312-1.715820312c.311523438-.259765625.83203125-.780273438.83203125-1.715820312v-9.256835938c0-.51953125-.467773438-1.456054688-.83203125-1.767578125l-2.028320312-1.6640625c-.259765625-.208007812-.935546875-.572265625-1.456054688-.572265625h-5.303710938Z"/>
    <path class="cls-6" d="M508.381485051,186.81323383h4.784179688c.779296875,0,1.3515625.36328125,1.715820312.83203125.208007812.311523438.467773438.779296875.467773438,1.5078125,0,.727539062-.259765625,1.1953125-.467773438,1.5078125-.364257812.467773438-.936523438.83203125-1.715820312.83203125h-14.197265625c-.779296875,0-1.3515625-.364257812-1.715820312-.83203125-.208007812-.3125-.467773438-.780273438-.467773438-1.5078125,0-.728515625.259765625-1.196289062.467773438-1.5078125.364257812-.46875.936523438-.83203125,1.715820312-.83203125h4.732421875v-27.041015625h-4.732421875c-.779296875,0-1.3515625-.364257812-1.715820312-.83203125-.208007812-.3125-.467773438-.780273438-.467773438-1.508789062,0-.727539062.259765625-1.196289062.467773438-1.5078125.364257812-.467773438.936523438-.83203125,1.715820312-.83203125h6.8125c1.5078125,0,2.600585938,1.040039062,2.600585938,2.391601562v29.330078125Z"/>
    <path class="cls-6" d="M550.864883489,188.788819767v.520507812c0,.779296875-.36328125,1.3515625-.83203125,1.715820312-.311523438.208007812-.779296875.467773438-1.5078125.467773438-.727539062,0-1.1953125-.259765625-1.5078125-.467773438-.3125-.260742188-.883789062-.83203125-.83203125-1.872070312l-2.80859375,1.715820312c-.987304688.572265625-1.6640625.624023438-2.080078125.624023438h-6.708007812c-2.391601562,0-4.00390625-1.14453125-4.9921875-2.18359375-.935546875-.98828125-1.975585938-2.600585938-1.975585938-4.78515625v-2.651367188c0-1.14453125.259765625-3.172851562,2.236328125-5.043945312,1.091796875-1.041015625,2.755859375-1.9765625,4.731445312-1.9765625h8.997070312c.467773438,0,1.1953125.051757812,2.131835938.51953125l-.15625-3.431640625c-.051757812-1.040039062-.883789062-2.288085938-2.33984375-2.288085938h-8.788085938c-.780273438,0-1.352539062-.364257812-1.716796875-.83203125-.208007812-.311523438-.467773438-.780273438-.467773438-1.5078125,0-.728515625.259765625-1.196289062.467773438-1.508789062.364257812-.467773438.936523438-.83203125,1.716796875-.83203125h8.788085938c3.744140625,0,6.864257812,3.12109375,7.020507812,6.96875l.623046875,16.848632812ZM545.925430364,181.82104633c-.104492188-1.30078125-1.040039062-2.2890625-2.33984375-2.2890625h-8.840820312c-.727539062,0-1.352539062.260742188-1.715820312.625-.416015625.416015625-.728515625,1.091796875-.728515625,1.715820312v2.651367188c0,.572265625.3125,1.248046875.67578125,1.612304688.3125.3125.884765625.676757812,1.612304688.676757812h6.188476562l5.200195312-2.912109375-.051757812-2.080078125Z"/>
    <path class="cls-6" d="M566.048477239,170.01635883l3.952148438-3.380859375c.83203125-.727539062,2.236328125-1.6640625,4.471679688-1.6640625h3.12109375c3.84765625,0,7.01953125,3.224609375,7.01953125,6.96875v1.091796875c0,1.5078125-.98828125,2.600585938-2.391601562,2.600585938-1.508789062,0-2.288085938-1.248046875-2.288085938-2.600585938v-1.091796875c0-1.248046875-1.091796875-2.288085938-2.33984375-2.288085938h-3.12109375c-.20703125,0-.883789062,0-1.6640625.67578125l-6.759765625,5.928710938v13.052734375c0,.779296875-.364257812,1.3515625-.83203125,1.715820312-.3125.208007812-.780273438.467773438-1.5078125.467773438-.728515625,0-1.196289062-.259765625-1.5078125-.467773438-.46875-.364257812-.83203125-.936523438-.83203125-1.715820312v-22.153320312c0-.780273438.36328125-1.352539062.83203125-1.715820312.311523438-.208007812.779296875-.46875,1.5078125-.46875.727539062,0,1.1953125.260742188,1.5078125.46875.467773438.36328125.83203125.935546875.83203125,1.715820312v2.860351562Z"/>
    <path class="cls-6" d="M600.887344426,169.652101017c-.780273438,0-1.352539062-.364257812-1.715820312-.83203125-.208007812-.311523438-.46875-.780273438-.46875-1.5078125,0-.728515625.260742188-1.196289062.46875-1.508789062.36328125-.467773438.935546875-.83203125,1.715820312-.83203125h6.8125c1.5078125,0,2.599609375,1.041015625,2.599609375,2.392578125v19.44921875h4.784179688c.780273438,0,1.352539062.36328125,1.716796875.83203125.20703125.311523438.467773438.779296875.467773438,1.5078125,0,.727539062-.260742188,1.1953125-.467773438,1.5078125-.364257812.467773438-.936523438.83203125-1.716796875.83203125h-14.196289062c-.780273438,0-1.352539062-.364257812-1.715820312-.83203125-.208007812-.3125-.46875-.780273438-.46875-1.5078125,0-.728515625.260742188-1.196289062.46875-1.5078125.36328125-.46875.935546875-.83203125,1.715820312-.83203125h4.732421875v-17.161132812h-4.732421875ZM608.219375676,153.115968205c1.040039062,0,2.131835938,1.091796875,2.131835938,2.391601562v1.975585938c0,1.404296875-1.1953125,2.340820312-2.599609375,2.340820312h-1.8203125c-1.559570312,0-2.65234375-.98828125-2.65234375-2.340820312v-1.975585938c0-1.352539062,1.14453125-2.391601562,2.65234375-2.391601562h2.288085938Z"/>
    <path class="cls-6" d="M645.503555364,164.971436955c1.923828125,0,3.795898438.936523438,4.940429688,2.028320312.780273438.728515625,1.196289062,1.560546875,1.196289062,2.288085938,0,.520507812-.15625,1.14453125-.625,1.612304688-.51953125.572265625-1.1953125.780273438-1.767578125.780273438s-.98828125-.208007812-1.299804688-.46875c-.624023438-.51953125-.416015625-.51953125-1.092773438-1.0390625-.36328125-.3125-.727539062-.520507812-1.403320312-.520507812h-9.932617188c-.728515625,0-1.404296875.572265625-1.404296875,1.456054688,0,.624023438.46875,1.040039062.884765625,1.196289062l12.740234375,5.408203125c1.404296875.624023438,2.599609375,1.6640625,3.328125,2.755859375.67578125,1.040039062,1.143554688,2.391601562,1.143554688,3.900390625,0,2.028320312-.83203125,3.795898438-2.028320312,4.9921875-1.248046875,1.248046875-3.171875,2.131835938-5.19921875,2.131835938h-9.256835938c-1.768554688,0-3.639648438-.728515625-5.096679688-1.767578125-.623046875-.46875-1.715820312-1.352539062-1.715820312-2.705078125,0-.727539062.3125-1.248046875.572265625-1.5078125.416015625-.467773438.98828125-.727539062,1.715820312-.727539062.572265625,0,.936523438.155273438,1.352539062.416015625.727539062.467773438.364257812.416015625,1.403320312,1.091796875.520507812.364257812,1.092773438.520507812,1.768554688.520507812h9.256835938c.83203125,0,1.5078125-.364257812,1.975585938-.884765625.259765625-.311523438.572265625-.83203125.572265625-1.5078125,0-.98828125-.520507812-1.8203125-1.612304688-2.288085938l-12.688476562-5.512695312c-1.248046875-.51953125-2.080078125-1.1953125-2.860351562-2.391601562-.51953125-.780273438-.935546875-1.768554688-.935546875-3.171875,0-1.299804688.36328125-2.912109375,1.872070312-4.368164062,1.196289062-1.14453125,2.547851562-1.716796875,4.211914062-1.716796875h9.984375Z"/>
    <path class="cls-6" d="M717.159805364,170.951905705c1.5078125,0,2.651367188.884765625,2.651367188,2.33984375v1.9765625c0,1.3515625-1.143554688,2.392578125-2.651367188,2.392578125h-17.993164062c-1.299804688,0-2.65234375-.780273438-2.65234375-2.392578125v-1.9765625c0-1.455078125,1.14453125-2.33984375,2.65234375-2.33984375h17.993164062Z"/>
    <path class="cls-6" d="M774.514297551,155.091554142c1.872070312,0,2.912109375.467773438,3.952148438,1.196289062,1.248046875.883789062,1.872070312,1.8203125,2.600585938,3.223632812l4.887695312,9.724609375c.624023438,1.196289062.98828125,2.028320312.98828125,4.055664062,0,1.560546875-.208007812,2.548828125-.98828125,4.056640625l-4.887695312,9.724609375c-.520507812,1.040039062-1.612304688,2.599609375-2.65234375,3.328125-1.299804688.935546875-2.807617188,1.091796875-3.900390625,1.091796875h-8.788085938c-.780273438,0-1.3515625-.364257812-1.715820312-.83203125-.208007812-.3125-.467773438-.780273438-.467773438-1.5078125,0-.728515625.259765625-1.196289062.467773438-1.5078125.364257812-.46875.935546875-.83203125,1.715820312-.83203125h2.49609375v-27.041015625h-2.49609375c-.780273438,0-1.3515625-.364257812-1.715820312-.83203125-.208007812-.3125-.467773438-.780273438-.467773438-1.508789062,0-.727539062.259765625-1.196289062.467773438-1.5078125.364257812-.467773438.935546875-.83203125,1.715820312-.83203125h8.788085938ZM772.901992864,159.772218205v27.041015625h1.612304688c.728515625,0,1.6640625-.3125,2.236328125-1.508789062l4.8359375-9.776367188c.520507812-1.040039062.572265625-1.611328125.572265625-2.288085938,0-1.040039062-.259765625-1.5078125-.572265625-2.18359375l-4.8359375-9.724609375c-.259765625-.467773438-.883789062-1.559570312-2.236328125-1.559570312h-1.612304688Z"/>
    <path class="cls-6" d="M812.162735051,164.971436955c2.131835938,0,3.536132812.936523438,4.471679688,1.6640625l2.028320312,1.612304688c.936523438.728515625,1.5078125,1.612304688,1.923828125,2.600585938.364257812.883789062.624023438,1.767578125.624023438,2.807617188v9.204101562c0,.98828125-.311523438,2.1328125-.727539062,3.016601562-.416015625.83203125-1.092773438,1.6640625-1.8203125,2.288085938l-2.028320312,1.715820312c-1.1953125.98828125-2.963867188,1.612304688-4.471679688,1.612304688h-5.252929688c-1.403320312,0-3.119140625-.51953125-4.419921875-1.612304688l-2.02734375-1.715820312c-.625-.51953125-1.45703125-1.5078125-1.873046875-2.33984375-.36328125-.728515625-.67578125-2.028320312-.67578125-2.96484375v-9.204101562c0-1.403320312.520507812-2.599609375.67578125-2.963867188.364257812-.83203125,1.041015625-1.767578125,1.873046875-2.444335938l2.02734375-1.612304688c1.040039062-.83203125,2.288085938-1.6640625,4.419921875-1.6640625h5.252929688ZM806.909805364,169.652101017c-.51953125,0-1.1953125.364257812-1.455078125.572265625l-2.028320312,1.6640625c-.364257812.311523438-.83203125,1.091796875-.83203125,1.767578125v9.256835938c0,.935546875.51953125,1.456054688.83203125,1.715820312l2.028320312,1.715820312c.259765625.259765625.883789062.46875,1.455078125.46875h5.3046875c.364257812,0,.98828125-.104492188,1.456054688-.46875l2.028320312-1.715820312c.311523438-.259765625.83203125-.780273438.83203125-1.715820312v-9.256835938c0-.51953125-.46875-1.456054688-.83203125-1.767578125l-2.028320312-1.6640625c-.259765625-.208007812-.936523438-.572265625-1.456054688-.572265625h-5.3046875Z"/>
    <path class="cls-6" d="M848.769180364,186.448976017l1.560546875-5.512695312.416015625-13.416015625v-.364257812c0-.780273438.36328125-1.352539062.83203125-1.715820312.311523438-.208007812.779296875-.46875,1.5078125-.46875s1.196289062.260742188,1.5078125.46875c.416015625.311523438.83203125.98828125.83203125,1.715820312l-.416015625,14.404296875-2.443359375,8.008789062c-.260742188.883789062-.884765625,1.923828125-2.912109375,1.923828125h-1.873046875c-1.143554688,0-1.715820312-.780273438-2.080078125-1.404296875l-2.33984375-4.00390625-2.33984375,4.00390625c-.780273438,1.352539062-1.767578125,1.404296875-2.131835938,1.404296875h-1.8203125c-2.028320312,0-2.65234375-1.040039062-2.912109375-1.923828125l-2.444335938-8.008789062-.416015625-14.404296875c0-.727539062.416015625-1.404296875.83203125-1.715820312.3125-.208007812.780273438-.46875,1.5078125-.46875.728515625,0,1.196289062.260742188,1.508789062.46875.467773438.36328125.83203125.935546875.83203125,1.715820312v.364257812l.416015625,13.416015625,1.559570312,5.512695312,3.068359375-5.875976562v-5.4609375c0-.779296875.364257812-1.3515625.83203125-1.715820312.3125-.208007812.780273438-.467773438,1.5078125-.467773438.728515625,0,1.196289062.259765625,1.5078125.467773438.46875.364257812.83203125.936523438.83203125,1.715820312v5.4609375l3.068359375,5.875976562Z"/>
    <path class="cls-6" d="M870.401016301,189.30932758c0,.779296875-.364257812,1.3515625-.83203125,1.715820312-.3125.208007812-.780273438.467773438-1.508789062.467773438-.727539062,0-1.1953125-.259765625-1.5078125-.467773438-.467773438-.364257812-.83203125-.936523438-.83203125-1.715820312v-22.153320312c0-.780273438.364257812-1.352539062.83203125-1.715820312.3125-.208007812.780273438-.46875,1.5078125-.46875.728515625,0,1.196289062.260742188,1.508789062.46875.467773438.36328125.83203125.935546875.83203125,1.715820312v1.923828125l3.015625-2.028320312c1.404296875-.935546875,2.963867188-2.080078125,5.564453125-2.080078125h2.131835938c1.768554688,0,3.692382812.3125,5.356445312,2.236328125,1.768554688,2.080078125,1.8203125,4.264648438,1.923828125,6.604492188l.572265625,15.1328125v.364257812c0,.779296875-.364257812,1.3515625-.83203125,1.715820312-.311523438.208007812-.780273438.467773438-1.5078125.467773438-.728515625,0-1.196289062-.259765625-1.508789062-.467773438-.727539062-.572265625-.83203125-1.352539062-.83203125-1.715820312l-.571289062-15.756835938c-.051757812-.728515625-.15625-2.184570312-.98828125-3.068359375-.467773438-.467773438-1.196289062-.83203125-2.028320312-.83203125h-1.5078125c-.51953125,0-1.299804688.259765625-1.715820312.416015625-.208007812.104492188-.83203125.364257812-1.560546875.83203125l-5.51171875,3.639648438v14.76953125Z"/>
  </g>
  <line class="cls-8" x1="428.444574186" y1="217.890411253" x2="428.444574186" y2="227.382442979"/>
  <line class="cls-8" x1="434.776715142" y1="213.391068741" x2="434.776715142" y2="227.382442979"/>
  <line class="cls-8" x1="441.478608636" y1="217.890411253" x2="441.478608636" y2="227.382442979"/>
  <line class="cls-8" x1="448.063087675" y1="222.883100467" x2="448.063087675" y2="227.382442979"/>
  <line class="cls-8" x1="454.793819807" y1="217.890411253" x2="454.793819807" y2="227.382442979"/>
  <g class="cls-7">
    <path class="cls-11" d="M484.870742864,216.220460392c1.15234375,0,1.818359375.666015625,1.818359375,1.818359375v8.984375c0,1.134765625-.666015625,1.80078125-1.818359375,1.80078125h-4.4296875c-1.15234375,0-1.818359375-.666015625-1.818359375-1.80078125v-8.984375c0-1.15234375.666015625-1.818359375,1.818359375-1.818359375h4.4296875ZM480.243789739,227.20385883h4.825195312v-9.36328125h-4.825195312v9.36328125Z"/>
    <path class="cls-11" d="M496.570938176,216.220460392c1.15234375,0,1.818359375.666015625,1.818359375,1.818359375v8.984375c0,1.134765625-.666015625,1.80078125-1.818359375,1.80078125h-4.4296875c-1.15234375,0-1.818359375-.666015625-1.818359375-1.80078125v-8.984375c0-1.15234375.666015625-1.818359375,1.818359375-1.818359375h4.4296875ZM491.943985051,227.20385883h4.825195312v-9.36328125h-4.825195312v9.36328125Z"/>
    <path class="cls-11" d="M506.848281926,218.290772892c.46875,0,.829101562.396484375.829101562.900390625v1.188476562c0,.450195312-.270507812.91796875-.829101562.91796875h-1.583984375c-.467773438,0-.828125-.396484375-.828125-.91796875v-1.188476562c0-.522460938.360351562-.900390625.828125-.900390625h1.583984375ZM506.848281926,223.764405705c.46875,0,.829101562.396484375.829101562.900390625v1.206054688c0,.450195312-.270507812.918945312-.829101562.918945312h-1.583984375c-.467773438,0-.828125-.396484375-.828125-.918945312v-1.206054688c0-.522460938.305664062-.900390625.828125-.900390625h1.583984375Z"/>
    <path class="cls-11" d="M520.169570989,216.220460392c.900390625,0,1.638671875.73828125,1.638671875,1.638671875v3.024414062c0,.341796875-.072265625.954101562-.612304688,1.620117188.395507812.504882812.612304688,1.134765625.612304688,1.674804688v3.006835938c0,.900390625-.73828125,1.638671875-1.638671875,1.638671875h-5.671875c-.270507812,0-.467773438-.125976562-.59375-.288085938-.072265625-.108398438-.162109375-.270507812-.162109375-.522460938s.08984375-.4140625.162109375-.521484375c.125976562-.162109375.323242188-.288085938.59375-.288085938h5.653320312v-3.04296875c0-.396484375-.377929688-.828125-.828125-.828125h-3.205078125c-.26953125,0-.467773438-.126953125-.59375-.288085938-.072265625-.108398438-.162109375-.270507812-.162109375-.522460938s.08984375-.4140625.162109375-.522460938c.125976562-.162109375.32421875-.288085938.59375-.288085938h3.205078125c.450195312,0,.828125-.431640625.828125-.828125v-3.04296875h-5.653320312c-.270507812,0-.467773438-.125976562-.59375-.288085938-.072265625-.108398438-.162109375-.26953125-.162109375-.522460938,0-.251953125.08984375-.4140625.162109375-.521484375.125976562-.162109375.323242188-.288085938.59375-.288085938h5.671875Z"/>
    <path class="cls-11" d="M530.158828801,227.20385883h1.602539062v-3.3671875c0-.270507812.125976562-.46875.288085938-.594726562.108398438-.071289062.270507812-.162109375.522460938-.162109375s.4140625.090820312.522460938.162109375c.161132812.125976562.288085938.32421875.288085938.594726562v4.176757812c0,.504882812-.396484375.810546875-.918945312.810546875h-6.391601562c-.270507812,0-.467773438-.125976562-.59375-.288085938-.072265625-.108398438-.162109375-.270507812-.162109375-.522460938s.08984375-.4140625.162109375-.521484375c.125976562-.162109375.323242188-.288085938.59375-.288085938h2.466796875v-9.36328125h-2.466796875c-.270507812,0-.467773438-.125976562-.59375-.288085938-.072265625-.108398438-.162109375-.26953125-.162109375-.522460938,0-.251953125.08984375-.4140625.162109375-.521484375.125976562-.162109375.323242188-.288085938.59375-.288085938h4.086914062v10.983398438Z"/>
    <path class="cls-11" d="M555.972305364,221.71167133c.522460938,0,.91796875.306640625.91796875.810546875v.68359375c0,.46875-.395507812.829101562-.91796875.829101562h-6.23046875c-.44921875,0-.91796875-.270507812-.91796875-.829101562v-.68359375c0-.50390625.396484375-.810546875.91796875-.810546875h6.23046875Z"/>
    <path class="cls-11" d="M574.366836614,223.09839008h3.168945312v-4.75390625c0-.26953125.125976562-.467773438.288085938-.59375.108398438-.072265625.270507812-.162109375.522460938-.162109375s.4140625.08984375.522460938.162109375c.162109375.125976562.288085938.32421875.288085938.59375v4.735351562c.431640625.036132812.791992188.32421875.791992188.829101562,0,.485351562-.360351562.791992188-.791992188.809570312v3.349609375c0,.26953125-.125976562.467773438-.288085938.59375-.108398438.072265625-.270507812.162109375-.522460938.162109375s-.4140625-.08984375-.522460938-.162109375c-.162109375-.125976562-.288085938-.32421875-.288085938-.59375v-3.349609375h-4.7890625v-7.7421875c0-.26953125.125976562-.467773438.288085938-.59375.107421875-.072265625.26953125-.162109375.522460938-.162109375.251953125,0,.4140625.08984375.521484375.162109375.162109375.125976562.288085938.32421875.288085938.59375v6.122070312Z"/>
    <path class="cls-11" d="M588.749649114,218.290772892c.46875,0,.829101562.396484375.829101562.900390625v1.188476562c0,.450195312-.270507812.91796875-.829101562.91796875h-1.583984375c-.467773438,0-.828125-.396484375-.828125-.91796875v-1.188476562c0-.522460938.360351562-.900390625.828125-.900390625h1.583984375ZM588.749649114,223.764405705c.46875,0,.829101562.396484375.829101562.900390625v1.206054688c0,.450195312-.270507812.918945312-.829101562.918945312h-1.583984375c-.467773438,0-.828125-.396484375-.828125-.918945312v-1.206054688c0-.522460938.305664062-.900390625.828125-.900390625h1.583984375Z"/>
    <path class="cls-11" d="M600.360000676,227.20385883h1.602539062v-3.3671875c0-.270507812.125976562-.46875.288085938-.594726562.108398438-.071289062.270507812-.162109375.522460938-.162109375s.4140625.090820312.522460938.162109375c.161132812.125976562.288085938.32421875.288085938.594726562v4.176757812c0,.504882812-.396484375.810546875-.918945312.810546875h-6.391601562c-.270507812,0-.467773438-.125976562-.59375-.288085938-.072265625-.108398438-.162109375-.270507812-.162109375-.522460938s.08984375-.4140625.162109375-.521484375c.125976562-.162109375.323242188-.288085938.59375-.288085938h2.466796875v-9.36328125h-2.466796875c-.270507812,0-.467773438-.125976562-.59375-.288085938-.072265625-.108398438-.162109375-.26953125-.162109375-.522460938,0-.251953125.08984375-.4140625.162109375-.521484375.125976562-.162109375.323242188-.288085938.59375-.288085938h4.086914062v10.983398438Z"/>
    <path class="cls-11" d="M613.555313176,228.823976017c-.504882812,0-.918945312-.341796875-.918945312-.828125,0-.432617188.377929688-.73828125.846679688-.791992188v-5.240234375h-4.627929688c-1.15234375,0-1.818359375-.666015625-1.818359375-1.818359375v-2.125c0-1.133789062.666015625-1.799804688,1.818359375-1.799804688h4.4296875c1.15234375,0,1.818359375.666015625,1.818359375,1.799804688v9.885742188c0,.215820312-.017578125.467773438-.234375.68359375-.197265625.198242188-.431640625.234375-.59375.234375h-.719726562ZM613.483047551,217.84057758h-4.825195312v2.502929688h4.825195312v-2.502929688Z"/>
    <path class="cls-11" d="M845.072891301,216.220460392c.900390625,0,1.638671875.73828125,1.638671875,1.638671875v3.024414062c0,.341796875-.072265625.954101562-.612304688,1.620117188.395507812.504882812.612304688,1.134765625.612304688,1.674804688v3.006835938c0,.900390625-.73828125,1.638671875-1.638671875,1.638671875h-5.671875c-.270507812,0-.467773438-.125976562-.59375-.288085938-.072265625-.108398438-.162109375-.270507812-.162109375-.522460938s.08984375-.4140625.162109375-.521484375c.125976562-.162109375.323242188-.288085938.59375-.288085938h5.653320312v-3.04296875c0-.396484375-.377929688-.828125-.828125-.828125h-3.205078125c-.26953125,0-.467773438-.126953125-.59375-.288085938-.072265625-.108398438-.162109375-.270507812-.162109375-.522460938s.08984375-.4140625.162109375-.522460938c.125976562-.162109375.32421875-.288085938.59375-.288085938h3.205078125c.450195312,0,.828125-.431640625.828125-.828125v-3.04296875h-5.653320312c-.270507812,0-.467773438-.125976562-.59375-.288085938-.072265625-.108398438-.162109375-.26953125-.162109375-.522460938,0-.251953125.08984375-.4140625.162109375-.521484375.125976562-.162109375.323242188-.288085938.59375-.288085938h5.671875Z"/>
    <path class="cls-11" d="M856.809219426,216.68823383c.215820312-.360351562.50390625-.467773438.755859375-.467773438.540039062,0,.791992188.467773438.791992188.828125,0,.125976562-.036132812.305664062-.125976562.450195312l-6.319335938,10.838867188c-.125976562.215820312-.396484375.486328125-.756835938.486328125-.521484375,0-.791992188-.450195312-.791992188-.810546875,0-.305664062.072265625-.395507812.125976562-.485351562l6.3203125-10.83984375Z"/>
    <path class="cls-11" d="M866.762344426,227.20385883h1.602539062v-3.3671875c0-.270507812.125976562-.46875.288085938-.594726562.108398438-.071289062.270507812-.162109375.522460938-.162109375s.4140625.090820312.522460938.162109375c.161132812.125976562.288085938.32421875.288085938.594726562v4.176757812c0,.504882812-.396484375.810546875-.918945312.810546875h-6.391601562c-.270507812,0-.467773438-.125976562-.59375-.288085938-.072265625-.108398438-.162109375-.270507812-.162109375-.522460938s.08984375-.4140625.162109375-.521484375c.125976562-.162109375.323242188-.288085938.59375-.288085938h2.466796875v-9.36328125h-2.466796875c-.270507812,0-.467773438-.125976562-.59375-.288085938-.072265625-.108398438-.162109375-.26953125-.162109375-.522460938,0-.251953125.08984375-.4140625.162109375-.521484375.125976562-.162109375.323242188-.288085938.59375-.288085938h4.086914062v10.983398438Z"/>
    <path class="cls-11" d="M880.173477239,216.220460392c.900390625,0,1.638671875.73828125,1.638671875,1.638671875v3.024414062c0,.341796875-.072265625.954101562-.612304688,1.620117188.395507812.504882812.612304688,1.134765625.612304688,1.674804688v3.006835938c0,.900390625-.73828125,1.638671875-1.638671875,1.638671875h-5.671875c-.270507812,0-.467773438-.125976562-.59375-.288085938-.072265625-.108398438-.162109375-.270507812-.162109375-.522460938s.08984375-.4140625.162109375-.521484375c.125976562-.162109375.323242188-.288085938.59375-.288085938h5.653320312v-3.04296875c0-.396484375-.377929688-.828125-.828125-.828125h-3.205078125c-.26953125,0-.467773438-.126953125-.59375-.288085938-.072265625-.108398438-.162109375-.270507812-.162109375-.522460938s.08984375-.4140625.162109375-.522460938c.125976562-.162109375.32421875-.288085938.59375-.288085938h3.205078125c.450195312,0,.828125-.431640625.828125-.828125v-3.04296875h-5.653320312c-.270507812,0-.467773438-.125976562-.59375-.288085938-.072265625-.108398438-.162109375-.26953125-.162109375-.522460938,0-.251953125.08984375-.4140625.162109375-.521484375.125976562-.162109375.323242188-.288085938.59375-.288085938h5.671875Z"/>
  </g>
</svg>