<?xml version="1.0" encoding="UTF-8"?>
<svg id="Layer_1" data-name="Layer 1" xmlns="http://www.w3.org/2000/svg" viewBox="0 0 1678.866109338 1205.285072142">
  <defs>
    <style>
      .cls-1 {
        fill: #f1ede4;
      }

      .cls-2 {
        fill: #1a1917;
      }

      .cls-3 {
        fill: #d1cfcd;
      }
    </style>
  </defs>
  <rect class="cls-3" x="22.264846951" y="16.118942179" width="1641.134477287" height="1169.271218899" rx="88.873928645" ry="88.873928645"/>
  <g>
    <path class="cls-2" d="M904.448158375,698.457809293l-44.250069979.385209538-1.098243447-10.986338012-20.989044959-.178869372-.6579597,11.00354396-43.902430856.008488653-1.414033116-10.836145142-8.850639259-.41712539c-2.057038009-.096946984-1.208873319-5.625785234-1.61652406-9.965573056l-10.963610493-1.117892331-.15984974-21.625801481-10.79192597-.954037079-.425038111-32.561138171-11.112802139-.505420375-.044434619-44.56149095,11.078993686-.492995129.42697694-21.346209653,10.771753714-.974199118.383879591-10.775855595c3.468401014-.227824414,7.925083144-.537205676,9.92219348-.866094215,2.286729325-.376583634.876000005-6.752716392.410703623-10.360152187l56.359997567-.241924892.392227557,11.15806276,21.194571391.256901328.158811075-11.336509375,56.220333949.068715749.281365972,9.62616057c.062260031,2.13005523,6.04169388,1.424339342,10.644120398,1.203099216l-.014625855,23.139743195-9.744388425.303100826c-2.047032486.063673287-1.240927691,6.046341382-1.083184062,9.794500962l-11.46375372,1.662092241.062723898,43.033283916,10.858000291.374270303.691540773,11.020559693,21.708594917.295567533.060230573,21.880085243-10.594962467.904775499-.631706706,22.33345894c-4.145529924-.146118144-10.047925877-.95955474-10.300337224,1.096261421l-1.125538084,9.167176543c-1.112081079.60104834-6.772456951.67497402-8.813726098.963373344-2.22714183.314660219-2.000489076,5.146801212-1.578190308,10.425340091Z"/>
    <path class="cls-2" d="M870.286542256,520.420771842l-21.640551174-.062464189-.251257838-32.614445862,10.640818599-1.44205345,1.064319563-10.161056653,9.509997449-1.166213313c2.003850095-.245732627.883352235-6.065128486.665120701-10.464670314l22.840308652-.334739983-.00967806,34.088141415-10.622042616.633046203-1.305790242,9.226396208c-.275930564,1.949658242-5.878878043,1.2343638-9.45464523,1.501768529l-1.436599803,10.79629141Z"/>
  </g>
  <g>
    <g>
      <polygon class="cls-2" points="137.573296576 1132.249990249 131.211968451 1132.265615249 131.195366889 1125.907216812 124.835015326 1125.924794937 124.801812201 1113.204091812 118.441460639 1113.219716812 118.390679389 1094.140615249 112.030327826 1094.158193374 111.978570014 1075.077138687 105.618218451 1075.095693374 105.585015326 1062.374013687 99.225640326 1062.392568374 99.208062201 1056.030263687 92.847710639 1056.045888687 92.831109076 1049.689443374 86.471734076 1049.707021499 86.454155951 1043.345693374 82.733452826 1043.356435562 82.751030951 1049.715810562 67.390679389 1049.755849624 67.346734076 1034.394521499 73.709038764 1034.378896499 73.692437201 1028.019521499 80.051812201 1028.001943374 80.035210639 1021.639638687 86.395562201 1021.624013687 86.377007514 1015.265615249 120.819390326 1015.170888687 120.852593451 1027.892568374 127.212945014 1027.874013687 127.247124701 1040.596669937 133.606499701 1040.581044937 133.624077826 1046.937490249 139.982476264 1046.919912124 140.017632514 1059.642568374 146.378960639 1059.626943374 146.413140326 1072.345693374 152.771538764 1072.328115249 152.806695014 1085.048818374 156.527398139 1085.037099624 156.380913764 1030.436513687 150.021538764 1030.455068374 150.003960639 1024.094716812 143.642632514 1024.112294937 143.626030951 1017.751943374 137.265679389 1017.769521499 137.249077826 1011.407216812 130.889702826 1011.422841812 130.871148139 1005.064443374 118.153374701 1005.099599624 118.135796576 998.739248062 99.053765326 998.791005874 98.825249701 913.468740249 105.184624701 913.451162124 105.167046576 907.088857437 111.529351264 907.073232437 111.512749701 900.714833999 117.871148139 900.697255874 117.853570014 894.335927749 124.214898139 894.319326187 124.197320014 887.958974624 130.557671576 887.942373062 130.541070014 881.582021499 136.901421576 881.564443374 136.884820014 875.206044937 158.605523139 875.145498062 158.622124701 881.506826187 171.342827826 881.472646499 171.359429389 887.832998062 187.799859076 887.789052749 187.783257514 881.428701187 203.143609076 881.385732437 203.183648139 896.746083999 196.823296576 896.763662124 196.839898139 903.124990249 184.120171576 903.159169937 184.137749701 909.517568374 177.777398139 909.535146499 177.794976264 915.897451187 171.434624701 915.914052749 171.451226264 922.272451187 143.372124701 922.348623062 143.354546576 915.988271499 136.994195014 916.003896499 136.976616889 909.645498062 133.256890326 909.655263687 133.290093451 922.373037124 126.929741889 922.392568374 127.093804389 983.353505874 130.813530951 983.343740249 130.796929389 976.981435562 137.156304389 976.965810562 137.138726264 970.606435562 165.220757514 970.532216812 165.254937201 983.250966812 171.615288764 983.233388687 171.631890326 989.593740249 177.990288764 989.576162124 178.007866889 995.938466812 184.370171576 995.922841812 184.386773139 1002.281240249 190.747124701 1002.263662124 190.763726264 1008.625966812 197.124077826 1008.610341812 197.181695014 1030.327138687 190.821343451 1030.344716812 190.837945014 1036.707021499 184.477593451 1036.722646499 184.665093451 1106.682607437 178.305718451 1106.700185562 178.323296576 1113.060537124 171.963921576 1113.078115249 171.981499701 1119.440419937 165.620171576 1119.456044937 165.637749701 1125.816396499 159.276421576 1125.832021499 159.293023139 1132.190419937 152.933648139 1132.208974624 152.951226264 1138.569326187 137.589898139 1138.612294937 137.573296576 1132.249990249"/>
      <path class="cls-1" d="M154.116997748,879.657949234l.016601562,6.360351562,12.720947266-.033447266.016845703,6.360351562,25.440185547-.068847656.016845703,6.360351562-12.720947266.033691406.017822266,6.360107422-6.360107422.017822266.016845703,6.360351562-6.359375.017578125.017333984,6.358154297-19.081054688.051513672-.017211914-6.358398438-6.360717773.015869141-.016723633-6.360351562-6.360229492.017822266-.016723633-6.360595703-6.360229492.017822266-.016723633-6.360351562,6.359130859-.017578125-.016723633-6.360351562,6.360107422-.017822266-.016235352-6.358398438,12.720336914-.035644531M198.654839545,885.898183609l.016845703,6.360351562-6.360107422.017822266-.016845703-6.360351562,6.360107422-.017822266M128.72710517,898.808095718l.05090332,19.079101562-6.360229492.017822266.188110352,69.961669922,12.719360352-.03515625-.016723633-6.360839844,6.360595703-.015625-.017700195-6.360107422,19.081054688-.051513672.034423828,12.720703125,6.360107422-.017578125.016845703,6.360351562,6.359130859-.017578125.017822266,6.359863281,6.360839844-.015625.016601562,6.360351562,6.360351562-.017578125.016601562,6.360351562,6.360839844-.016113281.033935547,12.71875-6.360107422.018066406.016845703,6.360351562-6.360839844.015625.187255859,69.961914062-6.360107422.018066406.017822266,6.359863281-6.359375.017578125.016845703,6.360351562-6.360595703.016113281.017578125,6.359863281-6.360595703.016113281.016845703,6.360351562-6.360107422.017578125.016723633,6.360351562-6.360107422.018066406-.016845703-6.360839844-6.360595703.016113281-.016845703-6.360351562-6.360107422.017578125-.033081055-12.71875-6.360717773.015625-.051391602-19.081054688-6.360107422.018066406-.051391602-19.081054688-6.360107422.017578125-.033691406-12.720703125-6.360107422.017578125-.017700195-6.359863281-6.359741211.015625-.016357422-6.358886719-6.360107422.018066406-.017700195-6.360351562-12.720947266.033691406-.016723633-6.360351562,6.360107422-.017578125-.016845703-6.360839844,6.360717773-.015625-.017700195-6.360351562,25.441040039-.068847656.033691406,12.720703125,6.360107422-.017578125.033691406,12.720703125,6.360595703-.016113281.017211914,6.358398438,6.35925293-.017578125.034545898,12.720703125,6.360717773-.015625.033569336,12.720703125,6.360107422-.017578125.034545898,12.720214844,6.360107422-.017578125.051513672,19.081054688,6.360107422-.018066406-.221679688-82.682128906-6.360107422.017578125-.017822266-6.359863281-6.360229492.017578125-.016723633-6.360351562-6.360229492.017578125-.016723633-6.360351562-6.360717773.015625-.017700195-6.359863281-12.718505859.034667969-.017700195-6.359863281-19.080932617.051269531-.204956055-76.322021484,6.360107422-.017822266-.016723633-6.360351562,6.360595703-.015869141-.016723633-6.360351562,6.360107422-.017822266-.017700195-6.360107422,6.360595703-.015869141M78.220513373,1038.867666031l.017822266,6.360351562-6.360717773.015625-.017700195-6.359863281,6.360595703-.016113281M163.093560248,870.632802749l-9.001708984.025146484-12.720458984.035644531-8.997802734.025146484.016357422,6.358398438-6.360717773.017822266.016723633,6.360107422-6.35925293.017578125.016723633,6.357910156-6.361938477.015869141.017700195,6.363037109-6.358642578.017578125.016723633,6.357666016-6.360717773.015869141.016845703,6.363037109-6.360717773.017822266.024169922,8.999023438.204956055,76.321777344.024169922,9,9-.023925781,10.081787109-.02734375.017700195,6.360351562,8.999511719-.024414062,3.719116211-.010253906.017578125,6.357421875,6.359375-.015625.016601562,6.36328125,6.360351562-.017578125.016601562,6.360351562,6.361938477-.017578125.017700195,6.359863281,6.359130859-.017578125.088134766,32.881347656-1.080810547.002929688-.009765625-3.719726562-.023925781-8.998046875-6.361328125.015625-.010131836-3.723144531-.024414062-9.000488281-6.359130859.017578125-.017333984-6.356445312-6.359985352.016113281-.009765625-3.721679688-.023803711-9.000976562-6.360229492.017578125-.009765625-3.719726562-.023803711-9.000488281-9.000610352.024414062-25.441040039.068847656-9.000610352.024414062.017700195,6.357910156-6.35949707.015625.016845703,6.363769531-6.359863281.017578125.016723633,6.358398438-6.362060547.016113281.025024414,9.001953125.017822266,6.359863281.025024414,8.997070312,8.996948242-.021972656,6.360717773-.015625,3.723754883-.009277344v.000976562l2.684082031-.007324219,2.595214844-.006347656v-.000976562l1.078979492-.003417969.016357422,6.35546875,6.361572266-.015625.017700195,6.362792969,6.359008789-.017578125.009765625,3.719726562.023803711,9.000976562,6.360595703-.017578125.02722168,10.080566406.024169922,9.000976562,6.360107422-.018066406.027099609,10.080078125.024291992,8.997558594,6.359863281-.015625.009643555,3.720214844.0234375,9.001464844,6.360473633-.017578125.016845703,6.358398438,6.360717773-.016113281.016723633,6.36328125,9.001708984-.025390625,6.360107422-.018066406,8.998046875-.025390625-.016601562-6.359863281,6.360107422-.017578125-.016845703-6.358398438,6.361816406-.016113281-.017578125-6.359863281,6.359375-.016113281-.016845703-6.362304688,6.360839844-.017578125-.017822266-6.360351562,6.358886719-.018066406-.023925781-8.998535156-.163330078-60.959960938,6.360595703-.015625-.016845703-6.363769531,6.360351562-.018066406-.023925781-8.998535156-.033935547-12.71875-.023925781-8.999023438-6.360595703.016113281-.016601562-6.362304688-6.360107422.017578125-.016601562-6.357421875-6.362792969.015625-.017822266-6.362792969-6.357666016.017578125-.016845703-6.360351562-6.360595703.017578125-.010009766-3.720214844-.024414062-8.999755859-9,.024169922-19.080932617.051513672-9.000732422.024414062.017700195,6.357910156-1.079589844.002685547-.122558594-45.600097656,6.359985352-.017822266-.016967773-6.359375,1.081176758-.002685547.017211914,6.360107422,8.99987793-.024169922,19.081176758-.051513672,9.000244141-.024414062-.017578125-6.358642578,6.358642578-.017578125-.016845703-6.360595703,6.361572266-.017822266-.017822266-6.358886719,3.719726562-.009765625,8.999755859-.023925781-.016845703-6.361816406,6.360107422-.017822266-.023681641-8.998535156-.016845703-6.360351562-.023925781-9.001220703-9.001220703.025146484-6.360107422.017822266-8.998535156.025146484.016845703,6.359619141-7.440429688.020019531-.016845703-6.359619141-8.999755859.023681641-3.720703125.009765625-.016601562-6.361816406h0Z"/>
    </g>
    <g>
      <path class="cls-2" d="M220.252007514,1132.028310562l-6.361328125.015625-.016601562-6.358398438-6.360351562.017578125-.056640625-21.71875,6.359375-.017578125-.505859375-188.165039062-6.357421875.016601562-.017578125-6.360351562-6.360351562.016601562-.04296875-15.361328125,6.361328125-.015625-.016601562-6.358398438,6.359375-.017578125-.016601562-6.360351562,6.360351562-.018554688-.015625-6.358398438,15.359375-.04296875.016601562,6.360351562,6.360351562-.017578125.016601562,6.361328125,10.080078125-.02734375-.016601562-6.359375,6.359375-.018554688-.016601562-6.357421875,21.71875-.061523438.017578125,6.361328125,19.080078125-.05078125.017578125,6.359375,10.081054688-.02734375-.017578125-6.359375,6.360351562-.017578125-.016601562-6.359375,21.721679688-.056640625.015625,6.358398438,19.079101562-.05078125.016601562,6.359375,10.081054688-.02734375-.016601562-6.359375,15.360351562-.04296875.040039062,15.360351562-6.359375.017578125.017578125,6.360351562-6.360351562.017578125.017578125,6.361328125-6.361328125.016601562.016601562,6.359375-6.360351562.017578125.487304688,181.803710938,6.359375-.017578125.017578125,6.362304688,6.362304688-.015625.040039062,15.360351562-6.360351562.015625.016601562,6.358398438-6.359375.017578125.017578125,6.362304688-6.360351562.015625.016601562,6.358398438-15.360351562.04296875-.016601562-6.360351562-6.360351562.018554688-.016601562-6.362304688-6.360351562.016601562-.056640625-21.719726562,6.359375-.016601562-.266601562-99.123046875-3.719726562.009765625.016601562,6.361328125-12.719726562.033203125.016601562,6.360351562-12.720703125.034179688.216796875,80.041015625,6.358398438-.017578125.017578125,6.362304688,6.361328125-.015625.040039062,15.360351562-6.359375.015625.017578125,6.360351562-6.361328125.015625.016601562,6.358398438-6.360351562.017578125.016601562,6.360351562-15.359375.04296875-.016601562-6.361328125-6.359375.016601562-.017578125-6.359375-6.361328125.017578125-.056640625-21.71875,6.360351562-.017578125-.233398438-86.403320312-29.159179688.079101562.21484375,80.040039062,6.358398438-.017578125.017578125,6.362304688,6.361328125-.015625.040039062,15.360351562-6.359375.015625.017578125,6.360351562-6.361328125.015625.016601562,6.358398438-6.360351562.018554688.016601562,6.360351562-15.358398438.04296875-.017578125-6.362304688ZM241.624077826,1002.127919937l3.719726562-.009765625-.017578125-6.360351562,12.720703125-.034179688-.017578125-6.359375,12.721679688-.03515625-.181640625-67.322265625-6.360351562.017578125-.016601562-6.360351562-6.360351562.015625-.016601562-6.358398438-12.719726562.03515625-3.720703125.008789062.249023438,92.762695312ZM298.831109076,989.253896499l29.16015625-.078125-.180664062-67.322265625-6.360351562.015625-.016601562-6.358398438-6.360351562.015625-.016601562-6.358398438-10.080078125.02734375.016601562,6.359375-6.360351562.017578125.198242188,73.681640625Z"/>
      <path class="cls-1" d="M332.197075873,879.182607437l.016113281,6.358398438,19.080078125-.051025391.016845703,6.360351562,19.081054688-.051269531.016845703,6.360351562-6.360351562.017822266.017822266,6.360107422-6.360595703.015869141.016845703,6.360351562-6.360351562.017822266.511230469,190.804443359,6.360107422-.017578125.017822266,6.359863281,6.360595703-.015625.016845703,6.360351562-6.360839844.015625.016845703,6.360351562-6.360107422.018066406.017822266,6.359863281-6.359863281.015625.016845703,6.360351562-6.360107422.018066406-.016845703-6.360351562-6.360107422.017578125-.016845703-6.360351562-6.360595703.015625-.033203125-12.71875,6.359375-.017578125-.511230469-190.804443359-6.360595703.015869141-.016357422-6.358398438-6.360595703.015869141-.016845703-6.360351562-12.719238281.03515625-.016845703-6.360351562-6.360839844.015869141.033691406,12.720703125-6.360107422.017822266.221191406,82.680419922,31.80078125-.084472656.017822266,6.359863281-6.360107422.018066406.016845703,6.360351562-12.719970703.033203125.016845703,6.360351562-12.720947266.033691406.239501953,89.042480469,6.360107422-.017578125.016845703,6.360351562,6.360595703-.015625.016845703,6.360351562-6.360595703.015625.017822266,6.360351562-6.360839844.015625.016845703,6.360351562-6.360107422.018066406.016845703,6.360351562-6.359130859.017578125-.016845703-6.360351562-6.360839844.015625-.017578125-6.359863281-6.360351562.017578125-.032958984-12.719238281,6.360107422-.017578125-.256347656-95.402832031-31.800292969.086425781-.016845703-6.360351562,6.360351562-.017578125-.017822266-6.360351562,12.720703125-.033691406-.017578125-6.359863281,12.720214844-.035644531-.204833984-76.322021484-6.360107422.017578125-.016357422-6.358398438-6.360595703.015869141-.016845703-6.360351562-12.719482422.03515625-.016845703-6.360351562-6.360595703.015869141.016845703,6.360351562-6.360107422.017822266.528808594,197.164550781,6.360107422-.018066406.016845703,6.360839844,6.360595703-.016113281.016845703,6.360351562-6.360595703.016113281.017578125,6.359863281-6.360595703.016113281.016845703,6.360351562-6.360107422.017578125.016601562,6.360351562-6.360107422.018066406-.016845703-6.360351562-6.360595703.015625-.016845703-6.360351562-6.360107422.017578125-.032958984-12.71875,6.359130859-.017578125-.528808594-197.164550781-6.359130859.017578125-.016845703-6.360351562-6.360839844.015869141-.017578125-6.360351562,6.360595703-.015869141-.016845703-6.360351562,6.359130859-.017333984-.016601562-6.360595703,6.360107422-.017578125-.016357422-6.358642578,6.360107422-.017822266.016845703,6.360595703,6.360107422-.017822266.016845703,6.360351562,19.080078125-.051025391-.016845703-6.360351562,6.360107422-.017822266-.017089844-6.358398438,12.720214844-.035400391.017822266,6.360107422,19.080078125-.051025391.016601562,6.360351562,19.081054688-.051269531-.016845703-6.360351562,6.359375-.017578125-.017333984-6.358154297,12.720947266-.033691406M376.734429389,885.420888687l.016845703,6.360351562-6.360107422.017822266-.016845703-6.360351562,6.360107422-.017822266M341.174126655,870.158925796l-9.000976562.023681641-12.720947266.033691406-9.000732422.023925781.017578125,6.359130859-6.358642578.017578125.016845703,6.359619141-1.081054688.002929688-.016601562-6.360107422-9.000488281.023925781-10.081298828.027099609-.017578125-6.361083984-9,.024902344-12.720214844.035400391-8.999023438.025146484.017089844,6.358642578-6.359619141.017578125.016845703,6.359375-1.080322266.002929688-.016845703-6.361572266-6.360107422.017822266-.016845703-6.360595703-9.001220703.025146484-6.360107422.017822266-8.998046875.025146484.016357422,6.358398438-6.360351562.017578125.016601562,6.360351562-6.359375.017089844.016845703,6.358398438-6.361816406.015869141.024902344,9.002441406.017578125,6.360351562.024902344,8.997558594,6.359863281-.015869141.016845703,6.362792969,6.359375-.017578125.48046875,179.164550781-6.358154297.017578125.023193359,8.998535156.032958984,12.71875.0234375,9.001464844,6.360595703-.017578125.016845703,6.357421875,6.360595703-.015625.016845703,6.363769531,9.001708984-.025390625,6.360107422-.018066406,8.997802734-.025390625-.016601562-6.359863281,6.360351562-.017578125-.016845703-6.358398438,6.361816406-.016113281-.017578125-6.359863281,6.359375-.016113281-.023681641-9.000976562-.016845703-6.360351562-.023925781-8.999023438-6.360595703.016113281-.016845703-6.36328125-6.360351562.018066406-.190673828-71.040527344,20.160400391-.0546875.208007812,77.403320312-6.359130859.017578125.023193359,8.998535156.032958984,12.719238281.0234375,9.001464844,6.361816406-.017578125.017578125,6.356933594,6.359863281-.015625.016845703,6.36328125,9.000976562-.024902344,6.359130859-.017578125,8.999023438-.024902344-.017089844-6.360839844,6.360351562-.018066406-.016845703-6.356933594,6.362060547-.015625-.017822266-6.360351562,6.359130859-.015625-.023681641-9.001953125-.016845703-6.360351562-.023925781-8.998046875-6.360595703.015625-.016845703-6.36328125-6.360351562.017578125-.191162109-71.041503906,3.720703125-.009765625,8.999755859-.023925781-.016845703-6.359863281,3.719726562-.009765625,3.720458984-.009765625.224609375,83.762695312-6.358886719.017578125.0234375,8.998535156.033203125,12.71875.0234375,8.998535156,6.361083984-.015625.016845703,6.36328125,6.360107422-.017578125.016845703,6.360839844,9.001708984-.025390625,6.360107422-.018066406,8.998046875-.025390625-.016845703-6.356933594,6.361328125-.015625-.017822266-6.36328125,6.358642578-.018066406-.016601562-6.356933594,6.360839844-.015625-.023925781-9.001953125-.016845703-6.360351562-.023925781-8.998046875-6.361816406.015625-.017822266-6.362792969-6.359130859.017578125-.462890625-172.8046875,6.359863281-.017822266-.016845703-6.357666016,6.362060547-.015869141-.017822266-6.362792969,6.358886719-.017822266-.016845703-6.360351562,6.360107422-.017822266-.023681641-8.998779297-.016845703-6.360351562-.023925781-9.001220703-9.001220703.025146484-6.360107422.017822266-8.998535156.025146484.016845703,6.359375-1.081298828.002929688-.016845703-6.360107422-9.000244141.023925781-10.078857422.027099609-.016113281-6.358154297h0ZM309.488335639,913.683339859l1.080322266-.002929688.016845703,6.357910156,6.359863281-.015869141.016357422,6.358398438,6.361572266-.015869141.15625,58.322509766-20.161132812.053710938-.173095703-64.681640625,6.359863281-.017822266-.016845703-6.358398438h0ZM245.887749701,913.854482437l3.721435547-.010253906,3.718505859-.010253906.016845703,6.357910156,6.359863281-.015869141.016357422,6.360839844,6.361083984-.017578125.156494141,58.322509766-3.721191406.010253906-8.999755859.025390625.017578125,6.358398438-3.719726562.009765625-3.719970703.009765625-.207519531-77.400878906h0Z"/>
    </g>
    <g>
      <path class="cls-2" d="M391.973687201,1131.568349624l-6.359375.016601562-.018554688-6.360351562-6.358398438.016601562-.057617188-21.716796875,6.359375-.017578125-.505859375-188.165039062-6.359375.017578125-.016601562-6.362304688-6.359375.015625-.04296875-15.360351562,6.361328125-.015625-.017578125-6.358398438,6.359375-.017578125-.016601562-6.360351562,6.359375-.017578125-.017578125-6.358398438,15.360351562-.04296875.017578125,6.360351562,6.361328125-.017578125.016601562,6.360351562,10.080078125-.02734375-.016601562-6.359375,6.360351562-.017578125-.016601562-6.359375,21.720703125-.057617188.016601562,6.359375,19.080078125-.051757812.016601562,6.360351562,10.081054688-.02734375-.016601562-6.359375,6.359375-.017578125-.016601562-6.359375,21.720703125-.057617188.016601562,6.358398438,19.081054688-.05078125.016601562,6.360351562,10.080078125-.02734375-.016601562-6.362304688,15.360351562-.037109375.040039062,15.359375-6.360351562.016601562.016601562,6.359375-6.359375.017578125.018554688,6.360351562-6.361328125.017578125.016601562,6.362304688-6.359375.015625.48828125,181.803710938,6.357421875-.014648438.017578125,6.357421875,6.361328125-.017578125.040039062,15.360351562-6.360351562.017578125.015625,6.360351562-6.356445312.016601562.017578125,6.361328125-6.361328125.015625.017578125,6.359375-15.361328125.04296875-.016601562-6.360351562-6.360351562.017578125-.016601562-6.362304688-6.361328125.015625-.057617188-21.716796875,6.360351562-.017578125-.265625-99.123046875-3.720703125.009765625.017578125,6.360351562-12.720703125.034179688.016601562,6.359375-12.720703125.03515625.21484375,80.041015625,6.359375-.017578125.017578125,6.361328125,6.360351562-.016601562.04296875,15.360351562-6.361328125.016601562.017578125,6.359375-6.360351562.017578125.017578125,6.362304688-6.361328125.015625.016601562,6.358398438-15.359375.04296875-.016601562-6.360351562-6.360351562.017578125-.016601562-6.362304688-6.361328125.015625-.056640625-21.716796875,6.359375-.017578125-.232421875-86.40234375-29.161132812.078125.21484375,80.041015625,6.359375-.017578125.017578125,6.362304688,6.361328125-.015625.040039062,15.360351562-6.359375.015625.017578125,6.358398438-6.360351562.017578125.017578125,6.362304688-6.361328125.015625.016601562,6.358398438-15.360351562.04296875-.016601562-6.361328125ZM413.345757514,1001.667958999l3.719726562-.009765625-.017578125-6.361328125,12.721679688-.033203125-.016601562-6.360351562,12.720703125-.034179688-.180664062-67.322265625-6.359375.016601562-.017578125-6.359375-6.360351562.015625-.017578125-6.358398438-12.720703125.03515625-3.719726562.0078125.248046875,92.763671875ZM470.553765326,988.793935562l29.161132812-.079101562-.180664062-67.322265625-6.361328125.015625-.016601562-6.357421875-6.359375.015625-.017578125-6.358398438-10.080078125.02734375.017578125,6.358398438-6.361328125.017578125.198242188,73.682617188Z"/>
      <path class="cls-1" d="M503.920220405,878.721914078l.016113281,6.358642578,19.081054688-.051513672.016845703,6.360351562,19.080078125-.051025391.016845703,6.360351562-6.360351562.017822266.017822266,6.360107422-6.360107422.017822266.016845703,6.360351562-6.359863281.015625.512207031,190.803955078,6.358642578-.015136719.017822266,6.360351562,6.360107422-.018066406.016845703,6.360351562-6.360107422.018066406.016113281,6.358398438-6.358154297.017089844.016845703,6.360351562-6.360839844.016113281.016845703,6.360351562-6.360107422.017578125-.016845703-6.360351562-6.360107422.018066406-.016845703-6.360839844-6.360595703.016113281-.033935547-12.71875,6.360107422-.017578125-.511230469-190.804443359-6.360595703.015869141-.017333984-6.358398438-6.360595703.015869141-.016845703-6.360351562-12.719238281.03515625-.017822266-6.360107422-6.360595703.015869141.034423828,12.720458984-6.360107422.017822266.221679688,82.682373047,31.800292969-.086425781.016845703,6.360351562-6.360107422.017578125.017822266,6.360351562-12.719970703.033203125.016845703,6.360351562-12.720214844.035644531.238037109,89.041015625,6.360107422-.017578125.017578125,6.359863281,6.360839844-.015625.016845703,6.360351562-6.360839844.015625.016845703,6.360839844-6.360107422.017578125.017822266,6.359863281-6.360839844.016113281.016845703,6.360351562-6.359130859.017578125-.016845703-6.360351562-6.360107422.017578125-.016845703-6.360351562-6.360595703.015625-.034179688-12.718261719,6.360107422-.018066406-.255615234-95.400878906-31.801025391.084472656-.016601562-6.360351562,6.359130859-.017578125-.017822266-6.359863281,12.720947266-.033691406-.016845703-6.360351562,12.720703125-.033691406-.203857422-76.322265625-6.360595703.015869141-.017333984-6.358398438-6.360595703.015869141-.016845703-6.360351562-12.720214844.035400391-.016845703-6.360351562-6.360839844.015869141.017822266,6.360107422-6.360107422.017822266.527832031,197.164550781,6.360107422-.017578125.017822266,6.360351562,6.359863281-.015625.016601562,6.360351562-6.359619141.015625.016845703,6.360351562-6.360107422.017578125.017578125,6.360351562-6.360595703.015625.016845703,6.360839844-6.360107422.017578125-.016845703-6.360351562-6.360839844.015625-.017578125-6.359863281-6.358398438.017089844-.033935547-12.71875,6.359130859-.017578125-.528808594-197.164550781-6.359130859.017578125-.016845703-6.360351562-6.360595703.015869141-.016845703-6.360351562,6.360595703-.015869141-.017822266-6.360351562,6.359375-.017333984-.016845703-6.360351562,6.360107422-.017822266-.017089844-6.358398438,6.360107422-.017578125.017578125,6.360107422,6.360351562-.017822266.016601562,6.360351562,19.080078125-.051025391-.016845703-6.360351562,6.360107422-.017822266-.016113281-6.358398438,12.720703125-.033691406.016357422,6.358398438,19.080078125-.051025391.016845703,6.360351562,19.080810547-.051269531-.016601562-6.360351562,6.359130859-.017578125-.016357422-6.358398438,12.720947266-.033691406M548.458062201,884.962148453l.016845703,6.360351562-6.360595703.015869141-.016845703-6.360351562,6.360595703-.015869141M512.897271186,869.698232437l-9.000976562.023681641-12.720947266.033691406-8.999267578.023925781.016357422,6.359375-6.359375.017578125.016601562,6.359619141-1.081298828.002929688-.016845703-6.360107422-9.000244141.023925781-10.079101562.027099609-.016357422-6.358154297-9.000732422.023681641-12.720703125.033691406-8.998779297.023925781.016113281,6.359619141-6.361083984.017822266.016845703,6.359375-1.079833984.002929688-.016601562-6.361572266-6.361816406.017822266-.017578125-6.359863281-9,.024902344-6.360107422.017578125-8.999267578.024902344.017089844,6.358642578-6.359619141.017822266.016845703,6.359863281-6.360839844.017089844.017822266,6.358398438-6.359130859.015869141.023681641,9.001464844.016845703,6.360351562.023925781,8.998535156,6.360595703-.015869141.016845703,6.362792969,6.359375-.017578125.48046875,179.164550781-6.358886719.017578125.023925781,8.999023438.033935547,12.71875.024169922,9,6.359130859-.017089844.017578125,6.357910156,6.359863281-.015625.016845703,6.36328125,9.000976562-.024902344,6.360107422-.017578125,8.998779297-.024902344-.016845703-6.357910156,6.361816406-.015625-.017578125-6.36328125,6.359130859-.017578125-.016845703-6.357421875,6.359130859-.015625-.0234375-9.001464844-.016601562-6.360351562-.0234375-8.998535156-6.361572266.015625-.017822266-6.36328125-6.359130859.017578125-.190185547-71.040527344,20.161621094-.053710938.207275391,77.402832031-6.360107422.018066406.024169922,8.998535156.034179688,12.718261719.024169922,8.997558594,6.360351562-.015625.016845703,6.36328125,6.360107422-.017578125.016845703,6.360351562,9.000976562-.024902344,6.359130859-.017578125,8.998779297-.024902344-.016845703-6.358398438,6.362304688-.016113281-.017822266-6.361816406,6.358642578-.017578125-.016845703-6.357910156,6.360839844-.015625-.023681641-9.001953125-.016845703-6.360351562-.023925781-8.998046875-6.361816406.015625-.017578125-6.362792969-6.359375.017578125-.189941406-71.041503906,3.721435547-.010253906,8.998535156-.025390625-.016845703-6.358398438,3.719726562-.009765625,3.721435547-.009765625.224365234,83.762695312-6.359863281.017578125.023925781,8.999023438.033935547,12.71875.023925781,8.999023438,6.360595703-.016113281.016845703,6.36328125,6.360107422-.018066406.016845703,6.359863281,9.000976562-.024902344,6.360107422-.017578125,8.999023438-.024902344-.016845703-6.358398438,6.360839844-.016113281-.016845703-6.361816406,6.356933594-.016601562-.016113281-6.359863281,6.361083984-.018066406-.023681641-8.998535156-.016845703-6.360351562-.023925781-9.001464844-6.361328125.018066406-.017822266-6.356445312-6.357666016.015136719-.463867188-172.8046875,6.359375-.015625-.016845703-6.36328125,6.361572266-.017822266-.017822266-6.360351562,6.358886719-.017822266-.016845703-6.357421875,6.360595703-.015869141-.023681641-9.001464844-.016845703-6.360351562-.023925781-8.998535156-8.998535156.022460938-6.360595703.015869141-9.001220703.022460938.016845703,6.362060547-1.080322266.002929688-.016845703-6.360595703-9.000488281.024169922-10.079589844.02734375-.016113281-6.358154297h0ZM481.210747748,913.22289064l1.080078125-.002929688.016845703,6.357910156,6.361328125-.015869141.017333984,6.358398438,6.360107422-.015869141.15625,58.322998047-20.161621094.0546875-.173339844-64.683105469,6.360351562-.017822266-.017333984-6.358398438h0ZM417.60967353,913.394277359l3.721191406-.010253906,3.718994141-.010498047.016845703,6.357910156,6.361328125-.015869141.017089844,6.358398438,6.360351562-.015869141.155761719,58.323730469-3.720703125.009765625-8.999755859.023925781.016845703,6.360351562-3.721191406.009765625-3.719482422.009765625-.207275391-77.401123047h0Z"/>
    </g>
  </g>
</svg>