<?xml version="1.0" encoding="UTF-8"?>
<svg id="Layer_2" data-name="Layer 2" xmlns="http://www.w3.org/2000/svg" viewBox="0 0 599.94 250.81">
  <g id="layer">
    <g>
      <path id="path2" d="M320.94,138c4.2,0,5.4,2.7,5.4,6.9v47.3c0,4.6-1.2,6.9-5.4,6.9v5.4h25.7v-5.4c-4.6-.4-5.8-1.9-5.8-7.7v-47.3c0-4.6,1.5-6.9,5.8-6.9v-5.4h-25.7v6.2Z"/>
      <path id="path4" d="M384.34,169.5c-3.8-4.6-7.7-7.7-8.8-9.2l-7.7-7.7c-2.7-2.3-3.8-4.6-4.2-6.5-.8-1.9-.8-5.8,1.2-7.7s4.2-2.7,6.9-2.3c2.7.4,5.8,2.7,7.3,4.6,1.5,2.3,3.1,5,3.8,6.9.4,1.9.8,3.1.8,3.5s.4,1.9.4,2.3h6.1v-21.5h-4.6s-.4,1.2-1.2,1.5c-.8.4-1.2,0-1.5,0-.4-.4-4.2-1.9-8.8-2.7-4.6-.8-10.4-.4-14.2,1.5-2.3,1.2-3.8,2.3-5.8,3.8-1.5,1.5-3.1,3.8-3.8,5.8-1.5,3.8-1.9,8.5-.4,12.7s4.6,8.1,6.9,10.8l5.4,5.4c2.3,2.3,5,5,5.8,6.1,1.9,1.9,3.8,3.8,6.5,6.9,2.7,3.5,3.5,6.1,3.1,9.2-.4,3.1-1.9,4.6-3.5,5.8-1.9,1.2-4.6,1.5-7.3.4-2.7-1.1-4.6-3.1-5.4-4.6-1.2-1.5-2.3-4.6-3.1-6.9-.8-2.3-1.5-5.4-1.5-5.4h-5.4v21.9h3.8c.4-.4,1.2-1.5,1.9-1.9,1.2-.8,2.3-.4,3.5,0s2.3,1.2,4.2,1.5c2.7.8,5.4,1.2,8.8,1.2,3.8-.4,5-.8,7.3-1.9,2.7-1.2,5.8-3.5,8.1-7.7,2.3-4.6,2.7-10,1.9-14.2-.8-4.3-3.1-7.4-6.5-11.6h0Z"/>
      <path id="path6" d="M255.94,199.4c-5.4,0-8.5-3.8-8.5-10v-20c7.7,0,14.6,2.7,15.4,9.6h5v-23.4h-5c-1.2,6.1-7.7,8.5-15.4,8.5v-26.1h3.8c6.9,0,13.4,1.5,17.7,10h4.6v-15.4h-48v5.4c4.2,0,6.1,2.3,6.1,6.9v46.5c0,5-1.2,7.3-5.8,7.7v5.4h46.9l1.9-18.4h-4.6c-2.9,8.7-8.7,13.3-14.1,13.3Z"/>
      <path id="path8" d="M201.44,138c5.4.8,6.5,3.8,6.5,11.5v27.3h-.4l-27.3-44.2h-20.7v5.4c2.7.8,7.7,2.7,9.6,6.9v38.4c0,11.1-1.2,13.8-6.5,16.1v5.4h19.6v-5.4c-5.8-1.2-6.9-5-6.9-11.5v-38l.4.4,33.4,54.9h5v-57.3c0-4.2.8-7.3,2.3-8.8s5.8-1.5,5.8-1.5v-5.4h-20.4v5.8h-.4Z"/>
      <path id="path10" d="M101.54,132.6h-56.5v15.8h4.6c1.9-9.6,10.8-10.4,15.8-10.4v54.6c0,4.6-.8,6.9-5.8,6.9v5.4h27.7v-5.4c-5.8-.4-5.8-3.1-5.8-7.7v-53.8c5.4,0,13.1,1.5,15,10.4h5v-15.8Z"/>
      <path id="path12" d="M35.44,169.5c-3.8-4.6-7.7-8.1-8.8-9.2l-7.7-7.7c-2.7-2.3-3.8-4.6-4.2-6.5-.8-1.9-.8-5.8,1.2-7.7s4.2-2.7,6.9-2.3,5.8,2.7,7.3,4.6c1.5,1.9,3.1,5,3.8,6.9.4,1.9.8,3.1.8,3.5s.4,1.9.4,2.3h6.1v-21.5h-4.6s-.4,1.2-1.2,1.5c-.8.4-1.2,0-1.5,0-.4-.4-4.2-1.9-8.8-2.7-4.6-.8-10.4-.4-14.2,1.5-2.3,1.2-3.8,2.3-5.8,3.8-1.5,1.5-3.1,3.8-3.8,5.8-1.5,3.8-1.9,8.5-.4,12.7s4.2,8.1,6.9,10.8l5.4,5.4c2.3,2.3,5,5,5.8,6.1,1.9,1.9,3.8,3.8,6.5,6.9,2.7,3.5,3.5,6.1,3.1,9.2-.4,3.1-1.9,4.6-3.5,5.8-1.9,1.2-4.6,1.5-7.3.4-2.7-1.2-4.6-3.1-5.4-4.6-1.2-1.5-2.3-4.6-3.1-6.9-.8-2.4-1.6-5.4-1.6-5.4H2.34v21.9h3.8c.4-.4,1.2-1.5,1.9-1.9,1.2-.8,2.3-.4,3.5,0s2.3,1.2,4.2,1.5c2.7.8,5.4,1.2,8.8,1.2,3.8-.4,5-.8,7.3-1.9,2.7-1.2,5.8-3.5,8.1-7.7,2.3-4.6,2.7-10,1.9-14.2-.7-4.3-3-7.4-6.4-11.6h0Z"/>
      <path id="path14" d="M131.14,131.4c-8.1,0-29.6,5-29.6,36.9s20.4,37.7,29.6,37.7,29.6-6.1,29.6-37.7c-.1-31.9-22-36.9-29.6-36.9ZM139.94,192.5c-1.9,4.2-3.8,8.1-8.8,8.1s-8.5-5.4-9.6-9.2c-.8-3.8-2.3-12.3-1.9-23.4,0-10.8,1.2-18.8,1.9-21.9.8-3.1,3.5-9.6,9.6-9.6,4.2,0,7.7,3.5,9.2,8.5s2.3,16.1,2.3,23.1-.8,20.2-2.7,24.4h0Z"/>
      <path id="path16" d="M314.34,72.6L299.34,0l-14.6,72.6-72.6,14.6,72.6,14.6,14.6,72.6,14.6-72.6,72.6-14.6-72.2-14.6ZM221.44,87.2l64.2-13.1,12.7,13.1h-76.9ZM299.44,165.2l-13.1-64.2,13.1-12.7v76.9ZM299.44,9.2l13.1,64.2-13.1,12.7V9.2ZM313.64,100.3l-12.7-13.1h76.8l-64.1,13.1Z"/>
      <path id="path18" d="M529.54,138c5.4.8,6.5,4.2,6.5,11.9v27.3h-.3l-26.9-44.2h-18.4v5.4c2.7.8,6.9,6.1,6.9,6.1v41.9c-.4,5-.4,10-2.7,12.3-.8.8-1.5.8-2.7.8-2.7,0-4.2-2.3-6.9-12.7l-13.8-53.8h-15l1.5,5.8-13.1,45.3c-3.1,11.1-4.6,14.6-8.1,16.5v4.2h17.7v-4.2c-3.5-1.2-5-4.2-5-7.3,0-1.5.8-4.2,1.2-6.1l1.9-6.5h15.8l1.9,8.1c.8,3.5,1.2,5,1.2,6.1,0,2.7-1.5,5.4-4.2,6.1v4.2h43.4v-4.6c-5.8-1.2-7.3-5.8-7.3-12.3v-38.4l.4.4,33.4,54.9h5v-57.3c0-6.1.4-9.2,4.6-10v-5.4h-17.3v5.4h.3v.1ZM454.64,173.7l6.1-25h.4l5.8,25h-12.3Z"/>
      <path id="path20" d="M570.24,132.6h-20.7v5.4c2.7.8,3.5,3.5,3.5,6.5v46.9c0,5,0,7.3-3.5,7.7v5.4h22.7c22.7,0,27.7-18.8,27.7-36.1-.1-25.8-10.1-35.8-29.7-35.8h0ZM573.34,199.4c-3.5,0-5.4-1.5-5.4-8.1v-53.4h1.9c7.3,0,13.4,5.8,13.4,30,.1,18.5-1.8,31.5-9.9,31.5h0Z"/>
      <path id="path22" d="M417.34,199.4c-3.8,0-3.5-3.8-3.5-11.1v-43c0-4.6,1.2-6.9,5.8-7.3v-5.4h-25v5.4c3.8.4,5,2.3,5,7.3v46.9c0,4.6-.8,6.9-5,7.3v5.4h39.2l2.3-18.1h-4.2c-3.4,8-9.2,12.6-14.6,12.6h0Z"/>
      <g>
        <path d="M7.99,250.48H1.36l12.06-23.23h8.25l12.1,23.23h-6.66l-2.42-4.71h-14.28l-2.42,4.71ZM17.3,232.42l-4.31,8.35h9.11l-4.31-8.35h-.5Z"/>
        <path d="M125.13,243.59l4.51,6.89h-6.76l-3.51-5.73h-10.9v5.73h-5.67v-23.23h17.33c3.68,0,9.38,1.72,9.38,8.72,0,4.08-1.99,6.4-4.38,7.62ZM108.46,232.32v7.32h10.31c2.32,0,5.17-.03,5.17-3.68s-2.85-3.65-5.17-3.65h-10.31Z"/>
        <path d="M221.49,243.59l4.51,6.89h-6.76l-3.51-5.73h-10.9v5.73h-5.67v-23.23h17.33c3.68,0,9.38,1.72,9.38,8.72,0,4.08-1.99,6.4-4.38,7.62ZM204.82,232.32v7.32h10.31c2.32,0,5.17-.03,5.17-3.68s-2.85-3.65-5.17-3.65h-10.31Z"/>
        <path d="M299.26,250.48h-6.63l12.06-23.23h8.25l12.1,23.23h-6.66l-2.42-4.71h-14.28l-2.42,4.71ZM308.57,232.42l-4.31,8.35h9.11l-4.31-8.35h-.5Z"/>
        <path d="M394.06,250.48v-23.23h5.67v12.79l16.47-12.79h8.22l-13.32,10.41,13.99,12.83h-7.99l-10.14-9.58-7.22,5.63v3.94h-5.67Z"/>
        <path d="M494.24,250.48v-23.23h5.67v23.23h-5.67Z"/>
        <path d="M592.53,243.49c0-1.82-1.42-2.12-8.68-2.45-10.14-.46-14.15-2.05-14.15-7.29s5.17-6.79,13.89-6.79,14.08,2.19,14.08,8.12h-6.3c0-2.55-2.49-3.15-8.45-3.15-5.6,0-7.09.53-7.09,2.12,0,1.69,1.49,1.99,8.02,2.35,9.15.46,14.81.99,14.81,6.89,0,6.23-5.8,7.52-14.48,7.52-9.51,0-15.15-1.62-15.15-8.52h6.3c0,2.45,1.89,3.55,9.18,3.55,6.1,0,8.02-.66,8.02-2.35Z"/>
      </g>
    </g>
  </g>
</svg>